# Blender 4.1.1
# www.blender.org
mtllib moveB.mtl
o Cube
v -1.000000 0.986076 1.000000
v -1.000000 -1.013924 1.000000
v -1.000000 0.986076 -1.000000
v -1.000000 -1.013924 -1.000000
v 1.000000 0.986076 1.000000
v 1.000000 -1.013924 1.000000
v 1.000000 0.986076 -1.000000
v 1.000000 -1.013924 -1.000000
vn -0.0000 1.0000 -0.0000
vn -0.0000 -0.0000 -1.0000
vn 1.0000 -0.0000 -0.0000
vn -0.0000 -1.0000 -0.0000
vn -1.0000 -0.0000 -0.0000
vn -0.0000 -0.0000 1.0000
vt 0.747854 0.500000
vt 0.500000 0.747854
vt 0.500000 0.500000
vt 0.252146 0.995707
vt 0.252146 0.747854
vt 0.500000 0.004293
vt 0.252146 0.252146
vt 0.252146 0.004293
vt 0.252146 0.500000
vt 0.004293 0.747854
vt 0.004293 0.500000
vt 0.500000 0.252146
vt 0.747854 0.747854
vt 0.500000 0.995707
s 0
usemtl Material
f 5/1/1 3/2/1 1/3/1
f 3/2/2 8/4/2 4/5/2
f 7/6/3 6/7/3 8/8/3
f 2/9/4 8/10/4 6/11/4
f 1/3/5 4/5/5 2/9/5
f 5/12/6 2/9/6 6/7/6
f 5/1/1 7/13/1 3/2/1
f 3/2/2 7/14/2 8/4/2
f 7/6/3 5/12/3 6/7/3
f 2/9/4 4/5/4 8/10/4
f 1/3/5 3/2/5 4/5/5
f 5/12/6 1/3/6 2/9/6
