# Blender 4.1.1
# www.blender.org
mtllib enemyBulletModel.mtl
o 球
v 0.000000 0.831470 -0.555570
v 0.000000 0.555570 -0.831470
v 0.000000 0.195090 -0.980785
v 0.000000 0.000000 -1.000000
v 0.000000 -0.195090 -0.980785
v 0.000000 -0.555570 -0.831470
v 0.038060 0.980785 -0.191342
v 0.074658 0.923880 -0.375330
v 0.108386 0.831470 -0.544895
v 0.137950 0.707107 -0.693520
v 0.162212 0.555570 -0.815493
v 0.180240 0.382683 -0.906127
v 0.191342 0.195090 -0.961940
v 0.195090 0.000000 -0.980785
v 0.191342 -0.195090 -0.961940
v 0.180240 -0.382683 -0.906127
v 0.162212 -0.555570 -0.815493
v 0.137950 -0.707107 -0.693520
v 0.108386 -0.831470 -0.544895
v 0.074658 -0.923880 -0.375330
v 0.038060 -0.980785 -0.191342
v 0.074658 0.980785 -0.180240
v 0.146447 0.923880 -0.353553
v 0.212608 0.831470 -0.513280
v 0.270598 0.707107 -0.653281
v 0.318190 0.555570 -0.768178
v 0.353553 0.382683 -0.853553
v 0.375330 0.195090 -0.906127
v 0.382683 0.000000 -0.923879
v 0.375330 -0.195090 -0.906127
v 0.353553 -0.382683 -0.853553
v 0.318190 -0.555570 -0.768178
v 0.270598 -0.707107 -0.653281
v 0.212608 -0.831470 -0.513280
v 0.146447 -0.923880 -0.353553
v 0.074658 -0.980785 -0.180240
v 0.108386 0.980785 -0.162212
v 0.212608 0.923880 -0.318190
v 0.308658 0.831470 -0.461940
v 0.392847 0.707107 -0.587938
v 0.461940 0.555570 -0.691342
v 0.513280 0.382683 -0.768178
v 0.544895 0.195090 -0.815493
v 0.555570 0.000000 -0.831469
v 0.544895 -0.195090 -0.815493
v 0.513280 -0.382683 -0.768178
v 0.461940 -0.555570 -0.691342
v 0.392847 -0.707107 -0.587938
v 0.308658 -0.831470 -0.461940
v 0.212608 -0.923880 -0.318190
v 0.108386 -0.980785 -0.162212
v 0.137950 0.980785 -0.137950
v 0.270598 0.923880 -0.270598
v 0.392847 0.831470 -0.392847
v 0.500000 0.707107 -0.500000
v 0.587938 0.555570 -0.587938
v 0.653281 0.382683 -0.653281
v 0.693520 0.195090 -0.693520
v 0.707107 0.000000 -0.707107
v 0.693520 -0.195090 -0.693520
v 0.653281 -0.382683 -0.653281
v 0.587938 -0.555570 -0.587938
v 0.500000 -0.707107 -0.500000
v 0.392847 -0.831470 -0.392847
v 0.270598 -0.923880 -0.270598
v 0.137950 -0.980785 -0.137950
v 0.162212 0.980785 -0.108386
v 0.318190 0.923880 -0.212608
v 0.461940 0.831470 -0.308658
v 0.587938 0.707107 -0.392847
v 0.691342 0.555570 -0.461940
v 0.768178 0.382683 -0.513280
v 0.815493 0.195090 -0.544895
v 0.831470 0.000000 -0.555570
v 0.815493 -0.195090 -0.544895
v 0.768178 -0.382683 -0.513280
v 0.691342 -0.555570 -0.461940
v 0.587938 -0.707107 -0.392847
v 0.461940 -0.831470 -0.308658
v 0.318190 -0.923880 -0.212608
v 0.162212 -0.980785 -0.108386
v 0.000000 1.000000 0.000000
v 0.180240 0.980785 -0.074658
v 0.353553 0.923880 -0.146447
v 0.513280 0.831470 -0.212607
v 0.653281 0.707107 -0.270598
v 0.768178 0.555570 -0.318190
v 0.853553 0.382683 -0.353553
v 0.906127 0.195090 -0.375330
v 0.923879 0.000000 -0.382683
v 0.906127 -0.195090 -0.375330
v 0.853553 -0.382683 -0.353553
v 0.768178 -0.555570 -0.318190
v 0.653281 -0.707107 -0.270598
v 0.513280 -0.831470 -0.212607
v 0.353553 -0.923880 -0.146447
v 0.180240 -0.980785 -0.074658
v 0.191342 0.980785 -0.038060
v 0.375330 0.923880 -0.074658
v 0.544895 0.831470 -0.108386
v 0.693520 0.707107 -0.137950
v 0.815493 0.555570 -0.162212
v 0.906127 0.382683 -0.180240
v 0.961940 0.195090 -0.191342
v 0.980785 0.000000 -0.195090
v 0.961940 -0.195090 -0.191342
v 0.906127 -0.382683 -0.180240
v 0.815493 -0.555570 -0.162212
v 0.693520 -0.707107 -0.137950
v 0.544895 -0.831470 -0.108386
v 0.375330 -0.923880 -0.074658
v 0.191342 -0.980785 -0.038060
v 0.195090 0.980785 0.000000
v 0.382683 0.923880 0.000000
v 0.555570 0.831470 0.000000
v 0.707107 0.707107 0.000000
v 0.831469 0.555570 0.000000
v 0.923879 0.382683 0.000000
v 0.980785 0.195090 0.000000
v 1.000000 0.000000 0.000000
v 0.980785 -0.195090 -0.000000
v 0.923879 -0.382683 -0.000000
v 0.831469 -0.555570 -0.000000
v 0.707107 -0.707107 -0.000000
v 0.555570 -0.831470 -0.000000
v 0.382683 -0.923880 -0.000000
v 0.195090 -0.980785 -0.000000
v 0.191342 0.980785 0.038060
v 0.375330 0.923880 0.074658
v 0.544895 0.831470 0.108386
v 0.693520 0.707107 0.137950
v 0.815493 0.555570 0.162212
v 0.906127 0.382683 0.180240
v 0.961940 0.195090 0.191342
v 0.980785 -0.000000 0.195090
v 0.961940 -0.195090 0.191342
v 0.906127 -0.382683 0.180240
v 0.815493 -0.555570 0.162212
v 0.693520 -0.707107 0.137950
v 0.544895 -0.831470 0.108386
v 0.375330 -0.923880 0.074658
v 0.191342 -0.980785 0.038060
v 0.180240 0.980785 0.074658
v 0.353553 0.923880 0.146447
v 0.513280 0.831470 0.212608
v 0.653281 0.707107 0.270598
v 0.768178 0.555570 0.318190
v 0.853553 0.382683 0.353553
v 0.906127 0.195090 0.375330
v 0.923879 -0.000000 0.382683
v 0.906127 -0.195090 0.375330
v 0.853553 -0.382683 0.353553
v 0.768178 -0.555570 0.318190
v 0.653281 -0.707107 0.270598
v 0.513280 -0.831470 0.212608
v 0.353553 -0.923880 0.146447
v 0.180240 -0.980785 0.074658
v 0.162212 0.980785 0.108386
v 0.318190 0.923880 0.212608
v 0.461940 0.831470 0.308658
v 0.587938 0.707107 0.392847
v 0.691341 0.555570 0.461940
v 0.768178 0.382683 0.513280
v 0.815493 0.195090 0.544895
v 0.831469 -0.000000 0.555570
v 0.815493 -0.195090 0.544895
v 0.768178 -0.382683 0.513280
v 0.691341 -0.555570 0.461940
v 0.587938 -0.707107 0.392847
v 0.461940 -0.831470 0.308658
v 0.318190 -0.923880 0.212608
v 0.162212 -0.980785 0.108386
v 0.137950 0.980785 0.137950
v 0.270598 0.923880 0.270598
v 0.392847 0.831470 0.392847
v 0.500000 0.707107 0.500000
v 0.587938 0.555570 0.587938
v 0.653281 0.382683 0.653281
v 0.693520 0.195090 0.693520
v 0.707106 -0.000000 0.707107
v 0.693520 -0.195090 0.693520
v 0.653281 -0.382683 0.653281
v 0.587938 -0.555570 0.587938
v 0.500000 -0.707107 0.500000
v 0.392847 -0.831470 0.392847
v 0.270598 -0.923880 0.270598
v 0.137950 -0.980785 0.137950
v 0.108386 0.980785 0.162212
v 0.212607 0.923880 0.318190
v 0.308658 0.831470 0.461940
v 0.392847 0.707107 0.587938
v 0.461940 0.555570 0.691342
v 0.513280 0.382683 0.768178
v 0.544895 0.195090 0.815493
v 0.555570 -0.000000 0.831469
v 0.544895 -0.195090 0.815493
v 0.513280 -0.382683 0.768178
v 0.461940 -0.555570 0.691342
v 0.392847 -0.707107 0.587938
v 0.308658 -0.831470 0.461940
v 0.212607 -0.923880 0.318190
v 0.108386 -0.980785 0.162212
v 0.074658 0.980785 0.180240
v 0.146447 0.923880 0.353553
v 0.212607 0.831470 0.513280
v 0.270598 0.707107 0.653281
v 0.318189 0.555570 0.768178
v 0.353553 0.382683 0.853553
v 0.375330 0.195090 0.906127
v 0.382683 -0.000000 0.923879
v 0.375330 -0.195090 0.906127
v 0.353553 -0.382683 0.853553
v 0.318189 -0.555570 0.768178
v 0.270598 -0.707107 0.653281
v 0.212607 -0.831470 0.513280
v 0.146447 -0.923880 0.353553
v 0.074658 -0.980785 0.180240
v 0.038060 0.980785 0.191342
v 0.074658 0.923880 0.375330
v 0.108386 0.831470 0.544895
v 0.137950 0.707107 0.693520
v 0.162212 0.555570 0.815493
v 0.180240 0.382683 0.906127
v 0.191342 0.195090 0.961939
v 0.195090 -0.000000 0.980785
v 0.191342 -0.195090 0.961939
v 0.180240 -0.382683 0.906127
v 0.162212 -0.555570 0.815493
v 0.137950 -0.707107 0.693520
v 0.108386 -0.831470 0.544895
v 0.074658 -0.923880 0.375330
v 0.038060 -0.980785 0.191342
v 0.000000 0.980785 0.195090
v 0.000000 0.923880 0.382683
v 0.000000 0.831470 0.555570
v 0.000000 0.707107 0.707107
v 0.000000 0.555570 0.831469
v 0.000000 0.382683 0.923879
v 0.000000 0.195090 0.980785
v 0.000000 -0.000000 0.999999
v 0.000000 -0.195090 0.980785
v 0.000000 -0.382683 0.923879
v 0.000000 -0.555570 0.831469
v 0.000000 -0.707107 0.707107
v 0.000000 -0.831470 0.555570
v 0.000000 -0.923880 0.382683
v 0.000000 -0.980785 0.195090
v -0.038060 0.980785 0.191342
v -0.074658 0.923880 0.375330
v -0.108386 0.831470 0.544895
v -0.137950 0.707107 0.693520
v -0.162212 0.555570 0.815493
v -0.180240 0.382683 0.906127
v -0.191342 0.195090 0.961939
v -0.195091 -0.000000 0.980785
v -0.191342 -0.195090 0.961939
v -0.180240 -0.382683 0.906127
v -0.162212 -0.555570 0.815493
v -0.137950 -0.707107 0.693520
v -0.108386 -0.831470 0.544895
v -0.074658 -0.923880 0.375330
v -0.038060 -0.980785 0.191342
v -0.074658 0.980785 0.180240
v -0.146447 0.923880 0.353553
v -0.212608 0.831470 0.513280
v -0.270598 0.707107 0.653281
v -0.318190 0.555570 0.768177
v -0.353553 0.382683 0.853553
v -0.375330 0.195090 0.906127
v -0.382683 -0.000000 0.923879
v -0.375330 -0.195090 0.906127
v -0.353553 -0.382683 0.853553
v -0.318190 -0.555570 0.768177
v -0.270598 -0.707107 0.653281
v -0.212608 -0.831470 0.513280
v -0.146447 -0.923880 0.353553
v -0.074658 -0.980785 0.180240
v -0.108386 0.980785 0.162212
v -0.212608 0.923880 0.318190
v -0.308658 0.831470 0.461939
v -0.392847 0.707107 0.587938
v -0.461940 0.555570 0.691341
v -0.513280 0.382683 0.768178
v -0.544895 0.195090 0.815493
v -0.555570 -0.000000 0.831469
v -0.544895 -0.195090 0.815493
v -0.513280 -0.382683 0.768178
v -0.461940 -0.555570 0.691341
v -0.392847 -0.707107 0.587938
v -0.308658 -0.831470 0.461939
v -0.212608 -0.923880 0.318190
v -0.108386 -0.980785 0.162212
v -0.137950 0.980785 0.137950
v -0.270598 0.923880 0.270598
v -0.392847 0.831470 0.392847
v -0.500000 0.707107 0.500000
v -0.587938 0.555570 0.587937
v -0.653281 0.382683 0.653281
v -0.693520 0.195090 0.693520
v -0.707106 -0.000000 0.707106
v -0.693520 -0.195090 0.693520
v -0.653281 -0.382683 0.653281
v -0.587938 -0.555570 0.587937
v -0.500000 -0.707107 0.500000
v -0.392847 -0.831470 0.392847
v -0.270598 -0.923880 0.270598
v -0.137950 -0.980785 0.137950
v 0.000000 -1.000000 -0.000000
v -0.162212 0.980785 0.108386
v -0.318190 0.923880 0.212607
v -0.461940 0.831470 0.308658
v -0.587938 0.707107 0.392847
v -0.691341 0.555570 0.461939
v -0.768177 0.382683 0.513280
v -0.815493 0.195090 0.544895
v -0.831469 -0.000000 0.555569
v -0.815493 -0.195090 0.544895
v -0.768177 -0.382683 0.513280
v -0.691341 -0.555570 0.461939
v -0.587938 -0.707107 0.392847
v -0.461940 -0.831470 0.308658
v -0.318190 -0.923880 0.212607
v -0.162212 -0.980785 0.108386
v -0.180240 0.980785 0.074658
v -0.353553 0.923880 0.146447
v -0.513280 0.831470 0.212607
v -0.653281 0.707107 0.270598
v -0.768177 0.555570 0.318189
v -0.853553 0.382683 0.353553
v -0.906127 0.195090 0.375330
v -0.923879 -0.000000 0.382683
v -0.906127 -0.195090 0.375330
v -0.853553 -0.382683 0.353553
v -0.768177 -0.555570 0.318189
v -0.653281 -0.707107 0.270598
v -0.513280 -0.831470 0.212607
v -0.353553 -0.923880 0.146447
v -0.180240 -0.980785 0.074658
v -0.191342 0.980785 0.038060
v -0.375330 0.923880 0.074658
v -0.544895 0.831470 0.108386
v -0.693520 0.707107 0.137950
v -0.815493 0.555570 0.162211
v -0.906127 0.382683 0.180240
v -0.961939 0.195090 0.191341
v -0.980784 -0.000000 0.195090
v -0.961939 -0.195090 0.191341
v -0.906127 -0.382683 0.180240
v -0.815493 -0.555570 0.162211
v -0.693520 -0.707107 0.137950
v -0.544895 -0.831470 0.108386
v -0.375330 -0.923880 0.074658
v -0.191342 -0.980785 0.038060
v -0.195090 0.980785 0.000000
v -0.382683 0.923880 0.000000
v -0.555570 0.831470 0.000000
v -0.707107 0.707107 0.000000
v -0.831469 0.555570 0.000000
v -0.923879 0.382683 0.000000
v -0.980785 0.195090 0.000000
v -0.999999 0.000000 0.000000
v -0.980785 -0.195090 -0.000000
v -0.923879 -0.382683 -0.000000
v -0.831469 -0.555570 -0.000000
v -0.707107 -0.707107 -0.000000
v -0.555570 -0.831470 -0.000000
v -0.382683 -0.923880 -0.000000
v -0.195090 -0.980785 -0.000000
v -0.191342 0.980785 -0.038060
v -0.375330 0.923880 -0.074658
v -0.544895 0.831470 -0.108386
v -0.693520 0.707107 -0.137950
v -0.815493 0.555570 -0.162212
v -0.906127 0.382683 -0.180240
v -0.961939 0.195090 -0.191342
v -0.980784 0.000000 -0.195091
v -0.961939 -0.195090 -0.191342
v -0.906127 -0.382683 -0.180240
v -0.815493 -0.555570 -0.162212
v -0.693520 -0.707107 -0.137950
v -0.544895 -0.831470 -0.108386
v -0.375330 -0.923880 -0.074658
v -0.191342 -0.980785 -0.038060
v -0.180240 0.980785 -0.074658
v -0.353553 0.923880 -0.146447
v -0.513279 0.831470 -0.212607
v -0.653281 0.707107 -0.270598
v -0.768177 0.555570 -0.318190
v -0.853553 0.382683 -0.353553
v -0.906127 0.195090 -0.375330
v -0.923878 0.000000 -0.382683
v -0.906127 -0.195090 -0.375330
v -0.853553 -0.382683 -0.353553
v -0.768177 -0.555570 -0.318190
v -0.653281 -0.707107 -0.270598
v -0.513279 -0.831470 -0.212607
v -0.353553 -0.923880 -0.146447
v -0.180240 -0.980785 -0.074658
v -0.162212 0.980785 -0.108386
v -0.318189 0.923880 -0.212607
v -0.461939 0.831470 -0.308658
v -0.587938 0.707107 -0.392847
v -0.691341 0.555570 -0.461940
v -0.768177 0.382683 -0.513280
v -0.815493 0.195090 -0.544895
v -0.831468 0.000000 -0.555570
v -0.815493 -0.195090 -0.544895
v -0.768177 -0.382683 -0.513280
v -0.691341 -0.555570 -0.461940
v -0.587938 -0.707107 -0.392847
v -0.461939 -0.831470 -0.308658
v -0.318189 -0.923880 -0.212607
v -0.162212 -0.980785 -0.108386
v -0.137950 0.980785 -0.137950
v -0.270598 0.923880 -0.270598
v -0.392847 0.831470 -0.392847
v -0.500000 0.707107 -0.500000
v -0.587937 0.555570 -0.587938
v -0.653281 0.382683 -0.653281
v -0.693519 0.195090 -0.693520
v -0.707106 0.000000 -0.707106
v -0.693519 -0.195090 -0.693520
v -0.653281 -0.382683 -0.653281
v -0.587937 -0.555570 -0.587938
v -0.500000 -0.707107 -0.500000
v -0.392847 -0.831470 -0.392847
v -0.270598 -0.923880 -0.270598
v -0.137950 -0.980785 -0.137950
v -0.108386 0.980785 -0.162212
v -0.212607 0.923880 -0.318190
v -0.308658 0.831470 -0.461939
v -0.392847 0.707107 -0.587938
v -0.461939 0.555570 -0.691341
v -0.513280 0.382683 -0.768177
v -0.544895 0.195090 -0.815493
v -0.555569 0.000000 -0.831469
v -0.544895 -0.195090 -0.815493
v -0.513280 -0.382683 -0.768177
v -0.461939 -0.555570 -0.691341
v -0.392847 -0.707107 -0.587938
v -0.308658 -0.831470 -0.461939
v -0.212607 -0.923880 -0.318190
v -0.108386 -0.980785 -0.162212
v -0.074658 0.980785 -0.180240
v -0.146446 0.923880 -0.353553
v -0.212607 0.831470 -0.513279
v -0.270598 0.707107 -0.653281
v -0.318189 0.555570 -0.768177
v -0.353553 0.382683 -0.853553
v -0.375330 0.195090 -0.906127
v -0.382683 0.000000 -0.923879
v -0.375330 -0.195090 -0.906127
v -0.353553 -0.382683 -0.853553
v -0.318189 -0.555570 -0.768177
v -0.270598 -0.707107 -0.653281
v -0.212607 -0.831470 -0.513279
v -0.146446 -0.923880 -0.353553
v -0.074658 -0.980785 -0.180240
v -0.038060 0.980785 -0.191342
v -0.074658 0.923880 -0.375330
v -0.108386 0.831470 -0.544895
v -0.137950 0.707107 -0.693520
v -0.162211 0.555570 -0.815493
v -0.180240 0.382683 -0.906127
v -0.191341 0.195090 -0.961939
v -0.195090 0.000000 -0.980784
v -0.191341 -0.195090 -0.961939
v -0.180240 -0.382683 -0.906127
v -0.162211 -0.555570 -0.815493
v -0.137950 -0.707107 -0.693520
v -0.108386 -0.831470 -0.544895
v -0.074658 -0.923880 -0.375330
v -0.038060 -0.980785 -0.191342
v 0.000000 0.980785 -0.195090
v 0.000000 0.923880 -0.382683
v 0.000000 0.707107 -0.707107
v 0.000000 0.382683 -0.923879
v 0.000000 -0.382683 -0.923879
v 0.000000 -0.707107 -0.707107
v 0.000000 -0.831470 -0.555570
v 0.000000 -0.923880 -0.382683
v 0.000000 -0.980785 -0.195090
vn 0.0096 0.9951 -0.0980
vn 0.0097 -0.9951 -0.0980
vn 0.0975 -0.0976 -0.9904
vn 0.0286 0.9566 -0.2902
vn 0.0938 -0.2890 -0.9527
vn 0.0464 0.8810 -0.4709
vn 0.0865 -0.4696 -0.8786
vn 0.0624 0.7715 -0.6332
vn 0.0759 -0.6326 -0.7708
vn 0.0759 0.6326 -0.7708
vn 0.0624 -0.7715 -0.6332
vn 0.0865 0.4696 -0.8786
vn 0.0464 -0.8810 -0.4709
vn 0.0938 0.2890 -0.9527
vn 0.0286 -0.9566 -0.2902
vn 0.0976 0.0976 -0.9904
vn 0.0846 -0.9566 -0.2790
vn 0.2889 0.0975 -0.9524
vn 0.0286 0.9951 -0.0942
vn 0.0286 -0.9951 -0.0942
vn 0.2889 -0.0975 -0.9524
vn 0.0846 0.9566 -0.2790
vn 0.2779 -0.2890 -0.9161
vn 0.1374 0.8810 -0.4528
vn 0.2563 -0.4696 -0.8449
vn 0.1847 0.7715 -0.6088
vn 0.2248 -0.6326 -0.7412
vn 0.2248 0.6326 -0.7412
vn 0.1847 -0.7715 -0.6088
vn 0.2563 0.4696 -0.8448
vn 0.1374 -0.8810 -0.4528
vn 0.2779 0.2890 -0.9161
vn 0.2999 0.7715 -0.5611
vn 0.3651 -0.6326 -0.6831
vn 0.3651 0.6326 -0.6831
vn 0.2999 -0.7715 -0.5611
vn 0.4162 0.4696 -0.7786
vn 0.2230 -0.8810 -0.4173
vn 0.4513 0.2890 -0.8443
vn 0.1374 -0.9566 -0.2571
vn 0.4691 0.0975 -0.8777
vn 0.0464 0.9951 -0.0869
vn 0.0464 -0.9951 -0.0869
vn 0.4691 -0.0975 -0.8777
vn 0.1374 0.9566 -0.2571
vn 0.4513 -0.2890 -0.8443
vn 0.2230 0.8810 -0.4173
vn 0.4162 -0.4696 -0.7786
vn 0.6314 0.0976 -0.7693
vn 0.0625 0.9951 -0.0761
vn 0.0625 -0.9951 -0.0761
vn 0.6314 -0.0975 -0.7693
vn 0.1850 0.9566 -0.2254
vn 0.6073 -0.2890 -0.7400
vn 0.3002 0.8810 -0.3658
vn 0.5601 -0.4696 -0.6825
vn 0.4036 0.7715 -0.4918
vn 0.4913 -0.6326 -0.5987
vn 0.4913 0.6326 -0.5987
vn 0.4036 -0.7715 -0.4918
vn 0.5601 0.4696 -0.6825
vn 0.3002 -0.8810 -0.3658
vn 0.6073 0.2890 -0.7400
vn 0.1850 -0.9566 -0.2254
vn 0.5987 -0.6326 -0.4913
vn 0.5987 0.6326 -0.4913
vn 0.4918 -0.7715 -0.4036
vn 0.6825 0.4696 -0.5601
vn 0.3658 -0.8810 -0.3002
vn 0.7400 0.2890 -0.6073
vn 0.2254 -0.9566 -0.1850
vn 0.7693 0.0976 -0.6314
vn 0.0761 0.9951 -0.0625
vn 0.0761 -0.9951 -0.0625
vn 0.7693 -0.0976 -0.6314
vn 0.2254 0.9566 -0.1850
vn 0.7400 -0.2890 -0.6073
vn 0.3658 0.8810 -0.3002
vn 0.6825 -0.4696 -0.5601
vn 0.4918 0.7715 -0.4036
vn 0.0869 0.9951 -0.0464
vn 0.0869 -0.9951 -0.0464
vn 0.8777 -0.0976 -0.4691
vn 0.2571 0.9566 -0.1374
vn 0.8443 -0.2890 -0.4513
vn 0.4173 0.8810 -0.2230
vn 0.7786 -0.4696 -0.4162
vn 0.5611 0.7715 -0.2999
vn 0.6831 -0.6326 -0.3651
vn 0.6831 0.6326 -0.3651
vn 0.5611 -0.7715 -0.2999
vn 0.7786 0.4696 -0.4162
vn 0.4173 -0.8810 -0.2230
vn 0.8443 0.2890 -0.4513
vn 0.2571 -0.9566 -0.1374
vn 0.8777 0.0975 -0.4691
vn 0.7412 0.6326 -0.2248
vn 0.6088 -0.7715 -0.1847
vn 0.8449 0.4696 -0.2563
vn 0.4528 -0.8810 -0.1374
vn 0.9161 0.2890 -0.2779
vn 0.2790 -0.9566 -0.0846
vn 0.9524 0.0975 -0.2889
vn 0.0942 0.9951 -0.0286
vn 0.0942 -0.9951 -0.0286
vn 0.9524 -0.0975 -0.2889
vn 0.2790 0.9566 -0.0846
vn 0.9161 -0.2890 -0.2779
vn 0.4528 0.8810 -0.1374
vn 0.8448 -0.4696 -0.2563
vn 0.6088 0.7715 -0.1847
vn 0.7412 -0.6326 -0.2248
vn 0.9904 -0.0975 -0.0975
vn 0.2902 0.9566 -0.0286
vn 0.9527 -0.2890 -0.0938
vn 0.4709 0.8810 -0.0464
vn 0.8786 -0.4696 -0.0865
vn 0.6332 0.7715 -0.0624
vn 0.7708 -0.6326 -0.0759
vn 0.7708 0.6326 -0.0759
vn 0.6332 -0.7715 -0.0624
vn 0.8786 0.4696 -0.0865
vn 0.4709 -0.8810 -0.0464
vn 0.9527 0.2890 -0.0938
vn 0.2902 -0.9566 -0.0286
vn 0.9904 0.0976 -0.0976
vn 0.0980 0.9951 -0.0097
vn 0.0980 -0.9951 -0.0097
vn 0.6332 -0.7715 0.0624
vn 0.8786 0.4696 0.0865
vn 0.4709 -0.8810 0.0464
vn 0.9527 0.2890 0.0938
vn 0.2902 -0.9566 0.0286
vn 0.9904 0.0975 0.0976
vn 0.0980 0.9951 0.0097
vn 0.0980 -0.9951 0.0097
vn 0.9904 -0.0976 0.0975
vn 0.2902 0.9566 0.0286
vn 0.9527 -0.2890 0.0938
vn 0.4709 0.8810 0.0464
vn 0.8786 -0.4696 0.0865
vn 0.6332 0.7715 0.0624
vn 0.7708 -0.6326 0.0759
vn 0.7708 0.6326 0.0759
vn 0.9161 -0.2890 0.2779
vn 0.4528 0.8810 0.1374
vn 0.8449 -0.4696 0.2563
vn 0.6088 0.7715 0.1847
vn 0.7412 -0.6326 0.2248
vn 0.7412 0.6326 0.2248
vn 0.6088 -0.7715 0.1847
vn 0.8448 0.4696 0.2563
vn 0.4528 -0.8810 0.1374
vn 0.9161 0.2890 0.2779
vn 0.2790 -0.9566 0.0846
vn 0.9524 0.0975 0.2889
vn 0.0942 0.9951 0.0286
vn 0.0942 -0.9951 0.0286
vn 0.9524 -0.0975 0.2889
vn 0.2790 0.9566 0.0846
vn 0.4173 -0.8810 0.2230
vn 0.8443 0.2890 0.4513
vn 0.2571 -0.9566 0.1374
vn 0.8777 0.0975 0.4691
vn 0.0869 0.9951 0.0464
vn 0.0869 -0.9951 0.0464
vn 0.8777 -0.0975 0.4691
vn 0.2571 0.9566 0.1374
vn 0.8443 -0.2890 0.4513
vn 0.4173 0.8810 0.2231
vn 0.7786 -0.4696 0.4162
vn 0.5611 0.7715 0.2999
vn 0.6831 -0.6326 0.3651
vn 0.6831 0.6326 0.3651
vn 0.5611 -0.7715 0.2999
vn 0.7786 0.4696 0.4162
vn 0.3658 0.8810 0.3002
vn 0.6825 -0.4696 0.5601
vn 0.4918 0.7715 0.4036
vn 0.5987 -0.6326 0.4913
vn 0.5987 0.6326 0.4913
vn 0.4918 -0.7715 0.4036
vn 0.6825 0.4696 0.5601
vn 0.3658 -0.8810 0.3002
vn 0.7400 0.2890 0.6073
vn 0.2254 -0.9566 0.1850
vn 0.7693 0.0975 0.6314
vn 0.0761 0.9951 0.0625
vn 0.0761 -0.9951 0.0625
vn 0.7693 -0.0975 0.6314
vn 0.2254 0.9566 0.1850
vn 0.7400 -0.2890 0.6073
vn 0.6073 0.2890 0.7400
vn 0.1850 -0.9566 0.2254
vn 0.6314 0.0975 0.7693
vn 0.0625 0.9951 0.0761
vn 0.0625 -0.9951 0.0761
vn 0.6314 -0.0975 0.7693
vn 0.1850 0.9566 0.2254
vn 0.6073 -0.2890 0.7400
vn 0.3002 0.8810 0.3658
vn 0.5601 -0.4696 0.6825
vn 0.4036 0.7715 0.4918
vn 0.4913 -0.6326 0.5987
vn 0.4913 0.6326 0.5987
vn 0.4036 -0.7715 0.4918
vn 0.5601 0.4696 0.6825
vn 0.3002 -0.8810 0.3658
vn 0.4162 -0.4696 0.7786
vn 0.2999 0.7715 0.5611
vn 0.3651 -0.6326 0.6831
vn 0.3651 0.6326 0.6831
vn 0.2999 -0.7715 0.5611
vn 0.4162 0.4696 0.7786
vn 0.2230 -0.8810 0.4173
vn 0.4513 0.2890 0.8443
vn 0.1374 -0.9566 0.2571
vn 0.4691 0.0975 0.8777
vn 0.0464 0.9951 0.0869
vn 0.0464 -0.9951 0.0869
vn 0.4691 -0.0975 0.8777
vn 0.1374 0.9566 0.2571
vn 0.4513 -0.2890 0.8443
vn 0.2230 0.8810 0.4173
vn 0.0846 -0.9566 0.2790
vn 0.2889 0.0976 0.9524
vn 0.0286 0.9951 0.0942
vn 0.0286 -0.9951 0.0942
vn 0.2889 -0.0975 0.9524
vn 0.0846 0.9566 0.2790
vn 0.2779 -0.2890 0.9161
vn 0.1374 0.8810 0.4528
vn 0.2563 -0.4696 0.8448
vn 0.1847 0.7715 0.6088
vn 0.2248 -0.6326 0.7412
vn 0.2248 0.6326 0.7412
vn 0.1847 -0.7715 0.6088
vn 0.2563 0.4696 0.8448
vn 0.1374 -0.8810 0.4528
vn 0.2779 0.2890 0.9161
vn 0.0624 0.7715 0.6332
vn 0.0759 -0.6326 0.7708
vn 0.0759 0.6326 0.7708
vn 0.0624 -0.7715 0.6332
vn 0.0865 0.4696 0.8786
vn 0.0464 -0.8810 0.4709
vn 0.0938 0.2890 0.9527
vn 0.0286 -0.9566 0.2902
vn 0.0975 0.0975 0.9904
vn 0.0096 0.9951 0.0980
vn 0.0097 -0.9951 0.0980
vn 0.0976 -0.0976 0.9904
vn 0.0286 0.9566 0.2902
vn 0.0938 -0.2890 0.9527
vn 0.0464 0.8810 0.4709
vn 0.0865 -0.4696 0.8786
vn -0.0975 0.0976 0.9904
vn -0.0096 0.9951 0.0980
vn -0.0097 -0.9951 0.0980
vn -0.0976 -0.0975 0.9904
vn -0.0286 0.9566 0.2902
vn -0.0938 -0.2890 0.9527
vn -0.0464 0.8810 0.4709
vn -0.0865 -0.4696 0.8786
vn -0.0624 0.7715 0.6332
vn -0.0759 -0.6326 0.7708
vn -0.0759 0.6326 0.7708
vn -0.0624 -0.7715 0.6332
vn -0.0865 0.4696 0.8786
vn -0.0464 -0.8810 0.4709
vn -0.0938 0.2890 0.9527
vn -0.0286 -0.9566 0.2902
vn -0.2248 -0.6326 0.7412
vn -0.2248 0.6326 0.7412
vn -0.1847 -0.7715 0.6088
vn -0.2563 0.4696 0.8448
vn -0.1374 -0.8810 0.4528
vn -0.2779 0.2890 0.9161
vn -0.0846 -0.9566 0.2790
vn -0.2889 0.0976 0.9524
vn -0.0286 0.9951 0.0942
vn -0.0286 -0.9951 0.0942
vn -0.2889 -0.0976 0.9524
vn -0.0846 0.9566 0.2790
vn -0.2779 -0.2890 0.9161
vn -0.1374 0.8810 0.4528
vn -0.2563 -0.4696 0.8448
vn -0.1847 0.7715 0.6088
vn -0.0464 -0.9951 0.0869
vn -0.4691 -0.0975 0.8777
vn -0.1374 0.9566 0.2571
vn -0.4513 -0.2890 0.8443
vn -0.2231 0.8810 0.4173
vn -0.4162 -0.4696 0.7786
vn -0.2999 0.7715 0.5611
vn -0.3651 -0.6326 0.6831
vn -0.3651 0.6326 0.6831
vn -0.2999 -0.7715 0.5611
vn -0.4162 0.4696 0.7786
vn -0.2230 -0.8810 0.4173
vn -0.4513 0.2890 0.8443
vn -0.1374 -0.9566 0.2571
vn -0.4691 0.0975 0.8777
vn -0.0464 0.9951 0.0869
vn -0.4036 -0.7715 0.4918
vn -0.5601 0.4696 0.6825
vn -0.3002 -0.8810 0.3658
vn -0.6073 0.2890 0.7400
vn -0.1850 -0.9566 0.2254
vn -0.6314 0.0975 0.7693
vn -0.0625 0.9951 0.0761
vn -0.0625 -0.9951 0.0761
vn -0.6314 -0.0975 0.7693
vn -0.1850 0.9566 0.2254
vn -0.6073 -0.2890 0.7400
vn -0.3002 0.8810 0.3658
vn -0.5601 -0.4696 0.6825
vn -0.4036 0.7715 0.4918
vn -0.4913 -0.6326 0.5987
vn -0.4913 0.6326 0.5987
vn -0.2254 0.9566 0.1850
vn -0.7400 -0.2890 0.6073
vn -0.3658 0.8810 0.3002
vn -0.6825 -0.4696 0.5601
vn -0.4918 0.7715 0.4036
vn -0.5987 -0.6326 0.4913
vn -0.5987 0.6326 0.4913
vn -0.4918 -0.7715 0.4036
vn -0.6825 0.4696 0.5601
vn -0.3658 -0.8810 0.3002
vn -0.7400 0.2890 0.6073
vn -0.2254 -0.9566 0.1850
vn -0.7693 0.0975 0.6314
vn -0.0761 0.9951 0.0625
vn -0.0761 -0.9951 0.0625
vn -0.7693 -0.0975 0.6314
vn -0.7786 0.4696 0.4162
vn -0.4173 -0.8810 0.2230
vn -0.8443 0.2890 0.4513
vn -0.2571 -0.9566 0.1374
vn -0.8777 0.0975 0.4692
vn -0.0869 0.9951 0.0464
vn -0.0869 -0.9951 0.0464
vn -0.8777 -0.0975 0.4691
vn -0.2571 0.9566 0.1374
vn -0.8443 -0.2890 0.4513
vn -0.4173 0.8810 0.2230
vn -0.7786 -0.4696 0.4162
vn -0.5611 0.7715 0.2999
vn -0.6831 -0.6326 0.3651
vn -0.6831 0.6326 0.3651
vn -0.5611 -0.7715 0.2999
vn -0.9161 -0.2890 0.2779
vn -0.4528 0.8810 0.1374
vn -0.8448 -0.4696 0.2563
vn -0.6088 0.7715 0.1847
vn -0.7412 -0.6326 0.2248
vn -0.7412 0.6326 0.2248
vn -0.6088 -0.7715 0.1847
vn -0.8448 0.4696 0.2563
vn -0.4528 -0.8810 0.1374
vn -0.9161 0.2890 0.2779
vn -0.2790 -0.9566 0.0846
vn -0.9524 0.0975 0.2889
vn -0.0942 0.9951 0.0286
vn -0.0942 -0.9951 0.0286
vn -0.9524 -0.0975 0.2889
vn -0.2790 0.9566 0.0846
vn -0.4709 -0.8810 0.0464
vn -0.9527 0.2890 0.0938
vn -0.2902 -0.9566 0.0286
vn -0.9904 0.0975 0.0976
vn -0.0980 0.9951 0.0097
vn -0.0980 -0.9951 0.0097
vn -0.9904 -0.0975 0.0976
vn -0.2902 0.9566 0.0286
vn -0.9527 -0.2890 0.0938
vn -0.4709 0.8810 0.0464
vn -0.8786 -0.4696 0.0865
vn -0.6332 0.7715 0.0624
vn -0.7708 -0.6326 0.0759
vn -0.7708 0.6326 0.0759
vn -0.6332 -0.7715 0.0624
vn -0.8786 0.4696 0.0865
vn -0.4709 0.8810 -0.0464
vn -0.8786 -0.4696 -0.0865
vn -0.6332 0.7715 -0.0624
vn -0.7708 -0.6326 -0.0759
vn -0.7708 0.6326 -0.0759
vn -0.6332 -0.7715 -0.0624
vn -0.8786 0.4696 -0.0865
vn -0.4709 -0.8810 -0.0464
vn -0.9527 0.2890 -0.0938
vn -0.2902 -0.9566 -0.0286
vn -0.9904 0.0975 -0.0976
vn -0.0980 0.9951 -0.0097
vn -0.0980 -0.9951 -0.0097
vn -0.9904 -0.0975 -0.0976
vn -0.2902 0.9566 -0.0286
vn -0.9527 -0.2890 -0.0938
vn -0.9161 0.2890 -0.2779
vn -0.2790 -0.9566 -0.0846
vn -0.9524 0.0975 -0.2889
vn -0.0942 0.9951 -0.0286
vn -0.0942 -0.9951 -0.0286
vn -0.9524 -0.0975 -0.2889
vn -0.2790 0.9566 -0.0846
vn -0.9161 -0.2890 -0.2779
vn -0.4528 0.8810 -0.1374
vn -0.8448 -0.4696 -0.2563
vn -0.6088 0.7715 -0.1847
vn -0.7412 -0.6326 -0.2248
vn -0.7412 0.6326 -0.2248
vn -0.6088 -0.7715 -0.1847
vn -0.8448 0.4696 -0.2563
vn -0.4528 -0.8810 -0.1374
vn -0.7786 -0.4696 -0.4162
vn -0.5611 0.7715 -0.2999
vn -0.6831 -0.6326 -0.3651
vn -0.6831 0.6326 -0.3651
vn -0.5611 -0.7715 -0.2999
vn -0.7786 0.4696 -0.4162
vn -0.4173 -0.8810 -0.2231
vn -0.8443 0.2890 -0.4513
vn -0.2571 -0.9566 -0.1374
vn -0.8777 0.0975 -0.4691
vn -0.0869 0.9951 -0.0464
vn -0.0869 -0.9951 -0.0464
vn -0.8777 -0.0975 -0.4691
vn -0.2571 0.9566 -0.1374
vn -0.8443 -0.2890 -0.4513
vn -0.4173 0.8810 -0.2230
vn -0.2254 -0.9565 -0.1850
vn -0.7693 0.0975 -0.6314
vn -0.0761 0.9951 -0.0625
vn -0.0761 -0.9951 -0.0625
vn -0.7693 -0.0975 -0.6314
vn -0.2254 0.9565 -0.1850
vn -0.7400 -0.2890 -0.6073
vn -0.3658 0.8810 -0.3002
vn -0.6825 -0.4696 -0.5601
vn -0.4918 0.7715 -0.4036
vn -0.5987 -0.6326 -0.4913
vn -0.5987 0.6326 -0.4913
vn -0.4918 -0.7715 -0.4036
vn -0.6825 0.4696 -0.5601
vn -0.3658 -0.8810 -0.3002
vn -0.7400 0.2890 -0.6073
vn -0.4913 -0.6326 -0.5987
vn -0.4913 0.6326 -0.5987
vn -0.4036 -0.7715 -0.4918
vn -0.5601 0.4696 -0.6825
vn -0.3002 -0.8810 -0.3658
vn -0.6073 0.2890 -0.7400
vn -0.1850 -0.9566 -0.2254
vn -0.6314 0.0975 -0.7693
vn -0.0625 0.9951 -0.0761
vn -0.0625 -0.9951 -0.0761
vn -0.6314 -0.0975 -0.7693
vn -0.1850 0.9566 -0.2254
vn -0.6073 -0.2890 -0.7400
vn -0.3002 0.8810 -0.3658
vn -0.5601 -0.4696 -0.6825
vn -0.4036 0.7715 -0.4918
vn -0.0464 0.9951 -0.0869
vn -0.0464 -0.9951 -0.0869
vn -0.4691 -0.0975 -0.8777
vn -0.1374 0.9566 -0.2571
vn -0.4513 -0.2890 -0.8443
vn -0.2230 0.8810 -0.4173
vn -0.4162 -0.4696 -0.7786
vn -0.2999 0.7715 -0.5611
vn -0.3651 -0.6326 -0.6831
vn -0.3651 0.6326 -0.6831
vn -0.2999 -0.7715 -0.5611
vn -0.4162 0.4696 -0.7786
vn -0.2230 -0.8810 -0.4173
vn -0.4513 0.2890 -0.8443
vn -0.1374 -0.9566 -0.2571
vn -0.4692 0.0975 -0.8777
vn -0.2248 0.6326 -0.7412
vn -0.1847 -0.7715 -0.6088
vn -0.2563 0.4696 -0.8448
vn -0.1374 -0.8810 -0.4528
vn -0.2779 0.2890 -0.9161
vn -0.0846 -0.9566 -0.2790
vn -0.2889 0.0975 -0.9524
vn -0.0286 0.9951 -0.0942
vn -0.0286 -0.9951 -0.0942
vn -0.2889 -0.0975 -0.9524
vn -0.0846 0.9566 -0.2790
vn -0.2779 -0.2890 -0.9161
vn -0.1374 0.8810 -0.4528
vn -0.2563 -0.4696 -0.8448
vn -0.1847 0.7715 -0.6088
vn -0.2248 -0.6326 -0.7412
vn -0.0976 -0.0975 -0.9904
vn -0.0286 0.9566 -0.2902
vn -0.0938 -0.2890 -0.9527
vn -0.0464 0.8810 -0.4709
vn -0.0865 -0.4696 -0.8786
vn -0.0624 0.7715 -0.6332
vn -0.0759 -0.6326 -0.7708
vn -0.0759 0.6326 -0.7708
vn -0.0624 -0.7715 -0.6332
vn -0.0865 0.4696 -0.8786
vn -0.0464 -0.8810 -0.4709
vn -0.0938 0.2890 -0.9527
vn -0.0286 -0.9566 -0.2902
vn -0.0976 0.0976 -0.9904
vn -0.0096 0.9951 -0.0980
vn -0.0097 -0.9951 -0.0980
vn 0.0976 -0.0975 -0.9904
vn 0.0975 0.0975 -0.9904
vn 0.2563 -0.4696 -0.8448
vn 0.2563 0.4696 -0.8449
vn 0.2231 -0.8810 -0.4173
vn 0.6314 0.0975 -0.7693
vn 0.6314 -0.0976 -0.7693
vn 0.8777 -0.0975 -0.4691
vn 0.8777 0.0976 -0.4691
vn 0.8448 0.4696 -0.2563
vn 0.8449 -0.4696 -0.2563
vn 0.9904 -0.0976 -0.0976
vn 0.9904 0.0975 -0.0975
vn 0.9904 0.0976 0.0975
vn 0.9904 -0.0975 0.0976
vn 0.2902 0.9565 0.0286
vn 0.8448 -0.4696 0.2563
vn 0.8449 0.4696 0.2563
vn 0.4173 -0.8810 0.2231
vn 0.4173 0.8810 0.2230
vn 0.2889 0.0975 0.9524
vn 0.2889 -0.0976 0.9524
vn 0.0976 0.0976 0.9904
vn 0.0975 -0.0975 0.9904
vn -0.0976 0.0975 0.9904
vn -0.0975 -0.0976 0.9904
vn -0.2230 0.8810 0.4173
vn -0.2231 -0.8810 0.4173
vn -0.8777 0.0975 0.4691
vn -0.8777 -0.0975 0.4692
vn -0.2902 0.9565 -0.0286
vn -0.4173 -0.8810 -0.2230
vn -0.4173 0.8810 -0.2231
vn -0.2254 -0.9566 -0.1850
vn -0.2254 0.9566 -0.1850
vn -0.4692 -0.0975 -0.8777
vn -0.4691 0.0975 -0.8777
vn -0.0976 -0.0976 -0.9904
vn -0.0976 0.0975 -0.9904
vt 0.527108 0.409678
vt 0.581724 0.442108
vt 0.521850 0.420899
vt 0.037342 0.449286
vt 0.087171 0.416556
vt 0.092578 0.426853
vt 0.302853 0.339316
vt 0.280427 0.364139
vt 0.278263 0.340665
vt 0.477585 0.381507
vt 0.470725 0.396813
vt 0.256916 0.366819
vt 0.253193 0.343986
vt 0.440132 0.364381
vt 0.433607 0.382853
vt 0.232228 0.371277
vt 0.227145 0.349577
vt 0.408291 0.353312
vt 0.402710 0.373990
vt 0.205607 0.378022
vt 0.199186 0.357928
vt 0.379536 0.346118
vt 0.375333 0.368315
vt 0.175634 0.387834
vt 0.168649 0.370052
vt 0.352962 0.341680
vt 0.350193 0.364917
vt 0.140046 0.402700
vt 0.132921 0.388135
vt 0.327609 0.339463
vt 0.326513 0.363253
vt 0.303456 0.362996
vt 0.097089 0.437538
vt 0.303974 0.385308
vt 0.575579 0.453519
vt 0.516539 0.431952
vt 0.040324 0.455211
vt 0.282180 0.386225
vt 0.464776 0.411955
vt 0.259921 0.388399
vt 0.428168 0.400774
vt 0.236270 0.391923
vt 0.398228 0.393792
vt 0.210520 0.397273
vt 0.372086 0.389346
vt 0.181458 0.405145
vt 0.348249 0.386655
vt 0.146331 0.417245
vt 0.325718 0.385495
vt 0.394716 0.412882
vt 0.239395 0.411710
vt 0.214682 0.415986
vt 0.369586 0.409471
vt 0.186374 0.422260
vt 0.346685 0.407469
vt 0.151034 0.431981
vt 0.325267 0.406496
vt 0.100750 0.448568
vt 0.304379 0.406385
vt 0.571552 0.460451
vt 0.512053 0.443176
vt 0.042652 0.461729
vt 0.283554 0.407278
vt 0.459975 0.427009
vt 0.262173 0.408927
vt 0.423861 0.418266
vt 0.324852 0.426735
vt 0.304746 0.426809
vt 0.567988 0.467695
vt 0.508356 0.454503
vt 0.044623 0.468761
vt 0.103603 0.459850
vt 0.284669 0.427429
vt 0.456212 0.441952
vt 0.263991 0.428737
vt 0.420550 0.435391
vt 0.242000 0.430939
vt 0.391969 0.431418
vt 0.217857 0.434262
vt 0.367770 0.428821
vt 0.189947 0.439178
vt 0.345588 0.427360
vt 0.154692 0.446707
vt 0.220270 0.452159
vt 0.390170 0.449482
vt 0.366369 0.447678
vt 0.192501 0.455804
vt 0.344817 0.446687
vt 0.157917 0.461356
vt 0.324633 0.446343
vt 0.105701 0.471329
vt 0.305084 0.446506
vt 0.564919 0.475158
vt 0.505422 0.465878
vt 0.046094 0.476296
vt 0.285552 0.446996
vt 0.453405 0.456782
vt 0.265416 0.448000
vt 0.418140 0.452207
vt 0.243968 0.449664
vt 0.562370 0.482744
vt 0.503231 0.477256
vt 0.049032 0.489390
vt 0.108130 0.482676
vt 0.286247 0.466124
vt 0.451496 0.471513
vt 0.266481 0.466862
vt 0.416528 0.468791
vt 0.245397 0.468057
vt 0.388973 0.467206
vt 0.222062 0.469811
vt 0.365508 0.466124
vt 0.194380 0.472253
vt 0.344366 0.465589
vt 0.159693 0.476054
vt 0.324573 0.465491
vt 0.305406 0.465728
vt 0.388364 0.484700
vt 0.365121 0.484303
vt 0.223093 0.487290
vt 0.195645 0.488563
vt 0.344221 0.484199
vt 0.161305 0.490707
vt 0.324662 0.484338
vt 0.108775 0.494204
vt 0.305720 0.484647
vt 0.561983 0.485097
vt 0.502827 0.488812
vt 0.049640 0.491732
vt 0.286778 0.484964
vt 0.450324 0.486218
vt 0.267222 0.485462
vt 0.415654 0.485210
vt 0.246327 0.486218
vt 0.287159 0.503667
vt 0.503136 0.500494
vt 0.449893 0.500944
vt 0.267663 0.503938
vt 0.415494 0.501529
vt 0.246814 0.504278
vt 0.388333 0.502062
vt 0.223595 0.504685
vt 0.365181 0.502337
vt 0.196280 0.504867
vt 0.344374 0.502658
vt 0.161655 0.505461
vt 0.324900 0.503031
vt 0.108702 0.505870
vt 0.306034 0.503419
vt 0.562575 0.493077
vt 0.049229 0.499667
vt 0.223545 0.522119
vt 0.196184 0.521263
vt 0.344826 0.521099
vt 0.161301 0.520243
vt 0.325291 0.521717
vt 0.107918 0.517616
vt 0.306355 0.522191
vt 0.562823 0.506849
vt 0.503038 0.512204
vt 0.048386 0.507741
vt 0.287403 0.522376
vt 0.450239 0.515687
vt 0.267820 0.522428
vt 0.416074 0.517775
vt 0.246874 0.522364
vt 0.388878 0.519387
vt 0.365683 0.520347
vt 0.267695 0.541067
vt 0.451811 0.530339
vt 0.417271 0.534052
vt 0.246506 0.540592
vt 0.390009 0.536772
vt 0.222918 0.539680
vt 0.366640 0.538454
vt 0.195398 0.537787
vt 0.345589 0.539660
vt 0.160098 0.535051
vt 0.325846 0.540539
vt 0.107568 0.529378
vt 0.306692 0.541111
vt 0.562348 0.514777
vt 0.503667 0.523768
vt 0.047741 0.521714
vt 0.287513 0.541237
vt 0.158170 0.549898
vt 0.346688 0.558483
vt 0.326581 0.559650
vt 0.105409 0.540944
vt 0.307051 0.560333
vt 0.562540 0.522614
vt 0.505012 0.535177
vt 0.047486 0.524146
vt 0.287488 0.560400
vt 0.454130 0.544904
vt 0.267279 0.559995
vt 0.419221 0.550475
vt 0.245695 0.559077
vt 0.391769 0.554339
vt 0.221665 0.557469
vt 0.368085 0.556785
vt 0.193953 0.554510
vt 0.422127 0.567042
vt 0.266548 0.579369
vt 0.244409 0.577964
vt 0.394227 0.572177
vt 0.219937 0.575517
vt 0.370067 0.575468
vt 0.191175 0.571428
vt 0.348161 0.577714
vt 0.155752 0.564892
vt 0.327521 0.579209
vt 0.103604 0.552632
vt 0.307443 0.580024
vt 0.563469 0.530222
vt 0.507086 0.546433
vt 0.044882 0.537576
vt 0.287321 0.580031
vt 0.456849 0.559506
vt 0.350063 0.597517
vt 0.328699 0.599396
vt 0.099988 0.563907
vt 0.307876 0.600371
vt 0.564365 0.532334
vt 0.510914 0.557286
vt 0.044280 0.539827
vt 0.286997 0.600315
vt 0.460913 0.574021
vt 0.265461 0.599364
vt 0.425739 0.583799
vt 0.242560 0.597414
vt 0.397444 0.590358
vt 0.217297 0.594094
vt 0.372660 0.594633
vt 0.188083 0.588538
vt 0.152010 0.579928
vt 0.263965 0.620171
vt 0.240082 0.617583
vt 0.401563 0.609033
vt 0.213871 0.613230
vt 0.375964 0.614442
vt 0.183941 0.606061
vt 0.352472 0.618079
vt 0.147279 0.595080
vt 0.330161 0.620418
vt 0.095540 0.575066
vt 0.308365 0.621588
vt 0.568902 0.544127
vt 0.514572 0.568294
vt 0.040837 0.546793
vt 0.286495 0.621461
vt 0.465655 0.588643
vt 0.430520 0.600854
vt 0.090218 0.586052
vt 0.331971 0.642518
vt 0.308923 0.643931
vt 0.571308 0.550667
vt 0.519074 0.578975
vt 0.036837 0.553409
vt 0.285782 0.643720
vt 0.471542 0.603253
vt 0.261983 0.642019
vt 0.436441 0.618173
vt 0.236860 0.638662
vt 0.406723 0.628273
vt 0.209485 0.633068
vt 0.380119 0.635059
vt 0.178639 0.624047
vt 0.355491 0.639613
vt 0.141430 0.610342
vt 0.413126 0.648195
vt 0.203936 0.653760
vt 0.385313 0.656684
vt 0.171997 0.642536
vt 0.359265 0.662380
vt 0.134204 0.625672
vt 0.334214 0.665997
vt 0.084865 0.597175
vt 0.309572 0.667715
vt 0.574030 0.556576
vt 0.524469 0.589217
vt 0.030788 0.564305
vt 0.284811 0.667400
vt 0.479139 0.617608
vt 0.259403 0.665186
vt 0.443554 0.635745
vt 0.232729 0.660875
vt 0.337006 0.691227
vt 0.310334 0.693337
vt 0.577280 0.561760
vt 0.530805 0.598949
vt 0.029422 0.566001
vt 0.077757 0.607347
vt 0.283511 0.692887
vt 0.487794 0.631898
vt 0.256069 0.690014
vt 0.452491 0.653754
vt 0.227462 0.684491
vt 0.421098 0.668991
vt 0.196955 0.675471
vt 0.391810 0.679570
vt 0.163776 0.661569
vt 0.363994 0.686704
vt 0.125639 0.640960
vt 0.188177 0.698380
vt 0.430990 0.690745
vt 0.399958 0.703986
vt 0.153631 0.681169
vt 0.369949 0.712978
vt 0.115355 0.656141
vt 0.340510 0.718685
vt 0.069611 0.617027
vt 0.311243 0.721309
vt 0.578665 0.563045
vt 0.538687 0.607558
vt 0.024300 0.570630
vt 0.281781 0.720675
vt 0.498107 0.645863
vt 0.251756 0.716935
vt 0.463348 0.672067
vt 0.220741 0.709836
vt 0.016547 0.577552
vt 0.060936 0.626579
vt 0.279472 0.751419
vt 0.547583 0.615458
vt 0.510412 0.659353
vt 0.246144 0.746504
vt 0.476586 0.690629
vt 0.212118 0.737307
vt 0.443318 0.713593
vt 0.177106 0.722673
vt 0.410245 0.730265
vt 0.141118 0.701310
vt 0.377518 0.741708
vt 0.102988 0.671050
vt 0.344955 0.748998
vt 0.312343 0.752306
vt 0.583436 0.566124
vt 0.163062 0.748525
vt 0.125688 0.721875
vt 0.387258 0.773549
vt 0.088397 0.685380
vt 0.350678 0.783007
vt 0.051102 0.635127
vt 0.313692 0.787247
vt 0.590451 0.570120
vt 0.557202 0.622918
vt 0.012413 0.580682
vt 0.276361 0.785997
vt 0.525026 0.672080
vt 0.238758 0.779451
vt 0.492765 0.709272
vt 0.200949 0.767390
vt 0.458795 0.737646
vt 0.423351 0.758783
vt 0.542066 0.683564
vt 0.228890 0.816760
vt 0.512569 0.727624
vt 0.186294 0.800684
vt 0.478442 0.762999
vt 0.145089 0.776069
vt 0.440205 0.789904
vt 0.106630 0.742603
vt 0.400005 0.809386
vt 0.071350 0.698682
vt 0.358177 0.821885
vt 0.039866 0.641929
vt 0.315375 0.827408
vt 0.593941 0.571582
vt 0.567869 0.629075
vt 0.010786 0.581211
vt 0.272109 0.825628
vt 0.417139 0.850632
vt 0.051313 0.710397
vt 0.368182 0.867329
vt 0.027558 0.647305
vt 0.317499 0.874581
vt 0.596939 0.571960
vt 0.579511 0.633632
vt 0.006286 0.581827
vt 0.266198 0.872044
vt 0.561752 0.693151
vt 0.215436 0.859804
vt 0.536741 0.745068
vt 0.166750 0.837913
vt 0.503121 0.788961
vt 0.121820 0.805342
vt 0.462924 0.824916
vt 0.083025 0.762992
vt 0.196585 0.910654
vt 0.566450 0.760639
vt 0.140191 0.879851
vt 0.535621 0.815881
vt 0.091247 0.836181
vt 0.492658 0.863082
vt 0.053796 0.782081
vt 0.440455 0.898764
vt 0.028015 0.719699
vt 0.381723 0.921660
vt 0.014308 0.650900
vt 0.320231 0.931173
vt 0.599146 0.571432
vt 0.591962 0.636261
vt 0.002593 0.581508
vt 0.257890 0.927783
vt 0.584197 0.699927
vt 0.001317 0.725452
vt 0.474050 0.957431
vt 0.400144 0.988627
vt 0.000358 0.652322
vt 0.323775 0.999922
vt 0.600155 0.570281
vt 0.604928 0.636596
vt 0.000078 0.580451
vt 0.246345 0.996727
vt 0.609452 0.702928
vt 0.168848 0.973261
vt 0.601801 0.772010
vt 0.103531 0.926642
vt 0.578395 0.842460
vt 0.050117 0.868180
vt 0.533138 0.904766
vt 0.017923 0.798019
vt 0.594814 0.210756
vt 0.582582 0.288605
vt 0.558175 0.226996
vt 0.080874 0.100286
vt 0.173542 0.107847
vt 0.121645 0.143188
vt 0.520692 0.172987
vt 0.560130 0.142835
vt 0.078914 0.189092
vt 0.038328 0.163018
vt 0.511256 0.082505
vt 0.473387 0.129603
vt 0.010412 0.231176
vt 0.046774 0.244040
vt 0.417893 0.098074
vt 0.445532 0.039523
vt 0.027754 0.304720
vt 0.002486 0.301620
vt 0.372654 0.010312
vt 0.357522 0.079493
vt 0.019873 0.368692
vt 0.006839 0.368317
vt 0.291067 0.000078
vt 0.294215 0.074821
vt 0.609419 0.354751
vt 0.609452 0.425017
vt 0.595777 0.356095
vt 0.011443 0.434998
vt 0.231671 0.084616
vt 0.210864 0.017374
vt 0.608732 0.283416
vt 0.141454 0.052589
vt 0.398396 0.147966
vt 0.347948 0.135334
vt 0.032392 0.371358
vt 0.296483 0.132583
vt 0.607117 0.423991
vt 0.582810 0.359589
vt 0.012536 0.433886
vt 0.245519 0.139206
vt 0.559675 0.297637
vt 0.196599 0.155464
vt 0.528748 0.245759
vt 0.151089 0.181448
vt 0.490437 0.203134
vt 0.110491 0.216128
vt 0.446452 0.170808
vt 0.076387 0.260042
vt 0.050247 0.311800
vt 0.213385 0.196552
vt 0.173029 0.215949
vt 0.467239 0.231956
vt 0.135006 0.242576
vt 0.426667 0.207445
vt 0.100020 0.277590
vt 0.384463 0.190655
vt 0.070144 0.321499
vt 0.341435 0.181693
vt 0.044073 0.375943
vt 0.298207 0.179910
vt 0.605945 0.424112
vt 0.570723 0.365308
vt 0.014842 0.433239
vt 0.255331 0.184708
vt 0.539453 0.309095
vt 0.505545 0.265531
vt 0.054746 0.382124
vt 0.336811 0.221216
vt 0.299559 0.220016
vt 0.599720 0.425184
vt 0.559649 0.372078
vt 0.017877 0.433484
vt 0.262562 0.223621
vt 0.522585 0.322244
vt 0.225897 0.232502
vt 0.486396 0.285932
vt 0.189725 0.247259
vt 0.449214 0.259231
vt 0.154279 0.268017
vt 0.411816 0.240343
vt 0.119702 0.296142
vt 0.374270 0.227764
vt 0.087116 0.333140
vt 0.169535 0.292231
vt 0.435115 0.284862
vt 0.400487 0.270145
vt 0.135769 0.314900
vt 0.366660 0.260564
vt 0.101637 0.346011
vt 0.333439 0.255680
vt 0.064347 0.389585
vt 0.300642 0.254864
vt 0.594936 0.426849
vt 0.549686 0.379972
vt 0.021486 0.434833
vt 0.268038 0.257641
vt 0.508385 0.336418
vt 0.235417 0.264445
vt 0.470849 0.306209
vt 0.202638 0.275863
vt 0.593460 0.427839
vt 0.541225 0.389382
vt 0.025309 0.437291
vt 0.072867 0.398072
vt 0.272270 0.287947
vt 0.495912 0.351077
vt 0.242777 0.293242
vt 0.458522 0.325964
vt 0.212765 0.302213
vt 0.424054 0.308932
vt 0.181697 0.315230
vt 0.391732 0.297405
vt 0.148927 0.333570
vt 0.360897 0.290005
vt 0.113982 0.359657
vt 0.330936 0.286319
vt 0.301525 0.285771
vt 0.415348 0.331641
vt 0.384847 0.322629
vt 0.191433 0.337100
vt 0.159723 0.351969
vt 0.356513 0.316787
vt 0.124269 0.373743
vt 0.329060 0.314012
vt 0.080808 0.406762
vt 0.302253 0.313674
vt 0.586171 0.434486
vt 0.533323 0.398967
vt 0.032510 0.442925
vt 0.275589 0.315389
vt 0.485932 0.366219
vt 0.248507 0.319524
vt 0.448190 0.345408
vt 0.220837 0.326722
vt 0.584857 0.436031
vt 0.034026 0.444120
s 0
usemtl マテリアル
f 474/1/1 82/2/1 7/3/1
f 308/4/2 482/5/2 21/6/2
f 4/7/3 15/8/3 5/9/3
f 475/10/4 7/3/4 8/11/4
f 5/9/5 16/12/5 478/13/5
f 1/14/6 8/11/6 9/15/6
f 478/13/7 17/16/7 6/17/7
f 476/18/8 9/15/8 10/19/8
f 6/17/9 18/20/9 479/21/9
f 2/22/10 10/19/10 11/23/10
f 479/21/11 19/24/11 480/25/11
f 477/26/12 11/23/12 12/27/12
f 480/25/13 20/28/13 481/29/13
f 3/30/14 12/27/14 13/31/14
f 481/29/15 21/6/15 482/5/15
f 3/30/16 14/32/16 4/7/16
f 20/28/17 36/33/17 21/6/17
f 13/31/18 29/34/18 14/32/18
f 7/3/19 82/35/19 22/36/19
f 308/37/20 21/6/20 36/33/20
f 14/32/21 30/38/21 15/8/21
f 7/3/22 23/39/22 8/11/22
f 15/8/23 31/40/23 16/12/23
f 8/11/24 24/41/24 9/15/24
f 16/12/25 32/42/25 17/16/25
f 9/15/26 25/43/26 10/19/26
f 17/16/27 33/44/27 18/20/27
f 10/19/28 26/45/28 11/23/28
f 19/24/29 33/44/29 34/46/29
f 11/23/30 27/47/30 12/27/30
f 20/28/31 34/46/31 35/48/31
f 13/31/32 27/47/32 28/49/32
f 24/41/33 40/50/33 25/43/33
f 33/44/34 47/51/34 48/52/34
f 25/43/35 41/53/35 26/45/35
f 34/46/36 48/52/36 49/54/36
f 26/45/37 42/55/37 27/47/37
f 34/46/38 50/56/38 35/48/38
f 27/47/39 43/57/39 28/49/39
f 35/48/40 51/58/40 36/33/40
f 28/49/41 44/59/41 29/34/41
f 22/36/42 82/60/42 37/61/42
f 308/62/43 36/33/43 51/58/43
f 30/38/44 44/59/44 45/63/44
f 22/36/45 38/64/45 23/39/45
f 30/38/46 46/65/46 31/40/46
f 23/39/47 39/66/47 24/41/47
f 32/42/48 46/65/48 47/51/48
f 44/59/49 58/67/49 59/68/49
f 37/61/50 82/69/50 52/70/50
f 308/71/51 51/58/51 66/72/51
f 44/59/52 60/73/52 45/63/52
f 37/61/53 53/74/53 38/64/53
f 45/63/54 61/75/54 46/65/54
f 38/64/55 54/76/55 39/66/55
f 47/51/56 61/75/56 62/77/56
f 39/66/57 55/78/57 40/50/57
f 47/51/58 63/79/58 48/52/58
f 40/50/59 56/80/59 41/53/59
f 48/52/60 64/81/60 49/54/60
f 41/53/61 57/82/61 42/55/61
f 49/54/62 65/83/62 50/56/62
f 43/57/63 57/82/63 58/67/63
f 50/56/64 66/72/64 51/58/64
f 62/77/65 78/84/65 63/79/65
f 56/80/66 70/85/66 71/86/66
f 63/79/67 79/87/67 64/81/67
f 56/80/68 72/88/68 57/82/68
f 65/83/69 79/87/69 80/89/69
f 58/67/70 72/88/70 73/90/70
f 65/83/71 81/91/71 66/72/71
f 59/68/72 73/90/72 74/92/72
f 52/70/73 82/93/73 67/94/73
f 308/95/74 66/72/74 81/91/74
f 59/68/75 75/96/75 60/73/75
f 52/70/76 68/97/76 53/74/76
f 60/73/77 76/98/77 61/75/77
f 53/74/78 69/99/78 54/76/78
f 62/77/79 76/98/79 77/100/79
f 54/76/80 70/85/80 55/78/80
f 67/94/81 82/101/81 83/102/81
f 308/103/82 81/91/82 97/104/82
f 74/92/83 91/105/83 75/96/83
f 67/94/84 84/106/84 68/97/84
f 75/96/85 92/107/85 76/98/85
f 68/97/86 85/108/86 69/99/86
f 77/100/87 92/107/87 93/109/87
f 69/99/88 86/110/88 70/85/88
f 77/100/89 94/111/89 78/84/89
f 71/86/90 86/110/90 87/112/90
f 78/84/91 95/113/91 79/87/91
f 71/86/92 88/114/92 72/88/92
f 79/87/93 96/115/93 80/89/93
f 73/90/94 88/114/94 89/116/94
f 81/91/95 96/115/95 97/104/95
f 74/92/96 89/116/96 90/117/96
f 87/112/97 101/118/97 102/119/97
f 95/113/98 109/120/98 110/121/98
f 87/112/99 103/122/99 88/114/99
f 96/115/100 110/121/100 111/123/100
f 89/116/101 103/122/101 104/124/101
f 96/115/102 112/125/102 97/104/102
f 90/117/103 104/124/103 105/126/103
f 83/102/104 82/127/104 98/128/104
f 308/129/105 97/104/105 112/125/105
f 90/117/106 106/130/106 91/105/106
f 84/106/107 98/128/107 99/131/107
f 91/105/108 107/132/108 92/107/108
f 84/106/109 100/133/109 85/108/109
f 93/109/110 107/132/110 108/134/110
f 85/108/111 101/118/111 86/110/111
f 93/109/112 109/120/112 94/111/112
f 105/126/113 121/135/113 106/130/113
f 99/131/114 113/136/114 114/137/114
f 106/130/115 122/138/115 107/132/115
f 99/131/116 115/139/116 100/133/116
f 108/134/117 122/138/117 123/140/117
f 100/133/118 116/141/118 101/118/118
f 108/134/119 124/142/119 109/120/119
f 102/119/120 116/141/120 117/143/120
f 110/121/121 124/142/121 125/144/121
f 102/119/122 118/145/122 103/122/122
f 110/121/123 126/146/123 111/123/123
f 104/124/124 118/145/124 119/147/124
f 111/123/125 127/148/125 112/125/125
f 105/126/126 119/147/126 120/149/126
f 98/128/127 82/150/127 113/136/127
f 308/151/128 112/125/128 127/148/128
f 125/144/129 139/152/129 140/153/129
f 117/143/130 133/154/130 118/145/130
f 125/144/131 141/155/131 126/146/131
f 119/147/132 133/154/132 134/156/132
f 126/146/133 142/157/133 127/148/133
f 120/149/134 134/156/134 135/158/134
f 113/136/135 82/159/135 128/160/135
f 308/161/136 127/148/136 142/157/136
f 120/149/137 136/162/137 121/135/137
f 113/136/138 129/163/138 114/137/138
f 121/135/139 137/164/139 122/138/139
f 114/137/140 130/165/140 115/139/140
f 123/140/141 137/164/141 138/166/141
f 115/139/142 131/167/142 116/141/142
f 123/140/143 139/152/143 124/142/143
f 117/143/144 131/167/144 132/168/144
f 136/162/145 152/169/145 137/164/145
f 130/165/146 144/170/146 145/171/146
f 138/166/147 152/169/147 153/172/147
f 130/165/148 146/173/148 131/167/148
f 138/166/149 154/174/149 139/152/149
f 132/168/150 146/173/150 147/175/150
f 140/153/151 154/174/151 155/176/151
f 132/168/152 148/177/152 133/154/152
f 140/153/153 156/178/153 141/155/153
f 134/156/154 148/177/154 149/179/154
f 142/157/155 156/178/155 157/180/155
f 135/158/156 149/179/156 150/181/156
f 128/160/157 82/182/157 143/183/157
f 308/184/158 142/157/158 157/180/158
f 135/158/159 151/185/159 136/162/159
f 128/160/160 144/170/160 129/163/160
f 155/176/161 171/186/161 156/178/161
f 149/179/162 163/187/162 164/188/162
f 156/178/163 172/189/163 157/180/163
f 150/181/164 164/188/164 165/190/164
f 143/183/165 82/191/165 158/192/165
f 308/193/166 157/180/166 172/189/166
f 150/181/167 166/194/167 151/185/167
f 143/183/168 159/195/168 144/170/168
f 151/185/169 167/196/169 152/169/169
f 145/171/170 159/195/170 160/197/170
f 153/172/171 167/196/171 168/198/171
f 145/171/172 161/199/172 146/173/172
f 153/172/173 169/200/173 154/174/173
f 147/175/174 161/199/174 162/201/174
f 155/176/175 169/200/175 170/202/175
f 147/175/176 163/187/176 148/177/176
f 159/195/177 175/203/177 160/197/177
f 168/198/178 182/204/178 183/205/178
f 160/197/179 176/206/179 161/199/179
f 168/198/180 184/207/180 169/200/180
f 162/201/181 176/206/181 177/208/181
f 169/200/182 185/209/182 170/202/182
f 162/201/183 178/210/183 163/187/183
f 171/186/184 185/209/184 186/211/184
f 164/188/185 178/210/185 179/212/185
f 172/189/186 186/211/186 187/213/186
f 165/190/187 179/212/187 180/214/187
f 158/192/188 82/215/188 173/216/188
f 308/217/189 172/189/189 187/213/189
f 165/190/190 181/218/190 166/194/190
f 158/192/191 174/219/191 159/195/191
f 166/194/192 182/204/192 167/196/192
f 179/212/193 193/220/193 194/221/193
f 186/211/194 202/222/194 187/213/194
f 180/214/195 194/221/195 195/223/195
f 173/216/196 82/224/196 188/225/196
f 308/226/197 187/213/197 202/222/197
f 180/214/198 196/227/198 181/218/198
f 174/219/199 188/225/199 189/228/199
f 181/218/200 197/229/200 182/204/200
f 175/203/201 189/228/201 190/230/201
f 183/205/202 197/229/202 198/231/202
f 175/203/203 191/232/203 176/206/203
f 183/205/204 199/233/204 184/207/204
f 177/208/205 191/232/205 192/234/205
f 185/209/206 199/233/206 200/235/206
f 177/208/207 193/220/207 178/210/207
f 185/209/208 201/236/208 186/211/208
f 198/231/209 212/237/209 213/238/209
f 190/230/210 206/239/210 191/232/210
f 198/231/211 214/240/211 199/233/211
f 192/234/212 206/239/212 207/241/212
f 200/235/213 214/240/213 215/242/213
f 192/234/214 208/243/214 193/220/214
f 200/235/215 216/244/215 201/236/215
f 194/221/216 208/243/216 209/245/216
f 201/236/217 217/246/217 202/222/217
f 195/223/218 209/245/218 210/247/218
f 188/225/219 82/248/219 203/249/219
f 308/250/220 202/222/220 217/246/220
f 195/223/221 211/251/221 196/227/221
f 188/225/222 204/252/222 189/228/222
f 196/227/223 212/237/223 197/229/223
f 189/228/224 205/253/224 190/230/224
f 216/244/225 232/254/225 217/246/225
f 210/247/226 224/255/226 225/256/226
f 203/249/227 82/257/227 218/258/227
f 308/259/228 217/246/228 232/254/228
f 210/247/229 226/260/229 211/251/229
f 203/249/230 219/261/230 204/252/230
f 211/251/231 227/262/231 212/237/231
f 204/252/232 220/263/232 205/253/232
f 213/238/233 227/262/233 228/264/233
f 205/253/234 221/265/234 206/239/234
f 213/238/235 229/266/235 214/240/235
f 207/241/236 221/265/236 222/267/236
f 215/242/237 229/266/237 230/268/237
f 207/241/238 223/269/238 208/243/238
f 215/242/239 231/270/239 216/244/239
f 209/245/240 223/269/240 224/255/240
f 220/263/241 236/271/241 221/265/241
f 228/264/242 244/272/242 229/266/242
f 222/267/243 236/271/243 237/273/243
f 230/268/244 244/272/244 245/274/244
f 222/267/245 238/275/245 223/269/245
f 230/268/246 246/276/246 231/270/246
f 224/255/247 238/275/247 239/277/247
f 232/254/248 246/276/248 247/278/248
f 225/256/249 239/277/249 240/279/249
f 218/258/250 82/280/250 233/281/250
f 308/282/251 232/254/251 247/278/251
f 225/256/252 241/283/252 226/260/252
f 218/258/253 234/284/253 219/261/253
f 226/260/254 242/285/254 227/262/254
f 220/263/255 234/284/255 235/286/255
f 228/264/256 242/285/256 243/287/256
f 240/279/257 254/288/257 255/289/257
f 233/281/258 82/290/258 248/291/258
f 308/292/259 247/278/259 262/293/259
f 240/279/260 256/294/260 241/283/260
f 233/281/261 249/295/261 234/284/261
f 241/283/262 257/296/262 242/285/262
f 234/284/263 250/297/263 235/286/263
f 243/287/264 257/296/264 258/298/264
f 235/286/265 251/299/265 236/271/265
f 243/287/266 259/300/266 244/272/266
f 237/273/267 251/299/267 252/301/267
f 245/274/268 259/300/268 260/302/268
f 237/273/269 253/303/269 238/275/269
f 245/274/270 261/304/270 246/276/270
f 239/277/271 253/303/271 254/288/271
f 246/276/272 262/293/272 247/278/272
f 258/298/273 274/305/273 259/300/273
f 252/301/274 266/306/274 267/307/274
f 260/302/275 274/305/275 275/308/275
f 252/301/276 268/309/276 253/303/276
f 260/302/277 276/310/277 261/304/277
f 254/288/278 268/309/278 269/311/278
f 261/304/279 277/312/279 262/293/279
f 255/289/280 269/311/280 270/313/280
f 248/291/281 82/314/281 263/315/281
f 308/316/282 262/293/282 277/312/282
f 255/289/283 271/317/283 256/294/283
f 249/295/284 263/315/284 264/318/284
f 256/294/285 272/319/285 257/296/285
f 249/295/286 265/320/286 250/297/286
f 258/298/287 272/319/287 273/321/287
f 250/297/288 266/306/288 251/299/288
f 308/322/289 277/312/289 292/323/289
f 270/313/290 286/324/290 271/317/290
f 264/318/291 278/325/291 279/326/291
f 271/317/292 287/327/292 272/319/292
f 264/318/293 280/328/293 265/320/293
f 273/321/294 287/327/294 288/329/294
f 265/320/295 281/330/295 266/306/295
f 273/321/296 289/331/296 274/305/296
f 267/307/297 281/330/297 282/332/297
f 275/308/298 289/331/298 290/333/298
f 267/307/299 283/334/299 268/309/299
f 275/308/300 291/335/300 276/310/300
f 269/311/301 283/334/301 284/336/301
f 277/312/302 291/335/302 292/323/302
f 270/313/303 284/336/303 285/337/303
f 263/315/304 82/338/304 278/325/304
f 290/333/305 304/339/305 305/340/305
f 282/332/306 298/341/306 283/334/306
f 290/333/307 306/342/307 291/335/307
f 284/336/308 298/341/308 299/343/308
f 292/323/309 306/342/309 307/344/309
f 285/337/310 299/343/310 300/345/310
f 278/325/311 82/346/311 293/347/311
f 308/348/312 292/323/312 307/344/312
f 285/337/313 301/349/313 286/324/313
f 278/325/314 294/350/314 279/326/314
f 286/324/315 302/351/315 287/327/315
f 279/326/316 295/352/316 280/328/316
f 288/329/317 302/351/317 303/353/317
f 280/328/318 296/354/318 281/330/318
f 288/329/319 304/339/319 289/331/319
f 282/332/320 296/354/320 297/355/320
f 293/347/321 310/356/321 294/350/321
f 301/349/322 318/357/322 302/351/322
f 294/350/323 311/358/323 295/352/323
f 303/353/324 318/357/324 319/359/324
f 295/352/325 312/360/325 296/354/325
f 303/353/326 320/361/326 304/339/326
f 297/355/327 312/360/327 313/362/327
f 305/340/328 320/361/328 321/363/328
f 297/355/329 314/364/329 298/341/329
f 305/340/330 322/365/330 306/342/330
f 299/343/331 314/364/331 315/366/331
f 306/342/332 323/367/332 307/344/332
f 300/345/333 315/366/333 316/368/333
f 293/347/334 82/369/334 309/370/334
f 308/371/335 307/344/335 323/367/335
f 300/345/336 317/372/336 301/349/336
f 313/362/337 329/373/337 314/364/337
f 321/363/338 337/374/338 322/365/338
f 315/366/339 329/373/339 330/375/339
f 322/365/340 338/376/340 323/367/340
f 316/368/341 330/375/341 331/377/341
f 309/370/342 82/378/342 324/379/342
f 308/380/343 323/367/343 338/376/343
f 316/368/344 332/381/344 317/372/344
f 309/370/345 325/382/345 310/356/345
f 317/372/346 333/383/346 318/357/346
f 310/356/347 326/384/347 311/358/347
f 319/359/348 333/383/348 334/385/348
f 311/358/349 327/386/349 312/360/349
f 319/359/350 335/387/350 320/361/350
f 312/360/351 328/388/351 313/362/351
f 321/363/352 335/387/352 336/389/352
f 332/381/353 348/390/353 333/383/353
f 325/382/354 341/391/354 326/384/354
f 334/385/355 348/390/355 349/392/355
f 326/384/356 342/393/356 327/386/356
f 334/385/357 350/394/357 335/387/357
f 328/388/358 342/393/358 343/395/358
f 336/389/359 350/394/359 351/396/359
f 328/388/360 344/397/360 329/373/360
f 336/389/361 352/398/361 337/374/361
f 330/375/362 344/397/362 345/399/362
f 337/374/363 353/400/363 338/376/363
f 331/377/364 345/399/364 346/401/364
f 324/379/365 82/402/365 339/403/365
f 308/404/366 338/376/366 353/400/366
f 331/377/367 347/405/367 332/381/367
f 324/379/368 340/406/368 325/382/368
f 351/396/369 367/407/369 352/398/369
f 345/399/370 359/408/370 360/409/370
f 352/398/371 368/410/371 353/400/371
f 346/401/372 360/409/372 361/411/372
f 339/403/373 82/412/373 354/413/373
f 308/414/374 353/400/374 368/410/374
f 346/401/375 362/415/375 347/405/375
f 339/403/376 355/416/376 340/406/376
f 347/405/377 363/417/377 348/390/377
f 341/391/378 355/416/378 356/418/378
f 349/392/379 363/417/379 364/419/379
f 341/391/380 357/420/380 342/393/380
f 349/392/381 365/421/381 350/394/381
f 343/395/382 357/420/382 358/422/382
f 351/396/383 365/421/383 366/423/383
f 343/395/384 359/408/384 344/397/384
f 356/424/385 370/425/385 371/426/385
f 364/427/386 378/428/386 379/429/386
f 356/424/387 372/430/387 357/431/387
f 364/427/388 380/432/388 365/433/388
f 358/434/389 372/430/389 373/435/389
f 366/436/390 380/432/390 381/437/390
f 358/434/391 374/438/391 359/439/391
f 366/436/392 382/440/392 367/441/392
f 360/442/393 374/438/393 375/443/393
f 367/441/394 383/444/394 368/445/394
f 361/446/395 375/443/395 376/447/395
f 354/448/396 82/449/396 369/450/396
f 308/451/397 368/445/397 383/444/397
f 361/446/398 377/452/398 362/453/398
f 354/448/399 370/425/399 355/454/399
f 362/453/400 378/428/400 363/455/400
f 375/443/401 389/456/401 390/457/401
f 382/440/402 398/458/402 383/444/402
f 376/447/403 390/457/403 391/459/403
f 369/450/404 82/460/404 384/461/404
f 308/462/405 383/444/405 398/458/405
f 376/447/406 392/463/406 377/452/406
f 369/450/407 385/464/407 370/425/407
f 377/452/408 393/465/408 378/428/408
f 371/426/409 385/464/409 386/466/409
f 379/429/410 393/465/410 394/467/410
f 371/426/411 387/468/411 372/430/411
f 379/429/412 395/469/412 380/432/412
f 373/435/413 387/468/413 388/470/413
f 381/437/414 395/469/414 396/471/414
f 373/435/415 389/456/415 374/438/415
f 381/437/416 397/472/416 382/440/416
f 394/467/417 408/473/417 409/474/417
f 386/466/418 402/475/418 387/468/418
f 394/467/419 410/476/419 395/469/419
f 388/470/420 402/475/420 403/477/420
f 396/471/421 410/476/421 411/478/421
f 388/470/422 404/479/422 389/456/422
f 397/472/423 411/478/423 412/480/423
f 390/457/424 404/479/424 405/481/424
f 397/472/425 413/482/425 398/458/425
f 391/459/426 405/481/426 406/483/426
f 384/461/427 82/484/427 399/485/427
f 308/486/428 398/458/428 413/482/428
f 391/459/429 407/487/429 392/463/429
f 385/464/430 399/485/430 400/488/430
f 392/463/431 408/473/431 393/465/431
f 385/464/432 401/489/432 386/466/432
f 412/480/433 428/490/433 413/482/433
f 406/483/434 420/491/434 421/492/434
f 399/485/435 82/493/435 414/494/435
f 308/495/436 413/482/436 428/490/436
f 406/483/437 422/496/437 407/487/437
f 399/485/438 415/497/438 400/488/438
f 407/487/439 423/498/439 408/473/439
f 401/489/440 415/497/440 416/499/440
f 409/474/441 423/498/441 424/500/441
f 401/489/442 417/501/442 402/475/442
f 409/474/443 425/502/443 410/476/443
f 403/477/444 417/501/444 418/503/444
f 411/478/445 425/502/445 426/504/445
f 403/477/446 419/505/446 404/479/446
f 411/478/447 427/506/447 412/480/447
f 405/481/448 419/505/448 420/491/448
f 424/500/449 440/507/449 425/502/449
f 418/503/450 432/508/450 433/509/450
f 426/504/451 440/507/451 441/510/451
f 418/503/452 434/511/452 419/505/452
f 426/504/453 442/512/453 427/506/453
f 420/491/454 434/511/454 435/513/454
f 427/506/455 443/514/455 428/490/455
f 421/492/456 435/513/456 436/515/456
f 414/494/457 82/516/457 429/517/457
f 308/518/458 428/490/458 443/514/458
f 421/492/459 437/519/459 422/496/459
f 414/494/460 430/520/460 415/497/460
f 422/496/461 438/521/461 423/498/461
f 416/499/462 430/520/462 431/522/462
f 424/500/463 438/521/463 439/523/463
f 416/499/464 432/508/464 417/501/464
f 429/517/465 82/524/465 444/525/465
f 308/526/466 443/514/466 458/527/466
f 436/515/467 452/528/467 437/519/467
f 430/520/468 444/525/468 445/529/468
f 437/519/469 453/530/469 438/521/469
f 430/520/470 446/531/470 431/522/470
f 439/523/471 453/530/471 454/532/471
f 431/522/472 447/533/472 432/508/472
f 439/523/473 455/534/473 440/507/473
f 433/509/474 447/533/474 448/535/474
f 441/510/475 455/534/475 456/536/475
f 433/509/476 449/537/476 434/511/476
f 441/510/477 457/538/477 442/512/477
f 435/513/478 449/537/478 450/539/478
f 442/512/479 458/527/479 443/514/479
f 436/515/480 450/539/480 451/540/480
f 448/535/481 462/541/481 463/542/481
f 456/536/482 470/543/482 471/544/482
f 448/535/483 464/545/483 449/537/483
f 456/536/484 472/546/484 457/538/484
f 450/539/485 464/545/485 465/547/485
f 458/527/486 472/546/486 473/548/486
f 451/540/487 465/547/487 466/549/487
f 444/525/488 82/550/488 459/551/488
f 308/552/489 458/527/489 473/548/489
f 451/540/490 467/553/490 452/528/490
f 444/525/491 460/554/491 445/529/491
f 452/528/492 468/555/492 453/530/492
f 446/531/493 460/554/493 461/556/493
f 454/532/494 468/555/494 469/557/494
f 446/531/495 462/541/495 447/533/495
f 454/532/496 470/543/496 455/534/496
f 466/549/497 5/9/497 467/553/497
f 460/554/498 474/1/498 475/10/498
f 467/553/499 478/13/499 468/555/499
f 461/556/500 475/10/500 1/14/500
f 468/555/501 6/17/501 469/557/501
f 462/541/502 1/14/502 476/18/502
f 469/557/503 479/21/503 470/543/503
f 463/542/504 476/18/504 2/22/504
f 471/544/505 479/21/505 480/25/505
f 464/545/506 2/22/506 477/26/506
f 471/544/507 481/29/507 472/546/507
f 465/547/508 477/26/508 3/30/508
f 472/546/509 482/5/509 473/548/509
f 466/549/510 3/30/510 4/7/510
f 459/551/511 82/558/511 474/1/511
f 308/559/512 473/548/512 482/5/512
f 4/7/513 14/32/513 15/8/513
f 475/10/4 474/1/4 7/3/4
f 5/9/5 15/8/5 16/12/5
f 1/14/6 475/10/6 8/11/6
f 478/13/7 16/12/7 17/16/7
f 476/18/8 1/14/8 9/15/8
f 6/17/9 17/16/9 18/20/9
f 2/22/10 476/18/10 10/19/10
f 479/21/11 18/20/11 19/24/11
f 477/26/12 2/22/12 11/23/12
f 480/25/13 19/24/13 20/28/13
f 3/30/14 477/26/14 12/27/14
f 481/29/15 20/28/15 21/6/15
f 3/30/514 13/31/514 14/32/514
f 20/28/17 35/48/17 36/33/17
f 13/31/18 28/49/18 29/34/18
f 14/32/21 29/34/21 30/38/21
f 7/3/22 22/36/22 23/39/22
f 15/8/23 30/38/23 31/40/23
f 8/11/24 23/39/24 24/41/24
f 16/12/515 31/40/515 32/42/515
f 9/15/26 24/41/26 25/43/26
f 17/16/27 32/42/27 33/44/27
f 10/19/28 25/43/28 26/45/28
f 19/24/29 18/20/29 33/44/29
f 11/23/516 26/45/516 27/47/516
f 20/28/31 19/24/31 34/46/31
f 13/31/32 12/27/32 27/47/32
f 24/41/33 39/66/33 40/50/33
f 33/44/34 32/42/34 47/51/34
f 25/43/35 40/50/35 41/53/35
f 34/46/36 33/44/36 48/52/36
f 26/45/37 41/53/37 42/55/37
f 34/46/517 49/54/517 50/56/517
f 27/47/39 42/55/39 43/57/39
f 35/48/40 50/56/40 51/58/40
f 28/49/41 43/57/41 44/59/41
f 30/38/44 29/34/44 44/59/44
f 22/36/45 37/61/45 38/64/45
f 30/38/46 45/63/46 46/65/46
f 23/39/47 38/64/47 39/66/47
f 32/42/48 31/40/48 46/65/48
f 44/59/518 43/57/518 58/67/518
f 44/59/519 59/68/519 60/73/519
f 37/61/53 52/70/53 53/74/53
f 45/63/54 60/73/54 61/75/54
f 38/64/55 53/74/55 54/76/55
f 47/51/56 46/65/56 61/75/56
f 39/66/57 54/76/57 55/78/57
f 47/51/58 62/77/58 63/79/58
f 40/50/59 55/78/59 56/80/59
f 48/52/60 63/79/60 64/81/60
f 41/53/61 56/80/61 57/82/61
f 49/54/62 64/81/62 65/83/62
f 43/57/63 42/55/63 57/82/63
f 50/56/64 65/83/64 66/72/64
f 62/77/65 77/100/65 78/84/65
f 56/80/66 55/78/66 70/85/66
f 63/79/67 78/84/67 79/87/67
f 56/80/68 71/86/68 72/88/68
f 65/83/69 64/81/69 79/87/69
f 58/67/70 57/82/70 72/88/70
f 65/83/71 80/89/71 81/91/71
f 59/68/72 58/67/72 73/90/72
f 59/68/75 74/92/75 75/96/75
f 52/70/76 67/94/76 68/97/76
f 60/73/77 75/96/77 76/98/77
f 53/74/78 68/97/78 69/99/78
f 62/77/79 61/75/79 76/98/79
f 54/76/80 69/99/80 70/85/80
f 74/92/520 90/117/520 91/105/520
f 67/94/84 83/102/84 84/106/84
f 75/96/85 91/105/85 92/107/85
f 68/97/86 84/106/86 85/108/86
f 77/100/87 76/98/87 92/107/87
f 69/99/88 85/108/88 86/110/88
f 77/100/89 93/109/89 94/111/89
f 71/86/90 70/85/90 86/110/90
f 78/84/91 94/111/91 95/113/91
f 71/86/92 87/112/92 88/114/92
f 79/87/93 95/113/93 96/115/93
f 73/90/94 72/88/94 88/114/94
f 81/91/95 80/89/95 96/115/95
f 74/92/521 73/90/521 89/116/521
f 87/112/97 86/110/97 101/118/97
f 95/113/98 94/111/98 109/120/98
f 87/112/522 102/119/522 103/122/522
f 96/115/100 95/113/100 110/121/100
f 89/116/101 88/114/101 103/122/101
f 96/115/102 111/123/102 112/125/102
f 90/117/103 89/116/103 104/124/103
f 90/117/106 105/126/106 106/130/106
f 84/106/107 83/102/107 98/128/107
f 91/105/108 106/130/108 107/132/108
f 84/106/109 99/131/109 100/133/109
f 93/109/523 92/107/523 107/132/523
f 85/108/111 100/133/111 101/118/111
f 93/109/112 108/134/112 109/120/112
f 105/126/524 120/149/524 121/135/524
f 99/131/114 98/128/114 113/136/114
f 106/130/115 121/135/115 122/138/115
f 99/131/116 114/137/116 115/139/116
f 108/134/117 107/132/117 122/138/117
f 100/133/118 115/139/118 116/141/118
f 108/134/119 123/140/119 124/142/119
f 102/119/120 101/118/120 116/141/120
f 110/121/121 109/120/121 124/142/121
f 102/119/122 117/143/122 118/145/122
f 110/121/123 125/144/123 126/146/123
f 104/124/124 103/122/124 118/145/124
f 111/123/125 126/146/125 127/148/125
f 105/126/525 104/124/525 119/147/525
f 125/144/129 124/142/129 139/152/129
f 117/143/130 132/168/130 133/154/130
f 125/144/131 140/153/131 141/155/131
f 119/147/132 118/145/132 133/154/132
f 126/146/133 141/155/133 142/157/133
f 120/149/526 119/147/526 134/156/526
f 120/149/527 135/158/527 136/162/527
f 113/136/528 128/160/528 129/163/528
f 121/135/139 136/162/139 137/164/139
f 114/137/140 129/163/140 130/165/140
f 123/140/141 122/138/141 137/164/141
f 115/139/142 130/165/142 131/167/142
f 123/140/143 138/166/143 139/152/143
f 117/143/144 116/141/144 131/167/144
f 136/162/145 151/185/145 152/169/145
f 130/165/146 129/163/146 144/170/146
f 138/166/529 137/164/529 152/169/529
f 130/165/148 145/171/148 146/173/148
f 138/166/149 153/172/149 154/174/149
f 132/168/150 131/167/150 146/173/150
f 140/153/151 139/152/151 154/174/151
f 132/168/530 147/175/530 148/177/530
f 140/153/153 155/176/153 156/178/153
f 134/156/154 133/154/154 148/177/154
f 142/157/155 141/155/155 156/178/155
f 135/158/156 134/156/156 149/179/156
f 135/158/159 150/181/159 151/185/159
f 128/160/160 143/183/160 144/170/160
f 155/176/531 170/202/531 171/186/531
f 149/179/162 148/177/162 163/187/162
f 156/178/163 171/186/163 172/189/163
f 150/181/164 149/179/164 164/188/164
f 150/181/167 165/190/167 166/194/167
f 143/183/168 158/192/168 159/195/168
f 151/185/169 166/194/169 167/196/169
f 145/171/532 144/170/532 159/195/532
f 153/172/171 152/169/171 167/196/171
f 145/171/172 160/197/172 161/199/172
f 153/172/173 168/198/173 169/200/173
f 147/175/174 146/173/174 161/199/174
f 155/176/175 154/174/175 169/200/175
f 147/175/176 162/201/176 163/187/176
f 159/195/177 174/219/177 175/203/177
f 168/198/178 167/196/178 182/204/178
f 160/197/179 175/203/179 176/206/179
f 168/198/180 183/205/180 184/207/180
f 162/201/181 161/199/181 176/206/181
f 169/200/182 184/207/182 185/209/182
f 162/201/183 177/208/183 178/210/183
f 171/186/184 170/202/184 185/209/184
f 164/188/185 163/187/185 178/210/185
f 172/189/186 171/186/186 186/211/186
f 165/190/187 164/188/187 179/212/187
f 165/190/190 180/214/190 181/218/190
f 158/192/191 173/216/191 174/219/191
f 166/194/192 181/218/192 182/204/192
f 179/212/193 178/210/193 193/220/193
f 186/211/194 201/236/194 202/222/194
f 180/214/195 179/212/195 194/221/195
f 180/214/198 195/223/198 196/227/198
f 174/219/199 173/216/199 188/225/199
f 181/218/200 196/227/200 197/229/200
f 175/203/201 174/219/201 189/228/201
f 183/205/202 182/204/202 197/229/202
f 175/203/203 190/230/203 191/232/203
f 183/205/204 198/231/204 199/233/204
f 177/208/205 176/206/205 191/232/205
f 185/209/206 184/207/206 199/233/206
f 177/208/207 192/234/207 193/220/207
f 185/209/208 200/235/208 201/236/208
f 198/231/209 197/229/209 212/237/209
f 190/230/210 205/253/210 206/239/210
f 198/231/211 213/238/211 214/240/211
f 192/234/212 191/232/212 206/239/212
f 200/235/213 199/233/213 214/240/213
f 192/234/214 207/241/214 208/243/214
f 200/235/215 215/242/215 216/244/215
f 194/221/216 193/220/216 208/243/216
f 201/236/217 216/244/217 217/246/217
f 195/223/218 194/221/218 209/245/218
f 195/223/221 210/247/221 211/251/221
f 188/225/222 203/249/222 204/252/222
f 196/227/223 211/251/223 212/237/223
f 189/228/224 204/252/224 205/253/224
f 216/244/225 231/270/225 232/254/225
f 210/247/533 209/245/533 224/255/533
f 210/247/534 225/256/534 226/260/534
f 203/249/230 218/258/230 219/261/230
f 211/251/231 226/260/231 227/262/231
f 204/252/232 219/261/232 220/263/232
f 213/238/233 212/237/233 227/262/233
f 205/253/234 220/263/234 221/265/234
f 213/238/235 228/264/235 229/266/235
f 207/241/236 206/239/236 221/265/236
f 215/242/237 214/240/237 229/266/237
f 207/241/238 222/267/238 223/269/238
f 215/242/239 230/268/239 231/270/239
f 209/245/240 208/243/240 223/269/240
f 220/263/241 235/286/241 236/271/241
f 228/264/242 243/287/242 244/272/242
f 222/267/243 221/265/243 236/271/243
f 230/268/244 229/266/244 244/272/244
f 222/267/245 237/273/245 238/275/245
f 230/268/246 245/274/246 246/276/246
f 224/255/247 223/269/247 238/275/247
f 232/254/248 231/270/248 246/276/248
f 225/256/535 224/255/535 239/277/535
f 225/256/536 240/279/536 241/283/536
f 218/258/253 233/281/253 234/284/253
f 226/260/254 241/283/254 242/285/254
f 220/263/255 219/261/255 234/284/255
f 228/264/256 227/262/256 242/285/256
f 240/279/537 239/277/537 254/288/537
f 240/279/538 255/289/538 256/294/538
f 233/281/261 248/291/261 249/295/261
f 241/283/262 256/294/262 257/296/262
f 234/284/263 249/295/263 250/297/263
f 243/287/264 242/285/264 257/296/264
f 235/286/265 250/297/265 251/299/265
f 243/287/266 258/298/266 259/300/266
f 237/273/267 236/271/267 251/299/267
f 245/274/268 244/272/268 259/300/268
f 237/273/269 252/301/269 253/303/269
f 245/274/270 260/302/270 261/304/270
f 239/277/271 238/275/271 253/303/271
f 246/276/272 261/304/272 262/293/272
f 258/298/273 273/321/273 274/305/273
f 252/301/274 251/299/274 266/306/274
f 260/302/275 259/300/275 274/305/275
f 252/301/276 267/307/276 268/309/276
f 260/302/277 275/308/277 276/310/277
f 254/288/278 253/303/278 268/309/278
f 261/304/279 276/310/279 277/312/279
f 255/289/280 254/288/280 269/311/280
f 255/289/283 270/313/283 271/317/283
f 249/295/284 248/291/284 263/315/284
f 256/294/285 271/317/285 272/319/285
f 249/295/286 264/318/286 265/320/286
f 258/298/287 257/296/287 272/319/287
f 250/297/288 265/320/288 266/306/288
f 270/313/290 285/337/290 286/324/290
f 264/318/291 263/315/291 278/325/291
f 271/317/292 286/324/292 287/327/292
f 264/318/539 279/326/539 280/328/539
f 273/321/294 272/319/294 287/327/294
f 265/320/295 280/328/295 281/330/295
f 273/321/296 288/329/296 289/331/296
f 267/307/297 266/306/297 281/330/297
f 275/308/298 274/305/298 289/331/298
f 267/307/299 282/332/299 283/334/299
f 275/308/540 290/333/540 291/335/540
f 269/311/301 268/309/301 283/334/301
f 277/312/302 276/310/302 291/335/302
f 270/313/303 269/311/303 284/336/303
f 290/333/305 289/331/305 304/339/305
f 282/332/306 297/355/306 298/341/306
f 290/333/307 305/340/307 306/342/307
f 284/336/308 283/334/308 298/341/308
f 292/323/309 291/335/309 306/342/309
f 285/337/310 284/336/310 299/343/310
f 285/337/313 300/345/313 301/349/313
f 278/325/314 293/347/314 294/350/314
f 286/324/315 301/349/315 302/351/315
f 279/326/316 294/350/316 295/352/316
f 288/329/317 287/327/317 302/351/317
f 280/328/318 295/352/318 296/354/318
f 288/329/319 303/353/319 304/339/319
f 282/332/320 281/330/320 296/354/320
f 293/347/321 309/370/321 310/356/321
f 301/349/322 317/372/322 318/357/322
f 294/350/323 310/356/323 311/358/323
f 303/353/324 302/351/324 318/357/324
f 295/352/325 311/358/325 312/360/325
f 303/353/326 319/359/326 320/361/326
f 297/355/327 296/354/327 312/360/327
f 305/340/328 304/339/328 320/361/328
f 297/355/329 313/362/329 314/364/329
f 305/340/330 321/363/330 322/365/330
f 299/343/331 298/341/331 314/364/331
f 306/342/332 322/365/332 323/367/332
f 300/345/333 299/343/333 315/366/333
f 300/345/336 316/368/336 317/372/336
f 313/362/337 328/388/337 329/373/337
f 321/363/338 336/389/338 337/374/338
f 315/366/339 314/364/339 329/373/339
f 322/365/340 337/374/340 338/376/340
f 316/368/541 315/366/541 330/375/541
f 316/368/542 331/377/542 332/381/542
f 309/370/345 324/379/345 325/382/345
f 317/372/346 332/381/346 333/383/346
f 310/356/347 325/382/347 326/384/347
f 319/359/348 318/357/348 333/383/348
f 311/358/349 326/384/349 327/386/349
f 319/359/350 334/385/350 335/387/350
f 312/360/351 327/386/351 328/388/351
f 321/363/352 320/361/352 335/387/352
f 332/381/353 347/405/353 348/390/353
f 325/382/354 340/406/354 341/391/354
f 334/385/355 333/383/355 348/390/355
f 326/384/356 341/391/356 342/393/356
f 334/385/357 349/392/357 350/394/357
f 328/388/358 327/386/358 342/393/358
f 336/389/359 335/387/359 350/394/359
f 328/388/360 343/395/360 344/397/360
f 336/389/361 351/396/361 352/398/361
f 330/375/362 329/373/362 344/397/362
f 337/374/363 352/398/363 353/400/363
f 331/377/364 330/375/364 345/399/364
f 331/377/367 346/401/367 347/405/367
f 324/379/368 339/403/368 340/406/368
f 351/396/369 366/423/369 367/407/369
f 345/399/370 344/397/370 359/408/370
f 352/398/371 367/407/371 368/410/371
f 346/401/372 345/399/372 360/409/372
f 346/401/375 361/411/375 362/415/375
f 339/403/376 354/413/376 355/416/376
f 347/405/377 362/415/377 363/417/377
f 341/391/378 340/406/378 355/416/378
f 349/392/379 348/390/379 363/417/379
f 341/391/380 356/418/380 357/420/380
f 349/392/381 364/419/381 365/421/381
f 343/395/382 342/393/382 357/420/382
f 351/396/383 350/394/383 365/421/383
f 343/395/384 358/422/384 359/408/384
f 356/424/385 355/454/385 370/425/385
f 364/427/386 363/455/386 378/428/386
f 356/424/387 371/426/387 372/430/387
f 364/427/388 379/429/388 380/432/388
f 358/434/389 357/431/389 372/430/389
f 366/436/390 365/433/390 380/432/390
f 358/434/391 373/435/391 374/438/391
f 366/436/392 381/437/392 382/440/392
f 360/442/393 359/439/393 374/438/393
f 367/441/394 382/440/394 383/444/394
f 361/446/395 360/442/395 375/443/395
f 361/446/398 376/447/398 377/452/398
f 354/448/543 369/450/543 370/425/543
f 362/453/400 377/452/400 378/428/400
f 375/443/401 374/438/401 389/456/401
f 382/440/402 397/472/402 398/458/402
f 376/447/403 375/443/403 390/457/403
f 376/447/406 391/459/406 392/463/406
f 369/450/407 384/461/407 385/464/407
f 377/452/408 392/463/408 393/465/408
f 371/426/409 370/425/409 385/464/409
f 379/429/410 378/428/410 393/465/410
f 371/426/411 386/466/411 387/468/411
f 379/429/412 394/467/412 395/469/412
f 373/435/413 372/430/413 387/468/413
f 381/437/414 380/432/414 395/469/414
f 373/435/415 388/470/415 389/456/415
f 381/437/416 396/471/416 397/472/416
f 394/467/417 393/465/417 408/473/417
f 386/466/418 401/489/418 402/475/418
f 394/467/419 409/474/419 410/476/419
f 388/470/420 387/468/420 402/475/420
f 396/471/421 395/469/421 410/476/421
f 388/470/422 403/477/422 404/479/422
f 397/472/544 396/471/544 411/478/544
f 390/457/424 389/456/424 404/479/424
f 397/472/425 412/480/425 413/482/425
f 391/459/426 390/457/426 405/481/426
f 391/459/429 406/483/429 407/487/429
f 385/464/430 384/461/430 399/485/430
f 392/463/431 407/487/431 408/473/431
f 385/464/545 400/488/545 401/489/545
f 412/480/546 427/506/546 428/490/546
f 406/483/434 405/481/434 420/491/434
f 406/483/437 421/492/437 422/496/437
f 399/485/547 414/494/547 415/497/547
f 407/487/439 422/496/439 423/498/439
f 401/489/440 400/488/440 415/497/440
f 409/474/441 408/473/441 423/498/441
f 401/489/442 416/499/442 417/501/442
f 409/474/443 424/500/443 425/502/443
f 403/477/444 402/475/444 417/501/444
f 411/478/445 410/476/445 425/502/445
f 403/477/446 418/503/446 419/505/446
f 411/478/447 426/504/447 427/506/447
f 405/481/448 404/479/448 419/505/448
f 424/500/449 439/523/449 440/507/449
f 418/503/450 417/501/450 432/508/450
f 426/504/451 425/502/451 440/507/451
f 418/503/452 433/509/452 434/511/452
f 426/504/453 441/510/453 442/512/453
f 420/491/454 419/505/454 434/511/454
f 427/506/455 442/512/455 443/514/455
f 421/492/456 420/491/456 435/513/456
f 421/492/459 436/515/459 437/519/459
f 414/494/460 429/517/460 430/520/460
f 422/496/461 437/519/461 438/521/461
f 416/499/462 415/497/462 430/520/462
f 424/500/463 423/498/463 438/521/463
f 416/499/464 431/522/464 432/508/464
f 436/515/548 451/540/548 452/528/548
f 430/520/468 429/517/468 444/525/468
f 437/519/469 452/528/469 453/530/469
f 430/520/470 445/529/470 446/531/470
f 439/523/471 438/521/471 453/530/471
f 431/522/472 446/531/472 447/533/472
f 439/523/473 454/532/473 455/534/473
f 433/509/474 432/508/474 447/533/474
f 441/510/475 440/507/475 455/534/475
f 433/509/476 448/535/476 449/537/476
f 441/510/477 456/536/477 457/538/477
f 435/513/478 434/511/478 449/537/478
f 442/512/479 457/538/479 458/527/479
f 436/515/549 435/513/549 450/539/549
f 448/535/481 447/533/481 462/541/481
f 456/536/482 455/534/482 470/543/482
f 448/535/483 463/542/483 464/545/483
f 456/536/484 471/544/484 472/546/484
f 450/539/485 449/537/485 464/545/485
f 458/527/486 457/538/486 472/546/486
f 451/540/487 450/539/487 465/547/487
f 451/540/490 466/549/490 467/553/490
f 444/525/491 459/551/491 460/554/491
f 452/528/492 467/553/492 468/555/492
f 446/531/493 445/529/493 460/554/493
f 454/532/494 453/530/494 468/555/494
f 446/531/495 461/556/495 462/541/495
f 454/532/496 469/557/496 470/543/496
f 466/549/550 4/7/550 5/9/550
f 460/554/498 459/551/498 474/1/498
f 467/553/499 5/9/499 478/13/499
f 461/556/500 460/554/500 475/10/500
f 468/555/501 478/13/501 6/17/501
f 462/541/502 461/556/502 1/14/502
f 469/557/503 6/17/503 479/21/503
f 463/542/504 462/541/504 476/18/504
f 471/544/505 470/543/505 479/21/505
f 464/545/506 463/542/506 2/22/506
f 471/544/507 480/25/507 481/29/507
f 465/547/508 464/545/508 477/26/508
f 472/546/509 481/29/509 482/5/509
f 466/549/551 465/547/551 3/30/551
