# Blender 4.1.1
# www.blender.org
mtllib enemyModel.mtl
o Cube.001
v -1.000000 -0.642668 -1.000000
v 1.000000 -0.642668 -1.000000
v -1.000000 0.642668 -1.437173
v 1.000000 0.642668 -1.437173
v -1.000000 -0.642668 1.000000
v 1.000000 -0.642668 1.000000
v -1.000000 0.642668 1.437173
v 1.000000 0.642668 1.437173
v 0.000102 -0.642668 -1.000000
v 0.000102 0.642668 1.437173
v 0.000102 0.642668 -1.437173
v 0.000102 -0.642668 1.000000
v 1.000000 -0.000000 1.000000
v -1.000000 0.000000 -1.000000
v -1.000000 -0.000000 1.000000
v 1.000000 0.000000 -1.000000
v 0.000102 0.000000 -1.000000
v 0.000102 -0.000000 1.000000
v -0.499949 0.642668 1.437173
v -0.499949 -0.642668 -1.000000
v -0.499949 0.642668 -1.437173
v -0.499949 -0.642668 1.000000
v -0.499949 0.000000 -1.000000
v -0.499949 -0.000000 1.000000
v 0.500051 -0.642668 -1.000000
v 0.500051 0.642668 -1.437173
v 0.500051 -0.642668 1.000000
v 0.500051 0.642668 1.437173
v 0.500051 -0.000000 1.000000
v 0.500051 0.000000 -1.000000
v 1.000000 -1.036831 -0.000000
v -1.000000 0.642668 0.000000
v 1.000000 0.642668 0.000000
v -1.000000 -1.109092 -0.000000
v 0.000102 0.642668 0.000000
v 1.000000 0.000000 0.000000
v -1.000000 0.000000 0.000000
v -0.499949 -1.109092 -0.000000
v -0.499949 0.642668 0.000000
v 0.500051 0.642668 0.000000
v 0.500051 -1.036831 -0.000000
v 1.000000 0.642668 -0.500000
v -1.000000 -1.109092 -0.500000
v 0.000102 -0.642668 -0.500000
v -1.000000 0.000000 -0.500000
v -0.499949 -1.109092 -0.500000
v 0.500051 -1.036831 -0.500000
v 1.000000 -1.036831 -0.500000
v -1.000000 0.642668 -0.500000
v 0.000102 0.642668 -0.500000
v 1.000000 0.000000 -0.500000
v -0.499949 0.642668 -0.500000
v 0.500051 0.642668 -0.500000
v 1.000000 -1.036831 0.500000
v -1.000000 0.642668 0.500000
v 0.000102 0.642668 0.500000
v 1.000000 -0.000000 0.500000
v -0.499949 0.642668 0.500000
v 0.500051 0.642668 0.500000
v 1.000000 0.642668 0.500000
v -1.000000 -1.109092 0.500000
v 0.000102 -0.642668 0.500000
v -1.000000 -0.000000 0.500000
v -0.499949 -1.109092 0.500000
v 0.500051 -1.036831 0.500000
v 0.000102 -1.357332 0.500000
v 0.000102 -1.357332 -0.000000
v -0.499949 -1.357332 0.500000
v -0.499949 -1.357332 -0.000000
v 0.500051 -1.357332 0.500000
v 0.500051 -1.357332 -0.000000
v 0.000102 -1.357332 -0.500000
v -0.499949 -1.357332 -0.500000
v 0.500051 -1.357332 -0.500000
v 0.000102 -0.642668 -0.000000
v 0.000171 -1.076435 -0.000000
v 0.000000 0.000000 -1.000000
v -0.195090 0.000000 -0.980785
v 0.195090 0.000000 -0.980785
v 0.382683 0.000000 -0.923880
v 0.555570 0.000000 -0.831470
v 0.707107 0.000000 -0.707107
v 0.831470 0.000000 -0.555570
v 0.923880 0.000000 -0.382683
v 0.980785 0.000000 -0.195090
v 1.000000 0.000000 0.000000
v 0.980785 -0.000000 0.195090
v 0.923880 -0.000000 0.382683
v 0.831470 -0.000000 0.555570
v 0.707107 -0.000000 0.707107
v 0.555570 -0.000000 0.831470
v 0.382683 -0.000000 0.923880
v 0.195090 -0.000000 0.980785
v 0.000000 -0.000000 1.000000
v -0.195090 -0.000000 0.980785
v -0.382683 -0.000000 0.923880
v -0.555570 -0.000000 0.831470
v -0.707107 -0.000000 0.707107
v -0.831470 -0.000000 0.555570
v -0.923880 -0.000000 0.382683
v -0.980785 -0.000000 0.195090
v -1.000000 0.000000 0.000000
v -0.980785 0.000000 -0.195090
v -0.923880 0.000000 -0.382683
v -0.831470 0.000000 -0.555570
v -0.707107 0.000000 -0.707107
v -0.555570 0.000000 -0.831470
v -0.382683 0.000000 -0.923880
vn -1.0000 -0.0000 -0.0000
vn -0.0000 1.0000 -0.0000
vn -0.0000 -0.0000 1.0000
vn 1.0000 -0.0000 -0.0000
vn -0.0000 -0.5624 -0.8268
vn -0.0000 -0.7312 -0.6821
vn -0.5264 -0.6677 -0.5264
vn -0.0000 -0.5624 0.8268
vn -0.0000 -0.0000 -1.0000
vn -0.0000 -1.0000 -0.0000
vn -0.0000 -0.7853 -0.6191
vn -0.0000 -0.7312 0.6821
vn -0.5264 -0.6677 0.5264
vn -0.0000 -0.7853 0.6191
vn 0.5635 -0.6041 -0.5635
vn 0.5635 -0.6041 0.5635
vt 0.772920 0.717337
vt 0.681849 0.780843
vt 0.707967 0.696546
vt 0.272168 0.905806
vt 0.150729 0.961906
vt 0.221946 0.867731
vt 0.747858 0.225464
vt 0.650457 0.257857
vt 0.696914 0.190283
vt 0.268876 0.466115
vt 0.157187 0.458626
vt 0.223672 0.410551
vt 0.503334 0.632169
vt 0.372471 0.671872
vt 0.438585 0.588814
vt 0.591642 0.470560
vt 0.486186 0.512713
vt 0.535645 0.436433
vt 0.459662 0.436935
vt 0.380435 0.439034
vt 0.434586 0.369139
vt 0.382061 0.548614
vt 0.267674 0.593831
vt 0.326925 0.507636
vt 0.644873 0.154301
vt 0.546673 0.188856
vt 0.592036 0.119247
vt 0.171640 0.829702
vt 0.050311 0.886048
vt 0.121293 0.791809
vt 0.700574 0.073150
vt 0.648098 0.036845
vt 0.430214 0.479891
vt 0.543700 0.546713
vt 0.331094 0.402156
vt 0.326219 0.321826
vt 0.803902 0.145467
vt 0.752557 0.109506
vt 0.799707 0.634838
vt 0.755512 0.554167
vt 0.320463 0.632161
vt 0.601258 0.220154
vt 0.100519 0.923938
vt 0.537987 0.082867
vt 0.594966 0.000090
vt 0.000090 0.848222
vt 0.070974 0.754055
vt 0.490589 0.153077
vt 0.214920 0.557598
vt 0.374086 0.337195
vt 0.501658 0.260902
vt 0.406380 0.278862
vt 0.443525 0.225667
vt 0.196901 0.690634
vt 0.108636 0.703737
vt 0.146049 0.653250
vt 0.298422 0.767065
vt 0.209653 0.779276
vt 0.247822 0.728610
vt 0.556353 0.374802
vt 0.578253 0.389057
vt 0.691557 0.532649
vt 0.574978 0.653275
vt 0.627876 0.510425
vt 0.284728 0.273560
vt 0.142983 0.310012
vt 0.243758 0.225218
vt 0.159120 0.741363
vt 0.571248 0.341395
vt 0.599098 0.334221
vt 0.658623 0.363407
vt 0.183167 0.359453
vt 0.080445 0.360690
vt 0.348486 0.805600
vt 0.260062 0.817433
vt 0.642251 0.675264
vt 0.550112 0.741930
vt 0.420922 0.712586
vt 0.457543 0.310935
vt 0.495742 0.387984
vt 0.529972 0.402971
vt 0.627407 0.419885
vt 0.119508 0.409294
vt 0.005886 0.270138
vt 0.102675 0.261305
vt 0.702415 0.290799
vt 0.573916 0.262568
vt 0.164827 0.209099
vt 0.310257 0.855649
vt 0.616407 0.760937
vt 0.520216 0.351995
vt 0.543027 0.315278
vt 0.485659 0.329516
vt 0.510233 0.302607
vt 0.470272 0.361163
vt 0.803902 0.818690
vt 0.200941 0.999910
s 0
usemtl Material.001
f 15/1/1 55/2/1 63/3/1
f 55/4/2 19/5/2 58/6/2
f 15/7/3 22/8/3 24/9/3
f 16/10/4 42/11/4 51/12/4
f 14/13/5 21/14/5 23/15/5
f 43/16/6 20/17/6 46/18/6
f 44/19/7 25/20/7 47/21/7
f 17/22/5 26/23/5 30/24/5
f 18/25/3 27/26/3 29/27/3
f 56/28/2 28/29/2 59/30/2
f 10/31/8 29/27/8 28/32/8
f 9/33/9 30/24/9 25/20/9
f 1/34/9 23/15/9 20/17/9
f 2/35/4 51/12/4 48/36/4
f 7/37/8 24/9/8 19/38/8
f 5/39/1 63/3/1 61/40/1
f 19/38/8 18/25/8 10/31/8
f 20/17/9 17/22/9 9/33/9
f 44/19/10 20/17/10 9/33/10
f 23/15/5 11/41/5 17/22/5
f 24/9/3 12/42/3 18/25/3
f 58/6/2 10/43/2 56/28/2
f 25/20/9 16/10/9 2/35/9
f 28/32/8 13/44/8 8/45/8
f 59/30/2 8/46/2 60/47/2
f 29/27/3 6/48/3 13/44/3
f 30/24/5 4/49/5 16/10/5
f 47/21/11 2/35/11 48/50/11
f 65/51/10 31/52/10 54/53/10
f 53/54/2 33/55/2 42/56/2
f 52/57/2 35/58/2 50/59/2
f 46/18/1 69/60/1 38/61/1
f 34/62/1 45/63/1 43/64/1
f 31/65/4 57/66/4 54/67/4
f 50/59/2 40/68/2 53/54/2
f 38/61/1 68/69/1 64/70/1
f 61/71/10 38/61/10 64/70/10
f 36/72/4 60/73/4 57/66/4
f 49/74/2 39/75/2 52/57/2
f 37/76/1 49/77/1 45/63/1
f 45/63/1 3/78/1 14/13/1
f 3/78/2 52/57/2 21/14/2
f 11/41/2 53/54/2 26/23/2
f 1/34/1 45/63/1 14/13/1
f 21/14/2 50/59/2 11/41/2
f 26/23/2 42/56/2 4/49/2
f 41/79/10 48/50/10 31/52/10
f 46/18/9 72/80/9 73/81/9
f 48/36/4 36/72/4 31/65/4
f 47/21/9 72/80/9 44/19/9
f 34/82/10 46/18/10 38/61/10
f 51/12/4 33/83/4 36/72/4
f 57/66/4 8/84/4 13/85/4
f 5/86/12 64/70/12 22/8/12
f 27/26/13 62/87/13 65/51/13
f 6/88/4 57/66/4 13/85/4
f 22/8/10 62/87/10 12/42/10
f 27/26/14 54/53/14 6/48/14
f 40/68/2 60/47/2 33/55/2
f 39/75/2 56/28/2 35/58/2
f 61/40/1 37/76/1 34/62/1
f 35/58/2 59/30/2 40/68/2
f 32/89/2 58/6/2 39/75/2
f 63/3/1 32/90/1 37/76/1
f 68/69/10 67/91/10 66/92/10
f 66/92/10 71/93/10 70/94/10
f 69/60/10 72/80/10 67/91/10
f 67/91/10 74/95/10 71/93/10
f 65/51/4 71/93/4 41/79/4
f 64/70/3 66/92/3 62/87/3
f 65/51/3 66/92/3 70/94/3
f 41/79/4 74/95/4 47/21/4
f 15/1/1 7/96/1 55/2/1
f 55/4/2 7/97/2 19/5/2
f 15/7/3 5/86/3 22/8/3
f 16/10/4 4/49/4 42/11/4
f 14/13/5 3/78/5 21/14/5
f 43/16/6 1/34/6 20/17/6
f 44/19/10 9/33/10 25/20/10
f 17/22/5 11/41/5 26/23/5
f 18/25/3 12/42/3 27/26/3
f 56/28/2 10/43/2 28/29/2
f 10/31/8 18/25/8 29/27/8
f 9/33/9 17/22/9 30/24/9
f 1/34/9 14/13/9 23/15/9
f 2/35/4 16/10/4 51/12/4
f 7/37/8 15/7/8 24/9/8
f 5/39/1 15/1/1 63/3/1
f 19/38/8 24/9/8 18/25/8
f 20/17/9 23/15/9 17/22/9
f 44/19/15 46/18/15 20/17/15
f 23/15/5 21/14/5 11/41/5
f 24/9/3 22/8/3 12/42/3
f 58/6/2 19/5/2 10/43/2
f 25/20/9 30/24/9 16/10/9
f 28/32/8 29/27/8 13/44/8
f 59/30/2 28/29/2 8/46/2
f 29/27/3 27/26/3 6/48/3
f 30/24/5 26/23/5 4/49/5
f 47/21/11 25/20/11 2/35/11
f 65/51/10 41/79/10 31/52/10
f 53/54/2 40/68/2 33/55/2
f 52/57/2 39/75/2 35/58/2
f 46/18/1 73/81/1 69/60/1
f 34/62/1 37/76/1 45/63/1
f 31/65/4 36/72/4 57/66/4
f 50/59/2 35/58/2 40/68/2
f 38/61/1 69/60/1 68/69/1
f 61/71/10 34/82/10 38/61/10
f 36/72/4 33/83/4 60/73/4
f 49/74/2 32/89/2 39/75/2
f 37/76/1 32/90/1 49/77/1
f 45/63/1 49/77/1 3/78/1
f 3/78/2 49/74/2 52/57/2
f 11/41/2 50/59/2 53/54/2
f 1/34/1 43/64/1 45/63/1
f 21/14/2 52/57/2 50/59/2
f 26/23/2 53/54/2 42/56/2
f 41/79/10 47/21/10 48/50/10
f 46/18/9 44/19/9 72/80/9
f 48/36/4 51/12/4 36/72/4
f 47/21/9 74/95/9 72/80/9
f 34/82/10 43/16/10 46/18/10
f 51/12/4 42/11/4 33/83/4
f 57/66/4 60/73/4 8/84/4
f 5/86/12 61/71/12 64/70/12
f 27/26/10 12/42/10 62/87/10
f 6/88/4 54/67/4 57/66/4
f 22/8/16 64/70/16 62/87/16
f 27/26/14 65/51/14 54/53/14
f 40/68/2 59/30/2 60/47/2
f 39/75/2 58/6/2 56/28/2
f 61/40/1 63/3/1 37/76/1
f 35/58/2 56/28/2 59/30/2
f 32/89/2 55/4/2 58/6/2
f 63/3/1 55/2/1 32/90/1
f 68/69/10 69/60/10 67/91/10
f 66/92/10 67/91/10 71/93/10
f 69/60/10 73/81/10 72/80/10
f 67/91/10 72/80/10 74/95/10
f 65/51/4 70/94/4 71/93/4
f 64/70/3 68/69/3 66/92/3
f 65/51/3 62/87/3 66/92/3
f 41/79/4 71/93/4 74/95/4
l 75 76
l 78 77
l 77 79
l 79 80
l 80 81
l 81 82
l 82 83
l 83 84
l 84 85
l 85 86
l 86 87
l 87 88
l 88 89
l 89 90
l 90 91
l 91 92
l 92 93
l 93 94
l 94 95
l 95 96
l 96 97
l 97 98
l 98 99
l 99 100
l 100 101
l 101 102
l 102 103
l 103 104
l 104 105
l 105 106
l 106 107
l 107 108
l 108 78
