# Blender 4.1.1
# www.blender.org
mtllib playerModel.mtl
o Cube.001
v 0.893382 0.798402 0.821187
v 0.893382 -0.798402 0.821187
v -0.893382 0.798402 0.821187
v -0.893382 -0.798402 0.821187
v 0.893382 0.798402 -0.821187
v 0.893382 -0.798402 -0.821187
v -0.893382 0.798402 -0.821187
v -0.893382 -0.798402 -0.821187
v 0.530044 -0.914861 -0.940970
v -0.000000 -0.973360 -1.001139
v -0.530044 -0.914861 -0.940970
v 1.023696 -0.914861 0.487210
v 1.089154 -0.973360 -0.000000
v 1.023696 -0.914861 -0.487210
v 1.023696 0.473692 0.940970
v 1.089154 0.000000 1.001139
v 1.023696 -0.473692 0.940970
v -1.023696 -0.473692 -0.940970
v -1.089154 -0.000000 -1.001139
v -1.023696 0.473692 -0.940970
v -1.023696 0.473692 0.930195
v -1.089154 0.000000 1.001139
v -1.023696 -0.473692 0.940970
v 1.023696 0.473692 -0.940970
v 1.089154 -0.000000 -1.001139
v 1.023696 -0.473692 -0.940970
v -1.023696 0.914861 0.487210
v -1.089154 0.973360 0.000000
v -1.023696 0.914861 -0.487210
v 0.530044 0.914861 0.940970
v 0.000000 0.973360 1.001139
v -0.530044 0.914861 0.940970
v -1.023696 -0.914861 -0.487210
v -1.089154 -0.973360 0.000000
v -1.023696 -0.914861 0.487210
v -0.530044 0.914861 -0.940970
v -0.000000 0.973360 -1.001139
v 0.530044 0.914861 -0.940970
v 1.023696 0.914861 -0.487210
v 1.089154 0.973360 -0.000000
v 1.023696 0.914861 0.487210
v -0.530044 -0.914861 0.940970
v 0.000000 -0.973360 1.001139
v 0.530044 -0.914861 0.940970
v 0.564898 1.164054 0.519248
v 0.595244 1.248427 -0.000000
v 0.564898 1.164054 -0.519248
v 0.000000 1.248427 0.547141
v 0.000000 1.340527 -0.000000
v -0.000000 1.248427 -0.547141
v -0.564898 1.164054 0.519248
v -0.595244 1.248427 0.000000
v -0.564898 1.164054 -0.519248
v -1.302533 -0.504841 0.519248
v -1.396944 -0.000000 0.547141
v -1.302533 0.504841 0.519248
v -1.396944 -0.531960 0.000000
v -1.500000 0.000000 0.000000
v -1.396944 0.531960 0.000000
v -1.302533 -0.504841 -0.519248
v -1.396944 0.000000 -0.547141
v -1.302533 0.504841 -0.519248
v -0.564898 -0.504841 -1.197274
v -0.595244 -0.000000 -1.284056
v -0.564898 0.504841 -1.197274
v -0.000000 -0.531960 -1.284056
v -0.000000 0.000000 -1.378784
v -0.000000 0.531960 -1.284056
v 0.564898 -0.504841 -1.197274
v 0.595244 0.000000 -1.284056
v 0.564898 0.504841 -1.197274
v 0.564898 -1.164054 -0.519248
v 0.595244 -1.248427 -0.000000
v 0.564898 -1.164054 0.519248
v -0.000000 -1.248427 -0.547141
v -0.000000 -1.340527 0.000000
v 0.000000 -1.248427 0.547141
v -0.564898 -1.164054 -0.519248
v -0.595244 -1.248427 0.000000
v -0.564898 -1.164054 0.519248
v 0.564898 -0.432215 1.320276
v 0.595244 -0.095481 1.284056
v 0.564898 0.504841 1.186499
v 0.000000 -0.356779 1.567328
v 0.000000 0.000000 1.621216
v 0.000000 0.531960 1.273280
v -0.564898 -0.420675 1.379080
v -0.595244 -0.095481 1.284056
v -0.564898 0.504841 1.186499
v 1.302533 -0.504841 -0.519248
v 1.396944 -0.000000 -0.547141
v 1.302533 0.504841 -0.519248
v 1.396944 -0.531960 -0.000000
v 1.500000 0.000000 -0.000000
v 1.396944 0.531960 -0.000000
v 1.302533 -0.504841 0.519248
v 1.396944 0.000000 0.547141
v 1.302533 0.504841 0.519248
v 0.525000 -1.659473 1.508885
v -0.525000 -1.659473 1.508885
v 0.525000 -1.123263 0.767303
v 0.525000 -1.659473 -1.114871
v -0.525000 -1.659473 -1.114871
v 0.525000 -1.123263 -0.953067
v -0.525000 -1.123263 -0.953067
v -0.525000 -1.123263 0.767303
vn 0.1536 0.9744 0.1640
vn 0.1508 0.9743 -0.1671
vn -0.1536 0.9744 0.1640
vn -0.1508 0.9743 -0.1671
vn 0.4083 0.7707 0.4892
vn 0.4795 0.8613 0.1680
vn 0.4796 0.8613 -0.1679
vn 0.4511 0.7732 -0.4456
vn 0.1516 0.8454 -0.5121
vn -0.1516 0.8454 -0.5121
vn -0.4511 0.7732 -0.4456
vn -0.4796 0.8613 -0.1679
vn -0.4795 0.8613 0.1680
vn -0.4083 0.7707 0.4892
vn -0.1514 0.8454 0.5122
vn 0.1514 0.8454 0.5122
vn -0.9648 -0.1869 0.1852
vn -0.9647 0.1905 0.1817
vn -0.9648 -0.1869 -0.1852
vn -0.9647 0.1905 -0.1817
vn -0.7162 -0.5232 0.4619
vn -0.8139 -0.1827 0.5516
vn -0.8119 0.1946 0.5504
vn -0.7169 0.4628 0.5215
vn -0.8075 0.5629 0.1762
vn -0.8075 0.5629 -0.1762
vn -0.7172 0.4757 -0.5093
vn -0.8138 0.1825 -0.5517
vn -0.8139 -0.1827 -0.5516
vn -0.7162 -0.5232 -0.4619
vn -0.8075 -0.5630 -0.1761
vn -0.8075 -0.5630 0.1761
vn -0.1577 -0.1731 -0.9722
vn -0.1547 0.1764 -0.9721
vn 0.1577 -0.1731 -0.9722
vn 0.1547 0.1764 -0.9721
vn -0.4122 -0.5079 -0.7564
vn -0.4892 -0.1762 -0.8542
vn -0.4893 0.1761 -0.8542
vn -0.4560 0.4633 -0.7599
vn -0.1534 0.5331 -0.8320
vn 0.1534 0.5331 -0.8320
vn 0.4560 0.4633 -0.7599
vn 0.4893 0.1761 -0.8542
vn 0.4892 -0.1762 -0.8542
vn 0.4122 -0.5079 -0.7564
vn 0.1533 -0.5332 -0.8320
vn -0.1533 -0.5332 -0.8320
vn 0.1536 -0.9744 -0.1640
vn 0.1508 -0.9743 0.1671
vn -0.1536 -0.9744 -0.1640
vn -0.1508 -0.9743 0.1671
vn 0.4083 -0.7707 -0.4892
vn 0.4795 -0.8613 -0.1680
vn 0.4796 -0.8613 0.1679
vn 0.4511 -0.7732 0.4456
vn 0.1516 -0.8454 0.5121
vn -0.1516 -0.8454 0.5121
vn -0.4511 -0.7732 0.4456
vn -0.4796 -0.8613 0.1679
vn -0.4795 -0.8613 -0.1680
vn -0.4083 -0.7707 -0.4892
vn -0.1514 -0.8454 -0.5122
vn 0.1514 -0.8454 -0.5122
vn 0.4068 0.0614 0.9114
vn 0.4898 0.4772 0.7296
vn -0.3311 0.2361 0.9136
vn -0.4898 0.4772 0.7296
vn 0.4167 -0.5801 0.6999
vn 0.6383 0.0252 0.7693
vn 0.4661 0.1648 0.8693
vn 0.4428 0.4613 0.7689
vn 0.1542 0.5172 0.8419
vn -0.1542 0.5172 0.8419
vn -0.4600 0.4429 0.7696
vn -0.4661 0.1648 0.8693
vn -0.6921 0.1422 0.7076
vn -0.4070 -0.4554 0.7918
vn -0.1563 -0.6614 0.7336
vn 0.1557 -0.6173 0.7712
vn 0.9648 -0.1869 -0.1852
vn 0.9647 0.1905 -0.1817
vn 0.9648 -0.1869 0.1852
vn 0.9647 0.1905 0.1817
vn 0.7162 -0.5232 -0.4619
vn 0.8139 -0.1827 -0.5516
vn 0.8138 0.1825 -0.5517
vn 0.7172 0.4757 -0.5093
vn 0.8075 0.5629 -0.1762
vn 0.8075 0.5629 0.1762
vn 0.7172 0.4757 0.5093
vn 0.8138 0.1825 0.5517
vn 0.8139 -0.1827 0.5516
vn 0.7162 -0.5232 0.4619
vn 0.8075 -0.5630 0.1761
vn 0.8075 -0.5630 -0.1761
vn -0.0000 -1.0000 -0.0000
vn -0.0000 0.8104 0.5859
vn 1.0000 -0.0000 -0.0000
vn -0.0000 0.2889 -0.9574
vn -0.0000 1.0000 -0.0000
vn -1.0000 -0.0000 -0.0000
vn 0.1508 0.9743 0.1671
vn 0.1536 0.9744 -0.1640
vn -0.1508 0.9743 0.1671
vn -0.1536 0.9744 -0.1640
vn 0.4511 0.7732 0.4456
vn 0.4796 0.8613 0.1679
vn 0.4795 0.8613 -0.1680
vn 0.4083 0.7707 -0.4892
vn 0.1514 0.8454 -0.5122
vn -0.1514 0.8454 -0.5122
vn -0.4083 0.7707 -0.4892
vn -0.4795 0.8613 -0.1680
vn -0.4796 0.8613 0.1679
vn -0.4511 0.7732 0.4456
vn -0.1516 0.8454 0.5121
vn 0.1516 0.8454 0.5121
vn -0.9647 -0.1905 0.1817
vn -0.9648 0.1869 0.1852
vn -0.9647 -0.1905 -0.1817
vn -0.9648 0.1869 -0.1852
vn -0.7172 -0.4757 0.5093
vn -0.8138 -0.1825 0.5517
vn -0.8072 0.1820 0.5615
vn -0.7162 0.5232 0.4619
vn -0.8075 0.5630 0.1761
vn -0.8075 0.5630 -0.1761
vn -0.7162 0.5232 -0.4619
vn -0.8139 0.1827 -0.5516
vn -0.8138 -0.1825 -0.5517
vn -0.7172 -0.4757 -0.5093
vn -0.8075 -0.5629 -0.1762
vn -0.8075 -0.5629 0.1762
vn -0.1547 -0.1764 -0.9721
vn -0.1577 0.1731 -0.9722
vn 0.1547 -0.1764 -0.9721
vn 0.1577 0.1731 -0.9722
vn -0.4560 -0.4633 -0.7599
vn -0.4893 -0.1761 -0.8542
vn -0.4892 0.1762 -0.8542
vn -0.4122 0.5079 -0.7564
vn -0.1533 0.5332 -0.8320
vn 0.1533 0.5332 -0.8320
vn 0.4122 0.5079 -0.7564
vn 0.4892 0.1762 -0.8542
vn 0.4893 -0.1761 -0.8542
vn 0.4560 -0.4633 -0.7599
vn 0.1534 -0.5331 -0.8320
vn -0.1534 -0.5331 -0.8320
vn 0.1508 -0.9743 -0.1671
vn 0.1536 -0.9744 0.1640
vn -0.1508 -0.9743 -0.1671
vn -0.1536 -0.9744 0.1640
vn 0.4511 -0.7732 -0.4456
vn 0.4796 -0.8613 -0.1679
vn 0.4795 -0.8613 0.1680
vn 0.4083 -0.7707 0.4892
vn 0.1514 -0.8454 0.5122
vn -0.1514 -0.8454 0.5122
vn -0.4083 -0.7707 0.4892
vn -0.4795 -0.8613 0.1680
vn -0.4796 -0.8613 -0.1679
vn -0.4511 -0.7732 -0.4456
vn -0.1516 -0.8454 -0.5121
vn 0.1516 -0.8454 -0.5121
vn 0.4725 -0.1316 0.8714
vn 0.1575 0.1662 0.9734
vn -0.4725 -0.1316 0.8714
vn -0.1575 0.1662 0.9734
vn 0.5356 -0.4730 0.6996
vn 0.5148 -0.1777 0.8387
vn 0.4738 0.1751 0.8631
vn 0.4109 0.4938 0.7663
vn 0.1527 0.5187 0.8412
vn -0.1527 0.5187 0.8412
vn -0.4109 0.4938 0.7663
vn -0.4884 0.1949 0.8506
vn -0.5148 -0.1777 0.8387
vn -0.5234 -0.5856 0.6190
vn -0.1666 -0.6669 0.7263
vn 0.2258 -0.6589 0.7175
vn 0.9647 -0.1905 -0.1817
vn 0.9648 0.1869 -0.1852
vn 0.9647 -0.1905 0.1817
vn 0.9648 0.1869 0.1852
vn 0.7172 -0.4757 -0.5093
vn 0.8138 -0.1825 -0.5517
vn 0.8139 0.1827 -0.5516
vn 0.7162 0.5232 -0.4619
vn 0.8075 0.5630 -0.1761
vn 0.8075 0.5630 0.1761
vn 0.7162 0.5232 0.4619
vn 0.8139 0.1827 0.5516
vn 0.8138 -0.1825 0.5517
vn 0.7172 -0.4757 0.5093
vn 0.8075 -0.5629 0.1762
vn 0.8075 -0.5629 -0.1762
vt 0.084843 0.676688
vt 0.000000 0.733785
vt 0.005469 0.672093
vt 0.079653 0.808420
vt 0.083880 0.735166
vt 0.492599 0.677045
vt 0.425352 0.629139
vt 0.500619 0.615633
vt 0.414709 0.760543
vt 0.413674 0.687829
vt 0.523116 0.132963
vt 0.600771 0.139096
vt 0.548767 0.183106
vt 0.548767 0.087438
vt 0.633483 0.088568
vt 0.149756 0.820343
vt 0.159377 0.752946
vt 0.133780 0.873846
vt 0.080192 0.883153
vt 0.000000 0.810901
vt 0.489404 0.754096
vt 0.421677 0.834887
vt 0.376306 0.831427
vt 0.358871 0.779930
vt 0.353388 0.713641
vt 0.331181 0.133436
vt 0.241087 0.150989
vt 0.274449 0.088398
vt 0.198111 0.114644
vt 0.205992 0.061204
vt 0.288863 0.025175
vt 0.213894 0.000000
vt 0.633483 0.203924
vt 0.575078 0.247174
vt 0.058266 0.257339
vt 0.165459 0.294711
vt 0.100388 0.315125
vt 0.183994 0.199252
vt 0.117557 0.235111
vt 0.331181 0.402865
vt 0.392658 0.453578
vt 0.335585 0.479919
vt 0.277134 0.293036
vt 0.215700 0.333932
vt 0.811827 0.493329
vt 0.854115 0.545430
vt 0.789738 0.542973
vt 0.027486 0.189894
vt 0.146422 0.136365
vt 0.080331 0.163681
vt 0.232869 0.253918
vt 0.328480 0.238986
vt 0.331181 0.820183
vt 0.365777 0.874800
vt 0.391337 0.379153
vt 0.474394 0.312301
vt 0.466093 0.370187
vt 0.461725 0.440687
vt 0.461298 0.497246
vt 0.415488 0.524254
vt 0.364079 0.554563
vt 0.823133 0.603359
vt 0.755603 0.596830
vt 0.535366 0.453578
vt 0.621383 0.402865
vt 0.605848 0.479919
vt 0.548868 0.316750
vt 0.546440 0.379154
vt 0.500619 0.761538
vt 0.569956 0.850232
vt 0.508390 0.839757
vt 0.747639 0.291757
vt 0.736883 0.197263
vt 0.788718 0.218882
vt 0.510994 0.524254
vt 0.425027 0.902302
vt 0.500619 0.908167
vt 0.695390 0.265221
vt 0.677059 0.164324
vt 0.706063 0.118313
vt 0.754459 0.125893
vt 0.804252 0.140287
vt 0.099078 0.672093
vt 0.137920 0.610354
vt 0.169181 0.663087
vt 0.192542 0.598768
vt 0.231233 0.628810
vt 0.558973 0.924026
vt 0.500619 0.920229
vt 0.574795 0.554563
vt 0.243151 0.798572
vt 0.178727 0.868532
vt 0.188542 0.785454
vt -0.000000 0.979341
vt 0.071312 0.891525
vt 0.067661 0.971670
vt 0.913192 0.680538
vt 0.971675 0.626400
vt 0.974603 0.700778
vt 0.625735 0.518789
vt 0.731501 0.503340
vt 0.692441 0.563510
vt 0.314607 0.753000
vt 0.271057 0.730574
vt 0.310888 0.807262
vt 0.236571 0.877924
vt 0.314607 0.952168
vt 0.310240 0.882024
vt 0.818660 0.132889
vt 0.862984 0.203608
vt 0.805189 0.183272
vt 0.676909 0.346678
vt 0.673092 0.453676
vt 0.621383 0.395049
vt 0.776218 0.452578
vt 0.415598 0.615633
vt 0.466277 0.578447
vt 0.530759 0.615633
vt 0.974499 0.700778
vt 0.913192 0.788008
vt 0.917276 0.712827
vt 0.387385 0.216627
vt 0.361118 0.311114
vt 0.338894 0.226662
vt 0.500535 0.275901
vt 0.409861 0.312301
vt 0.811045 0.224005
vt 0.853429 0.299107
vt 0.804252 0.300271
vt 0.134522 0.000817
vt 0.048672 0.094792
vt 0.037076 0.000000
vt 0.860500 0.037608
vt 0.864042 0.129976
vt 0.331181 0.141950
vt 0.393846 0.135190
vt 0.478483 0.205245
vt 0.466625 0.132350
vt 0.075929 0.893037
vt 0.145172 0.971411
vt 0.071312 0.966580
vt 0.132519 0.066066
vt 0.000000 0.101919
vt 0.776218 0.452578
vt 0.861140 0.477687
vt 0.725775 0.397391
vt 0.854405 0.389282
vt 0.934422 0.127452
vt 0.131719 0.539515
vt 0.063788 0.454073
vt 0.140650 0.460325
vt -0.000000 0.534007
vt 0.058363 0.537788
vt 0.156184 0.386979
vt 0.420049 0.000000
vt 0.478030 0.063254
vt 0.401036 0.060293
vt 0.206163 0.546111
vt 0.014328 0.605186
vt 0.069964 0.614479
vt 0.736883 0.057217
vt 0.677059 0.070600
vt 0.695390 0.000000
vt 0.500083 0.006139
vt 0.333680 0.073485
vt 0.231233 0.357534
vt 0.229118 0.402987
vt 0.220530 0.472740
vt 0.621383 1.000000
vt 0.767287 0.603358
vt 0.767287 1.000000
vt 0.767287 0.863432
vt 0.913192 0.975540
vt 0.767287 0.975540
vt 0.314607 0.730574
vt 0.231233 0.446040
vt 0.314607 0.333932
vt 0.500619 0.761538
vt 0.587507 0.615633
vt 0.587507 0.761538
vt 0.913192 0.863432
vt 0.767287 0.603358
vt 0.913192 0.603358
vt 0.861140 0.491251
vt 0.944514 0.206717
vt 0.944514 0.603359
vt 0.575078 0.036100
vt 0.005898 0.891525
vt 0.491956 0.834894
vt 0.291325 0.198093
vt 0.406159 0.316750
vt 0.620075 0.335741
vt 0.566035 0.776640
vt 0.633483 0.225077
vt -0.000000 0.903935
vt 0.913192 0.603359
vt 0.247115 0.953006
vt 0.974499 0.769158
vt 0.853429 0.203608
vt 0.804252 0.086527
vt 0.145172 0.891525
vt 0.820663 0.312301
vt 0.934422 -0.000000
vt 0.001856 0.454522
vt 0.084143 0.377059
vt 0.633483 0.018292
vt 0.182255 0.333932
vt 0.621383 0.603358
vt 0.231233 0.706113
vt 0.500619 0.615633
vt 0.861140 0.231177
s 0
usemtl Material.001
f 45/1/1 49/2/1 48/3/1
f 47/4/2 49/2/2 46/5/2
f 49/6/3 51/7/3 48/8/3
f 49/6/4 53/9/4 52/10/4
f 1/11/5 45/12/5 30/13/5
f 41/14/6 46/15/6 45/12/6
f 39/16/7 46/5/7 40/17/7
f 5/18/8 47/4/8 39/16/8
f 38/19/9 50/20/9 47/4/9
f 50/21/10 36/22/10 53/9/10
f 53/9/11 7/23/11 29/24/11
f 52/10/12 29/24/12 28/25/12
f 52/26/13 27/27/13 51/28/13
f 51/28/14 3/29/14 32/30/14
f 48/31/15 32/30/15 31/32/15
f 30/13/16 48/33/16 31/34/16
f 54/35/17 58/36/17 57/37/17
f 56/38/18 58/36/18 55/39/18
f 58/40/19 60/41/19 57/42/19
f 58/36/20 62/43/20 61/44/20
f 4/45/21 54/46/21 35/47/21
f 23/48/22 55/39/22 54/35/22
f 21/49/23 55/39/23 22/50/23
f 3/29/24 56/38/24 21/49/24
f 27/27/25 59/51/25 56/38/25
f 59/51/26 29/52/26 62/43/26
f 62/53/27 7/23/27 20/54/27
f 61/55/28 20/56/28 19/57/28
f 61/55/29 18/58/29 60/41/29
f 60/41/30 8/59/30 33/60/30
f 57/42/31 33/60/31 34/61/31
f 35/47/32 57/62/32 34/63/32
f 63/64/33 67/65/33 66/66/33
f 65/67/34 67/65/34 64/68/34
f 67/69/35 69/70/35 66/71/35
f 67/72/36 71/73/36 70/74/36
f 8/59/37 63/64/37 11/75/37
f 18/58/38 64/68/38 63/64/38
f 20/56/39 64/68/39 19/57/39
f 7/23/40 65/76/40 20/54/40
f 36/22/41 68/77/41 65/76/41
f 68/78/42 38/79/42 71/73/42
f 71/73/43 5/80/43 24/81/43
f 70/74/44 24/81/44 25/82/44
f 70/83/45 26/84/45 69/85/45
f 69/85/46 6/86/46 9/87/46
f 66/71/47 9/88/47 10/89/47
f 11/75/48 66/66/48 10/90/48
f 72/91/49 76/92/49 75/93/49
f 74/94/50 76/95/50 73/96/50
f 76/97/51 78/98/51 75/99/51
f 76/100/52 80/101/52 79/102/52
f 6/103/53 72/91/53 9/104/53
f 14/105/54 73/106/54 72/91/54
f 12/107/55 73/106/55 13/108/55
f 2/109/56 74/110/56 12/111/56
f 44/112/57 77/113/57 74/114/57
f 77/113/58 42/115/58 80/101/58
f 80/101/59 4/45/59 35/47/59
f 79/102/60 35/47/60 34/63/60
f 79/116/61 33/60/61 78/117/61
f 78/117/62 8/59/62 11/75/62
f 75/118/63 11/75/63 10/90/63
f 9/119/64 75/120/64 10/121/64
f 82/122/65 84/123/65 81/124/65
f 82/122/66 86/125/66 85/126/66
f 84/127/67 88/128/67 87/129/67
f 86/130/68 88/131/68 85/132/68
f 2/109/69 81/133/69 44/134/69
f 17/135/70 82/122/70 81/124/70
f 16/136/71 83/137/71 82/122/71
f 1/11/72 83/137/72 15/138/72
f 30/139/73 86/140/73 83/141/73
f 86/130/74 32/30/74 89/142/74
f 89/142/75 3/29/75 21/49/75
f 89/142/76 22/50/76 88/131/76
f 88/131/77 23/48/77 87/143/77
f 42/144/78 23/145/78 4/45/78
f 43/146/79 87/147/79 42/144/79
f 81/133/80 43/148/80 44/134/80
f 90/149/81 94/150/81 93/151/81
f 92/152/82 94/150/82 91/153/82
f 94/150/83 96/154/83 93/151/83
f 94/155/84 98/156/84 97/157/84
f 6/86/85 90/149/85 14/158/85
f 26/84/86 91/153/86 90/149/86
f 24/159/87 91/153/87 25/160/87
f 5/80/88 92/161/88 24/81/88
f 39/162/89 95/163/89 92/161/89
f 95/164/90 41/14/90 98/156/90
f 98/156/91 1/11/91 15/138/91
f 97/157/92 15/138/92 16/136/92
f 97/157/93 17/135/93 96/165/93
f 96/154/94 2/166/94 12/167/94
f 93/151/95 12/167/95 13/168/95
f 14/158/96 93/151/96 13/168/96
f 100/169/97 102/170/97 99/171/97
f 101/172/98 100/173/98 99/174/98
f 102/175/99 101/176/99 99/177/99
f 105/178/100 102/179/100 103/180/100
f 106/181/101 104/182/101 105/183/101
f 106/184/102 103/185/102 100/186/102
f 45/1/103 46/5/103 49/2/103
f 47/4/104 50/20/104 49/2/104
f 49/6/105 52/10/105 51/7/105
f 49/6/106 50/21/106 53/9/106
f 1/11/107 41/14/107 45/12/107
f 41/14/108 40/187/108 46/15/108
f 39/16/109 47/4/109 46/5/109
f 5/18/110 38/19/110 47/4/110
f 38/19/111 37/188/111 50/20/111
f 50/21/112 37/189/112 36/22/112
f 53/9/113 36/22/113 7/23/113
f 52/10/114 53/9/114 29/24/114
f 52/26/115 28/190/115 27/27/115
f 51/28/116 27/27/116 3/29/116
f 48/31/117 51/28/117 32/30/117
f 30/13/118 45/12/118 48/33/118
f 54/35/119 55/39/119 58/36/119
f 56/38/120 59/51/120 58/36/120
f 58/40/121 61/55/121 60/41/121
f 58/36/122 59/51/122 62/43/122
f 4/45/123 23/145/123 54/46/123
f 23/48/124 22/50/124 55/39/124
f 21/49/125 56/38/125 55/39/125
f 3/29/126 27/27/126 56/38/126
f 27/27/127 28/190/127 59/51/127
f 59/51/128 28/190/128 29/52/128
f 62/53/129 29/24/129 7/23/129
f 61/55/130 62/191/130 20/56/130
f 61/55/131 19/57/131 18/58/131
f 60/41/132 18/58/132 8/59/132
f 57/42/133 60/41/133 33/60/133
f 35/47/134 54/46/134 57/62/134
f 63/64/135 64/68/135 67/65/135
f 65/67/136 68/192/136 67/65/136
f 67/69/137 70/193/137 69/70/137
f 67/72/138 68/78/138 71/73/138
f 8/59/139 18/58/139 63/64/139
f 18/58/140 19/57/140 64/68/140
f 20/56/141 65/67/141 64/68/141
f 7/23/142 36/22/142 65/76/142
f 36/22/143 37/189/143 68/77/143
f 68/78/144 37/194/144 38/79/144
f 71/73/145 38/79/145 5/80/145
f 70/74/146 71/73/146 24/81/146
f 70/83/147 25/160/147 26/84/147
f 69/85/148 26/84/148 6/86/148
f 66/71/149 69/70/149 9/88/149
f 11/75/150 63/64/150 66/66/150
f 72/91/151 73/106/151 76/92/151
f 74/94/152 77/195/152 76/95/152
f 76/97/153 79/196/153 78/98/153
f 76/100/154 77/113/154 80/101/154
f 6/103/155 14/105/155 72/91/155
f 14/105/156 13/108/156 73/106/156
f 12/107/157 74/197/157 73/106/157
f 2/109/158 44/134/158 74/110/158
f 44/112/159 43/146/159 77/113/159
f 77/113/160 43/146/160 42/115/160
f 80/101/161 42/115/161 4/45/161
f 79/102/162 80/101/162 35/47/162
f 79/116/163 34/61/163 33/60/163
f 78/117/164 33/60/164 8/59/164
f 75/118/165 78/117/165 11/75/165
f 9/119/166 72/198/166 75/120/166
f 82/122/167 85/126/167 84/123/167
f 82/122/168 83/137/168 86/125/168
f 84/127/169 85/199/169 88/128/169
f 86/130/170 89/142/170 88/131/170
f 2/109/171 17/200/171 81/133/171
f 17/135/172 16/136/172 82/122/172
f 16/136/173 15/138/173 83/137/173
f 1/11/174 30/13/174 83/137/174
f 30/139/175 31/201/175 86/140/175
f 86/130/176 31/32/176 32/30/176
f 89/142/177 32/30/177 3/29/177
f 89/142/178 21/49/178 22/50/178
f 88/131/179 22/50/179 23/48/179
f 42/144/180 87/147/180 23/145/180
f 43/146/181 84/202/181 87/147/181
f 81/133/182 84/203/182 43/148/182
f 90/149/183 91/153/183 94/150/183
f 92/152/184 95/204/184 94/150/184
f 94/150/185 97/205/185 96/154/185
f 94/155/186 95/164/186 98/156/186
f 6/86/187 26/84/187 90/149/187
f 26/84/188 25/160/188 91/153/188
f 24/159/189 92/152/189 91/153/189
f 5/80/190 39/162/190 92/161/190
f 39/162/191 40/206/191 95/163/191
f 95/164/192 40/187/192 41/14/192
f 98/156/193 41/14/193 1/11/193
f 97/157/194 98/156/194 15/138/194
f 97/157/195 16/136/195 17/135/195
f 96/154/196 17/207/196 2/166/196
f 93/151/197 96/154/197 12/167/197
f 14/158/198 90/149/198 93/151/198
f 100/169/97 103/208/97 102/170/97
f 101/172/98 106/181/98 100/173/98
f 102/175/99 104/209/99 101/176/99
f 105/178/100 104/210/100 102/179/100
f 106/181/101 101/172/101 104/182/101
f 106/184/102 105/211/102 103/185/102
