# Blender 4.1.1
# www.blender.org
mtllib moveEnemyModel.mtl
o Cube.001
v -0.851095 -1.129441 0.721877
v -1.129441 0.851095 0.721877
v 1.129441 -0.851095 0.721877
v 0.851095 1.129441 0.721877
v -0.851095 -1.129441 -0.721877
v -1.129441 0.851095 -0.721877
v 1.129441 -0.851095 -0.721877
v 0.851095 1.129441 -0.721877
v -0.990268 -0.139173 0.721877
v 0.990268 0.139173 -0.721877
v 0.990268 0.139173 0.721877
v -0.990268 -0.139173 -0.721877
v -0.139173 0.990268 -0.721877
v 0.139173 -0.990268 0.721877
v 0.139173 -0.990268 -0.721877
v -0.139173 0.990268 0.721877
v -0.000000 0.000000 0.721877
v 0.000000 -0.000000 -0.721877
v 1.059855 -0.355961 -0.721877
v -0.920681 -0.634307 0.721877
v 1.059855 -0.355961 0.721877
v -0.920681 -0.634307 -0.721877
v 0.069587 -0.495134 0.721877
v 0.069587 -0.495134 -0.721877
v -1.059855 0.355961 0.721877
v 0.920681 0.634307 0.721877
v -1.059855 0.355961 -0.721877
v 0.920681 0.634307 -0.721877
v -0.069587 0.495134 -0.721877
v -0.069587 0.495134 0.721877
v 0.355961 1.059855 -0.721877
v 0.634307 -0.920681 0.721877
v 0.495134 0.069587 0.721877
v 0.634307 -0.920682 -0.721877
v 0.355961 1.059855 0.721877
v 0.495134 0.069587 -0.721877
v 0.564721 -0.425548 -0.721877
v 0.564721 -0.425547 0.721877
v 0.425547 0.564721 -0.721877
v 0.425547 0.564721 0.721877
v -0.359584 -1.060364 -0.721877
v -0.637931 0.920172 0.721877
v -0.498757 -0.070096 -0.721877
v -0.637931 0.920172 -0.721877
v -0.359584 -1.060364 0.721877
v -0.498757 -0.070096 0.721877
v -0.429171 -0.565230 0.721877
v -0.429171 -0.565230 -0.721877
v -0.568344 0.425038 0.721877
v -0.568344 0.425038 -0.721877
v 0.564721 -0.425547 1.278123
v 0.634307 -0.920681 1.278123
v 1.129441 -0.851095 1.278123
v 1.059855 -0.355961 1.278123
v -0.429171 -0.565230 1.278123
v -0.359584 -1.060364 1.278123
v 0.139173 -0.990268 1.278123
v 0.069587 -0.495134 1.278123
v -0.637931 0.920172 1.278123
v -0.568344 0.425038 1.278123
v -0.069587 0.495134 1.278123
v -0.139173 0.990268 1.278123
v 0.355961 1.059855 1.278123
v 0.425547 0.564721 1.278123
v 0.920681 0.634307 1.278123
v 0.851095 1.129441 1.278123
v -0.139173 0.990268 1.278123
v -0.069587 0.495134 1.278123
v 0.425547 0.564721 1.278123
v 0.355961 1.059855 1.278123
v 0.069587 -0.495134 1.278123
v 0.139173 -0.990268 1.278123
v 0.634307 -0.920681 1.278123
v 0.564721 -0.425547 1.278123
v -1.129441 0.851095 1.278123
v -1.059855 0.355961 1.278123
v -0.568344 0.425038 1.278123
v -0.637931 0.920172 1.278123
v -0.920681 -0.634307 1.278123
v -0.851095 -1.129441 1.278123
v -0.359584 -1.060364 1.278123
v -0.429171 -0.565230 1.278123
vn 0.1392 -0.9903 -0.0000
vn 0.9903 0.1392 -0.0000
vn -0.0000 -0.0000 -1.0000
vn -0.1392 0.9903 -0.0000
vn -0.9903 -0.1392 -0.0000
vn -0.0000 -0.0000 1.0000
vt 0.634024 0.761250
vt 0.433959 0.801364
vt 0.442503 0.746283
vt 0.344028 0.966363
vt 0.370861 0.795538
vt 0.516865 0.266145
vt 0.437005 0.332769
vt 0.442223 0.259275
vt 0.199874 0.717973
vt 0.016002 0.761251
vt 0.019591 0.711827
vt 0.506583 0.339435
vt 0.416943 0.543307
vt 0.362541 0.327388
vt 0.279666 0.534740
vt 0.293279 0.324114
vt 0.320760 0.729484
vt 0.250518 0.786342
vt 0.258072 0.727194
vt 0.367446 0.254509
vt 0.294573 0.251809
vt 0.312821 0.789479
vt 0.234450 0.953170
vt 0.372744 0.102214
vt 0.295915 0.176964
vt 0.296665 0.101459
vt 0.337613 0.603798
vt 0.265706 0.665399
vt 0.272165 0.602151
vt 0.207637 0.594303
vt 0.020443 0.661117
vt 0.018743 0.609354
vt 0.530525 0.106350
vt 0.447215 0.182198
vt 0.450434 0.103731
vt 0.651414 0.657144
vt 0.453701 0.685417
vt 0.466698 0.622376
vt 0.370821 0.178823
vt 0.404886 0.607933
vt 0.329089 0.667809
vt 0.345626 0.538565
vt 0.382276 0.733340
vt 0.293455 0.959927
vt 0.221439 0.176231
vt 0.221260 0.101294
vt 0.184898 0.949628
vt 0.196417 0.782389
vt 0.220160 0.321686
vt 0.221253 0.250293
vt 0.206772 0.535800
vt 0.296675 0.025334
vt 0.220988 0.025606
vt 0.392811 0.671943
vt 0.451201 0.024151
vt 0.373049 0.024845
vt 0.532243 0.023497
vt 0.204652 0.656630
vt 0.641321 0.709241
vt 0.663951 0.607162
vt 0.481025 0.553941
vt 0.016002 0.543771
vt 0.525199 0.187445
vt 0.407970 0.769838
vt 0.405628 0.768747
vt 0.407190 0.768636
vt 0.407887 0.770825
vt 0.429952 0.647335
vt 0.429125 0.647446
vt 0.429574 0.646762
vt 0.429431 0.648220
vt 0.238274 0.629626
vt 0.237977 0.629322
vt 0.237729 0.628353
vt 0.238218 0.629680
vt 0.226623 0.752657
vt 0.224695 0.753641
vt 0.226957 0.751318
vt 0.225845 0.753717
vt 0.232308 0.691432
vt 0.231743 0.691590
vt 0.232122 0.690301
vt 0.231992 0.691984
vt 0.417506 0.709672
vt 0.417020 0.709388
vt 0.417276 0.709142
vt 0.417426 0.710259
vt 0.243401 0.567425
vt 0.240989 0.566086
vt 0.240509 0.564754
vt 0.242006 0.567113
vt 0.444000 0.583185
vt 0.441590 0.583090
vt 0.442661 0.582095
vt 0.441467 0.584222
vt 0.625003 0.827412
vt 0.404682 0.976503
s 0
usemtl Material.001
f 34/1/1 3/2/1 32/3/1
f 3/2/2 19/4/2 21/5/2
f 41/6/3 22/7/3 48/8/3
f 35/9/4 8/10/4 31/11/4
f 5/12/5 20/13/5 22/7/5
f 12/14/5 25/15/5 27/16/5
f 33/17/6 26/18/6 40/19/6
f 43/20/3 27/16/3 50/21/3
f 11/22/2 28/23/2 26/18/2
f 36/24/3 29/25/3 39/26/3
f 46/27/6 30/28/6 49/29/6
f 42/30/4 13/31/4 44/32/4
f 34/33/3 24/34/3 37/35/3
f 41/36/1 14/37/1 45/38/1
f 37/35/3 18/39/3 36/24/3
f 47/40/6 17/41/6 46/27/6
f 22/7/5 9/42/5 12/14/5
f 38/43/6 11/22/6 33/17/6
f 48/8/3 12/14/3 43/20/3
f 21/5/2 10/44/2 11/22/2
f 39/26/3 13/45/3 31/46/3
f 26/18/2 8/47/2 4/48/2
f 50/21/3 6/49/3 44/50/3
f 27/16/5 2/51/5 6/49/5
f 28/52/3 31/46/3 8/53/3
f 23/54/6 33/17/6 17/41/6
f 19/55/3 36/24/3 10/56/3
f 7/57/3 37/35/3 19/55/3
f 10/56/3 39/26/3 28/52/3
f 17/41/6 40/19/6 30/28/6
f 16/58/4 31/11/4 13/31/4
f 15/59/1 32/3/1 14/37/1
f 29/25/3 44/50/3 13/45/3
f 24/34/3 43/20/3 18/39/3
f 20/13/6 46/27/6 9/42/6
f 5/60/1 45/38/1 1/61/1
f 2/51/4 44/32/4 6/62/4
f 9/42/6 49/29/6 25/15/6
f 18/39/3 50/21/3 29/25/3
f 15/63/3 48/8/3 24/34/3
f 52/64/6 54/65/6 51/66/6
f 52/64/5 38/43/5 32/3/5
f 53/67/1 32/3/1 3/2/1
f 54/65/2 3/2/2 21/5/2
f 51/66/4 21/5/4 38/43/4
f 56/68/6 58/69/6 55/70/6
f 56/68/5 47/40/5 45/38/5
f 57/71/1 45/38/1 14/37/1
f 58/69/2 14/37/2 23/54/2
f 55/70/4 23/54/4 47/40/4
f 60/72/6 62/73/6 59/74/6
f 60/72/5 42/30/5 49/29/5
f 61/75/1 49/29/1 30/28/1
f 62/73/2 30/28/2 16/58/2
f 59/74/4 16/58/4 42/30/4
f 64/76/6 66/77/6 63/78/6
f 64/76/5 35/9/5 40/19/5
f 65/79/1 40/19/1 26/18/1
f 66/77/2 26/18/2 4/48/2
f 63/78/4 4/48/4 35/9/4
f 68/80/6 70/81/6 67/82/6
f 68/80/5 16/58/5 30/28/5
f 69/83/1 30/28/1 40/19/1
f 70/81/2 40/19/2 35/9/2
f 67/82/4 35/9/4 16/58/4
f 72/84/6 74/85/6 71/86/6
f 72/84/5 23/54/5 14/37/5
f 73/87/1 14/37/1 32/3/1
f 74/85/2 32/3/2 38/43/2
f 71/86/4 38/43/4 23/54/4
f 76/88/6 78/89/6 75/90/6
f 76/88/5 2/51/5 25/15/5
f 77/91/1 25/15/1 49/29/1
f 78/89/2 49/29/2 42/30/2
f 75/90/4 42/30/4 2/51/4
f 80/92/6 82/93/6 79/94/6
f 80/92/5 20/13/5 1/61/5
f 81/95/1 1/61/1 45/38/1
f 82/93/2 45/38/2 47/40/2
f 79/94/4 47/40/4 20/13/4
f 34/1/1 7/96/1 3/2/1
f 3/2/2 7/97/2 19/4/2
f 41/6/3 5/12/3 22/7/3
f 35/9/4 4/48/4 8/10/4
f 5/12/5 1/61/5 20/13/5
f 12/14/5 9/42/5 25/15/5
f 33/17/6 11/22/6 26/18/6
f 43/20/3 12/14/3 27/16/3
f 11/22/2 10/44/2 28/23/2
f 36/24/3 18/39/3 29/25/3
f 46/27/6 17/41/6 30/28/6
f 42/30/4 16/58/4 13/31/4
f 34/33/3 15/63/3 24/34/3
f 41/36/1 15/59/1 14/37/1
f 37/35/3 24/34/3 18/39/3
f 47/40/6 23/54/6 17/41/6
f 22/7/5 20/13/5 9/42/5
f 38/43/6 21/5/6 11/22/6
f 48/8/3 22/7/3 12/14/3
f 21/5/2 19/4/2 10/44/2
f 39/26/3 29/25/3 13/45/3
f 26/18/2 28/23/2 8/47/2
f 50/21/3 27/16/3 6/49/3
f 27/16/5 25/15/5 2/51/5
f 28/52/3 39/26/3 31/46/3
f 23/54/6 38/43/6 33/17/6
f 19/55/3 37/35/3 36/24/3
f 7/57/3 34/33/3 37/35/3
f 10/56/3 36/24/3 39/26/3
f 17/41/6 33/17/6 40/19/6
f 16/58/4 35/9/4 31/11/4
f 15/59/1 34/1/1 32/3/1
f 29/25/3 50/21/3 44/50/3
f 24/34/3 48/8/3 43/20/3
f 20/13/6 47/40/6 46/27/6
f 5/60/1 41/36/1 45/38/1
f 2/51/4 42/30/4 44/32/4
f 9/42/6 46/27/6 49/29/6
f 18/39/3 43/20/3 50/21/3
f 15/63/3 41/6/3 48/8/3
f 52/64/6 53/67/6 54/65/6
f 52/64/5 51/66/5 38/43/5
f 53/67/1 52/64/1 32/3/1
f 54/65/2 53/67/2 3/2/2
f 51/66/4 54/65/4 21/5/4
f 56/68/6 57/71/6 58/69/6
f 56/68/5 55/70/5 47/40/5
f 57/71/1 56/68/1 45/38/1
f 58/69/2 57/71/2 14/37/2
f 55/70/4 58/69/4 23/54/4
f 60/72/6 61/75/6 62/73/6
f 60/72/5 59/74/5 42/30/5
f 61/75/1 60/72/1 49/29/1
f 62/73/2 61/75/2 30/28/2
f 59/74/4 62/73/4 16/58/4
f 64/76/6 65/79/6 66/77/6
f 64/76/5 63/78/5 35/9/5
f 65/79/1 64/76/1 40/19/1
f 66/77/2 65/79/2 26/18/2
f 63/78/4 66/77/4 4/48/4
f 68/80/6 69/83/6 70/81/6
f 68/80/5 67/82/5 16/58/5
f 69/83/1 68/80/1 30/28/1
f 70/81/2 69/83/2 40/19/2
f 67/82/4 70/81/4 35/9/4
f 72/84/6 73/87/6 74/85/6
f 72/84/5 71/86/5 23/54/5
f 73/87/1 72/84/1 14/37/1
f 74/85/2 73/87/2 32/3/2
f 71/86/4 74/85/4 38/43/4
f 76/88/6 77/91/6 78/89/6
f 76/88/5 75/90/5 2/51/5
f 77/91/1 76/88/1 25/15/1
f 78/89/2 77/91/2 49/29/2
f 75/90/4 78/89/4 42/30/4
f 80/92/6 81/95/6 82/93/6
f 80/92/5 79/94/5 20/13/5
f 81/95/1 80/92/1 1/61/1
f 82/93/2 81/95/2 45/38/2
f 79/94/4 82/93/4 47/40/4
