# Blender 4.1.1
# www.blender.org
mtllib skydome.mtl
o 球
v 0.000000 124.720444 -83.335533
v 0.000000 83.335548 -124.720428
v 0.000000 29.263561 -147.117783
v 0.000000 0.000011 -150.000000
v 0.000000 -29.263538 -147.117783
v 0.000000 -83.335533 -124.720444
v 5.709036 147.117783 -28.701244
v 11.198676 138.581924 -56.299534
v 16.257957 124.720444 -81.734261
v 20.692451 106.066025 -104.027977
v 24.331749 83.335548 -122.323952
v 27.035992 57.402531 -135.919113
v 28.701256 29.263561 -144.290955
v 29.263550 0.000011 -147.117783
v 28.701256 -29.263538 -144.290955
v 27.035992 -57.402508 -135.919113
v 24.331749 -83.335533 -122.323967
v 20.692451 -106.066010 -104.027992
v 16.257957 -124.720428 -81.734276
v 11.198676 -138.581924 -56.299557
v 5.709036 -147.117783 -28.701267
v 11.198673 147.117783 -27.035980
v 21.966993 138.581924 -53.033001
v 31.891130 124.720444 -76.991982
v 40.589706 106.066025 -97.992210
v 47.728443 83.335548 -115.226639
v 53.033005 57.402531 -128.033005
v 56.299541 29.263559 -135.919113
v 57.402512 0.000010 -138.581924
v 56.299541 -29.263540 -135.919113
v 53.033005 -57.402508 -128.033005
v 47.728443 -83.335533 -115.226654
v 40.589706 -106.066010 -97.992226
v 31.891130 -124.720428 -76.991997
v 21.966993 -138.581924 -53.033024
v 11.198673 -147.117783 -27.036003
v 16.257954 147.117783 -24.331736
v 31.891130 138.581924 -47.728436
v 46.298740 124.720444 -69.290947
v 58.927124 106.066025 -88.190659
v 69.290955 83.335548 -103.701225
v 76.991989 57.402527 -115.226646
v 81.734268 29.263559 -122.323959
v 83.335541 0.000009 -124.720428
v 81.734268 -29.263540 -122.323959
v 76.991989 -57.402512 -115.226662
v 69.290955 -83.335533 -103.701241
v 58.927124 -106.066010 -88.190674
v 46.298740 -124.720428 -69.290962
v 31.891130 -138.581924 -47.728458
v 16.257954 -147.117783 -24.331758
v 20.692451 147.117783 -20.692436
v 40.589706 138.581924 -40.589695
v 58.927116 124.720444 -58.927101
v 75.000000 106.066025 -74.999992
v 88.190659 83.335548 -88.190643
v 97.992210 57.402527 -97.992210
v 104.027985 29.263557 -104.027969
v 106.066017 0.000008 -106.065994
v 104.027985 -29.263542 -104.027969
v 97.992210 -57.402512 -97.992226
v 88.190659 -83.335533 -88.190659
v 75.000000 -106.066010 -75.000008
v 58.927116 -124.720428 -58.927116
v 40.589706 -138.581924 -40.589718
v 20.692451 -147.117783 -20.692459
v 24.331747 147.117783 -16.257942
v 47.728447 138.581924 -31.891115
v 69.290962 124.720436 -46.298725
v 88.190666 106.066025 -58.927116
v 103.701248 83.335548 -69.290932
v 115.226646 57.402527 -76.991989
v 122.323959 29.263556 -81.734245
v 124.720436 0.000006 -83.335495
v 122.323959 -29.263544 -81.734245
v 115.226646 -57.402512 -76.992004
v 103.701248 -83.335533 -69.290947
v 88.190666 -106.066010 -58.927132
v 69.290962 -124.720436 -46.298740
v 47.728447 -138.581924 -31.891134
v 24.331747 -147.117783 -16.257965
v 0.000000 150.000000 0.000011
v 27.035986 147.117783 -11.198662
v 53.033005 138.581924 -21.966980
v 76.991989 124.720436 -31.891109
v 97.992218 106.066017 -40.589699
v 115.226646 83.335541 -47.728416
v 128.032990 57.402523 -53.033009
v 135.919098 29.263554 -56.299519
v 138.581909 0.000004 -57.402481
v 135.919098 -29.263546 -56.299526
v 128.032990 -57.402515 -53.033016
v 115.226646 -83.335541 -47.728432
v 97.992218 -106.066017 -40.589714
v 76.991989 -124.720436 -31.891129
v 53.033005 -138.581924 -21.966999
v 27.035986 -147.117783 -11.198685
v 28.701250 147.117783 -5.709022
v 56.299538 138.581924 -11.198663
v 81.734261 124.720436 -16.257938
v 104.027985 106.066017 -20.692448
v 122.323952 83.335541 -24.331730
v 135.919098 57.402523 -27.035994
v 144.290939 29.263552 -28.701237
v 147.117767 0.000002 -29.263519
v 144.290939 -29.263548 -28.701241
v 135.919098 -57.402515 -27.036001
v 122.323952 -83.335541 -24.331741
v 104.027985 -106.066017 -20.692463
v 81.734261 -124.720436 -16.257957
v 56.299538 -138.581924 -11.198684
v 28.701250 -147.117783 -5.709044
v 29.263538 147.117783 0.000014
v 57.402512 138.581924 0.000013
v 83.335526 124.720436 0.000018
v 106.066010 106.066017 0.000005
v 124.720413 83.335541 0.000018
v 138.581924 57.402519 -0.000002
v 147.117767 29.263550 0.000014
v 149.999954 -0.000000 0.000024
v 147.117767 -29.263550 0.000010
v 138.581924 -57.402519 -0.000010
v 124.720413 -83.335541 0.000006
v 106.066010 -106.066017 -0.000011
v 83.335526 -124.720436 -0.000000
v 57.402512 -138.581924 -0.000007
v 29.263538 -147.117783 -0.000008
v 28.701248 147.117783 5.709047
v 56.299538 138.581924 11.198689
v 81.734245 124.720436 16.257971
v 104.027969 106.066017 20.692455
v 122.323944 83.335541 24.331764
v 135.919098 57.402515 27.035990
v 144.290924 29.263548 28.701269
v 147.117737 -0.000002 29.263565
v 144.290924 -29.263552 28.701265
v 135.919098 -57.402523 27.035982
v 122.323944 -83.335541 24.331753
v 104.027969 -106.066017 20.692440
v 81.734245 -124.720436 16.257952
v 56.299538 -138.581924 11.198668
v 28.701248 -147.117783 5.709025
v 27.035984 147.117783 11.198685
v 53.033005 138.581924 21.967003
v 76.991974 124.720436 31.891140
v 97.992210 106.066017 40.589706
v 115.226624 83.335541 47.728455
v 128.032990 57.402515 53.033001
v 135.919083 29.263546 56.299549
v 138.581863 -0.000004 57.402519
v 135.919083 -29.263554 56.299541
v 128.032990 -57.402523 53.032993
v 115.226624 -83.335541 47.728439
v 97.992210 -106.066017 40.589691
v 76.991974 -124.720436 31.891121
v 53.033005 -138.581924 21.966984
v 27.035984 -147.117783 11.198662
v 24.331736 147.117783 16.257961
v 47.728439 138.581924 31.891138
v 69.290939 124.720436 46.298744
v 88.190659 106.066010 58.927116
v 103.701218 83.335533 69.290962
v 115.226646 57.402512 76.991982
v 122.323944 29.263544 81.734261
v 124.720367 -0.000006 83.335526
v 122.323944 -29.263556 81.734261
v 115.226646 -57.402527 76.991966
v 103.701218 -83.335548 69.290947
v 88.190659 -106.066025 58.927101
v 69.290939 -124.720436 46.298729
v 47.728439 -138.581924 31.891119
v 24.331736 -147.117783 16.257938
v 20.692444 147.117783 20.692455
v 40.589695 138.581924 40.589718
v 58.927086 124.720428 58.927116
v 74.999985 106.066010 74.999992
v 88.190628 83.335533 88.190659
v 97.992210 57.402512 97.992210
v 104.027962 29.263542 104.027969
v 106.065933 -0.000008 106.065994
v 104.027962 -29.263557 104.027969
v 97.992210 -57.402527 97.992195
v 88.190628 -83.335548 88.190643
v 74.999985 -106.066025 74.999977
v 58.927086 -124.720444 58.927101
v 40.589695 -138.581924 40.589695
v 20.692444 -147.117783 20.692432
v 16.257948 147.117783 24.331747
v 31.891117 138.581924 47.728455
v 46.298714 124.720428 69.290955
v 58.927109 106.066010 88.190666
v 69.290932 83.335533 103.701241
v 76.991989 57.402512 115.226646
v 81.734230 29.263540 122.323952
v 83.335457 -0.000009 124.720398
v 81.734230 -29.263559 122.323952
v 76.991989 -57.402527 115.226631
v 69.290932 -83.335548 103.701225
v 58.927109 -106.066025 88.190651
v 46.298714 -124.720444 69.290939
v 31.891117 -138.581924 47.728432
v 16.257948 -147.117783 24.331724
v 11.198667 147.117783 27.035988
v 21.966978 138.581924 53.033009
v 31.891102 124.720428 76.991982
v 40.589699 106.066010 97.992218
v 47.728416 83.335533 115.226631
v 53.033005 57.402508 128.032974
v 56.299507 29.263540 135.919083
v 57.402443 -0.000010 138.581879
v 56.299507 -29.263559 135.919083
v 53.033005 -57.402531 128.032974
v 47.728416 -83.335548 115.226616
v 40.589699 -106.066025 97.992203
v 31.891102 -124.720444 76.991966
v 21.966978 -138.581924 53.032986
v 11.198667 -147.117783 27.035965
v 5.709030 147.117783 28.701250
v 11.198664 138.581924 56.299534
v 16.257936 124.720428 81.734238
v 20.692448 106.066010 104.027977
v 24.331726 83.335533 122.323936
v 27.035992 57.402508 135.919083
v 28.701227 29.263538 144.290924
v 29.263487 -0.000011 147.117706
v 28.701227 -29.263561 144.290924
v 27.035992 -57.402531 135.919083
v 24.331726 -83.335548 122.323921
v 20.692448 -106.066025 104.027962
v 16.257936 -124.720444 81.734222
v 11.198664 -138.581924 56.299511
v 5.709030 -147.117783 28.701227
v 0.000000 147.117783 29.263542
v -0.000009 138.581924 57.402512
v -0.000015 124.720428 83.335503
v -0.000003 106.066010 106.066002
v -0.000015 83.335533 124.720398
v 0.000003 57.402508 138.581879
v -0.000021 29.263538 147.117752
v -0.000048 -0.000011 149.999893
v -0.000021 -29.263561 147.117752
v 0.000003 -57.402531 138.581879
v -0.000015 -83.335548 124.720383
v -0.000003 -106.066025 106.065987
v -0.000015 -124.720444 83.335487
v -0.000009 -138.581924 57.402489
v 0.000000 -147.117783 29.263519
v -5.709033 147.117783 28.701248
v -11.198679 138.581924 56.299534
v -16.257963 124.720428 81.734230
v -20.692451 106.066010 104.027969
v -24.331758 83.335533 122.323921
v -27.035980 57.402508 135.919067
v -28.701267 29.263538 144.290909
v -29.263578 -0.000011 147.117676
v -28.701267 -29.263561 144.290909
v -27.035980 -57.402531 135.919067
v -24.331758 -83.335548 122.323906
v -20.692451 -106.066025 104.027954
v -16.257963 -124.720444 81.734215
v -11.198679 -138.581924 56.299511
v -5.709033 -147.117783 28.701225
v -11.198667 147.117783 27.035988
v -21.966993 138.581924 53.033009
v -31.891125 124.720428 76.991951
v -40.589699 106.066010 97.992210
v -47.728443 83.335533 115.226616
v -53.032986 57.402508 128.032959
v -56.299541 29.263540 135.919052
v -57.402523 -0.000010 138.581802
v -56.299541 -29.263559 135.919052
v -53.032986 -57.402531 128.032959
v -47.728443 -83.335548 115.226601
v -40.589699 -106.066025 97.992195
v -31.891125 -124.720444 76.991936
v -21.966993 -138.581924 53.032986
v -11.198667 -147.117783 27.035965
v -16.257944 147.117783 24.331745
v -31.891125 138.581924 47.728439
v -46.298729 124.720428 69.290916
v -58.927109 106.066010 88.190659
v -69.290939 83.335533 103.701210
v -76.991959 57.402512 115.226631
v -81.734261 29.263540 122.323914
v -83.335526 -0.000009 124.720306
v -81.734261 -29.263559 122.323914
v -76.991959 -57.402527 115.226616
v -69.290939 -83.335548 103.701195
v -58.927109 -106.066025 88.190643
v -46.298729 -124.720444 69.290901
v -31.891125 -138.581924 47.728416
v -16.257944 -147.117783 24.331722
v -20.692436 147.117783 20.692448
v -40.589699 138.581924 40.589703
v -58.927094 124.720428 58.927078
v -74.999985 106.066010 74.999992
v -88.190636 83.335533 88.190620
v -97.992188 57.402512 97.992195
v -104.027962 29.263542 104.027924
v -106.065971 -0.000008 106.065887
v -104.027962 -29.263557 104.027924
v -97.992188 -57.402527 97.992180
v -88.190636 -83.335548 88.190605
v -74.999985 -106.066025 74.999977
v -58.927094 -124.720444 58.927063
v -40.589699 -138.581924 40.589680
v -20.692436 -147.117783 20.692425
v 0.000000 -150.000000 -0.000011
v -24.331734 147.117783 16.257954
v -47.728436 138.581924 31.891123
v -69.290924 124.720436 46.298698
v -88.190651 106.066010 58.927113
v -103.701218 83.335533 69.290924
v -115.226608 57.402512 76.991982
v -122.323944 29.263544 81.734207
v -124.720367 -0.000006 83.335411
v -122.323944 -29.263556 81.734207
v -115.226608 -57.402527 76.991966
v -103.701218 -83.335548 69.290909
v -88.190651 -106.066025 58.927097
v -69.290924 -124.720436 46.298683
v -47.728436 -138.581924 31.891104
v -24.331734 -147.117783 16.257931
v -27.035973 147.117783 11.198675
v -53.032990 138.581924 21.966988
v -76.991943 124.720436 31.891094
v -97.992203 106.066017 40.589703
v -115.226608 83.335541 47.728405
v -128.032959 57.402515 53.032993
v -135.919067 29.263546 56.299488
v -138.581833 -0.000004 57.402405
v -135.919067 -29.263554 56.299480
v -128.032959 -57.402523 53.032986
v -115.226608 -83.335541 47.728390
v -97.992203 -106.066017 40.589687
v -76.991943 -124.720436 31.891075
v -53.032990 -138.581924 21.966969
v -27.035973 -147.117783 11.198652
v -28.701233 147.117783 5.709038
v -56.299519 138.581924 11.198674
v -81.734207 124.720436 16.257935
v -104.027962 106.066017 20.692451
v -122.323914 83.335541 24.331720
v -135.919067 57.402515 27.035988
v -144.290909 29.263548 28.701208
v -147.117676 -0.000002 29.263454
v -144.290909 -29.263552 28.701204
v -135.919067 -57.402523 27.035980
v -122.323914 -83.335541 24.331709
v -104.027962 -106.066017 20.692436
v -81.734207 -124.720436 16.257915
v -56.299519 -138.581924 11.198653
v -28.701233 -147.117783 5.709016
v -29.263521 147.117783 0.000008
v -57.402489 138.581924 0.000001
v -83.335464 124.720436 -0.000012
v -106.065994 106.066017 0.000005
v -124.720383 83.335541 -0.000018
v -138.581879 57.402519 0.000001
v -147.117722 29.263550 -0.000037
v -149.999863 0.000000 -0.000066
v -147.117722 -29.263550 -0.000041
v -138.581879 -57.402519 -0.000007
v -124.720383 -83.335541 -0.000030
v -106.065994 -106.066017 -0.000011
v -83.335464 -124.720436 -0.000030
v -57.402489 -138.581924 -0.000019
v -29.263521 -147.117783 -0.000014
v -28.701229 147.117783 -5.709022
v -56.299515 138.581924 -11.198668
v -81.734192 124.720436 -16.257956
v -104.027962 106.066017 -20.692444
v -122.323898 83.335541 -24.331758
v -135.919052 57.402523 -27.035982
v -144.290894 29.263552 -28.701283
v -147.117630 0.000002 -29.263588
v -144.290894 -29.263548 -28.701286
v -135.919052 -57.402515 -27.035990
v -122.323898 -83.335541 -24.331770
v -104.027962 -106.066017 -20.692459
v -81.734192 -124.720436 -16.257975
v -56.299515 -138.581924 -11.198689
v -28.701229 -147.117783 -5.709044
v -27.035965 147.117783 -11.198655
v -53.032982 138.581924 -21.966980
v -76.991913 124.720436 -31.891111
v -97.992188 106.066017 -40.589691
v -115.226578 83.335541 -47.728436
v -128.032959 57.402523 -53.032982
v -135.919037 29.263554 -56.299541
v -138.581757 0.000004 -57.402523
v -135.919037 -29.263546 -56.299549
v -128.032959 -57.402515 -53.032990
v -115.226578 -83.335541 -47.728451
v -97.992188 -106.066017 -40.589706
v -76.991913 -124.720436 -31.891130
v -53.032982 -138.581924 -21.966999
v -27.035965 -147.117783 -11.198678
v -24.331726 147.117783 -16.257933
v -47.728416 138.581924 -31.891109
v -69.290878 124.720436 -46.298717
v -88.190636 106.066025 -58.927101
v -103.701172 83.335548 -69.290932
v -115.226608 57.402527 -76.991951
v -122.323883 29.263556 -81.734261
v -124.720261 0.000006 -83.335510
v -122.323883 -29.263544 -81.734261
v -115.226608 -57.402512 -76.991966
v -103.701172 -83.335533 -69.290947
v -88.190636 -106.066010 -58.927116
v -69.290878 -124.720436 -46.298733
v -47.728416 -138.581924 -31.891129
v -24.331726 -147.117783 -16.257956
v -20.692432 147.117783 -20.692425
v -40.589684 138.581924 -40.589680
v -58.927040 124.720444 -58.927078
v -74.999969 106.066025 -74.999977
v -88.190582 83.335548 -88.190620
v -97.992172 57.402527 -97.992165
v -104.027908 29.263557 -104.027962
v -106.065857 0.000008 -106.065948
v -104.027908 -29.263542 -104.027962
v -97.992172 -57.402512 -97.992180
v -88.190582 -83.335533 -88.190636
v -74.999969 -106.066010 -74.999992
v -58.927040 -124.720428 -58.927094
v -40.589684 -138.581924 -40.589703
v -20.692432 -147.117783 -20.692448
v -16.257936 147.117783 -24.331715
v -31.891106 138.581924 -47.728413
v -46.298668 124.720444 -69.290909
v -58.927094 106.066025 -88.190643
v -69.290894 83.335548 -103.701195
v -76.991951 57.402527 -115.226601
v -81.734184 29.263559 -122.323914
v -83.335388 0.000009 -124.720345
v -81.734184 -29.263540 -122.323914
v -76.991951 -57.402512 -115.226616
v -69.290894 -83.335533 -103.701210
v -58.927094 -106.066010 -88.190659
v -46.298668 -124.720428 -69.290924
v -31.891106 -138.581924 -47.728436
v -16.257936 -147.117783 -24.331738
v -11.198661 147.117783 -27.035954
v -21.966972 138.581924 -53.032974
v -31.891064 124.720444 -76.991920
v -40.589684 106.066025 -97.992195
v -47.728378 83.335548 -115.226585
v -53.032974 57.402531 -128.032959
v -56.299469 29.263559 -135.919052
v -57.402386 0.000010 -138.581787
v -56.299469 -29.263540 -135.919052
v -53.032974 -57.402508 -128.032959
v -47.728378 -83.335533 -115.226601
v -40.589684 -106.066010 -97.992210
v -31.891064 -124.720428 -76.991936
v -21.966972 -138.581924 -53.032997
v -11.198661 -147.117783 -27.035976
v -5.709027 147.117783 -28.701214
v -11.198661 138.581924 -56.299503
v -16.257906 124.720444 -81.734169
v -20.692436 106.066025 -104.027954
v -24.331699 83.335548 -122.323875
v -27.035973 57.402531 -135.919052
v -28.701199 29.263561 -144.290894
v -29.263443 0.000011 -147.117615
v -28.701199 -29.263538 -144.290894
v -27.035973 -57.402508 -135.919052
v -24.331699 -83.335533 -122.323891
v -20.692436 -106.066010 -104.027969
v -16.257906 -124.720428 -81.734184
v -11.198661 -138.581924 -56.299526
v -5.709027 -147.117783 -28.701237
v 0.000003 147.117783 -29.263504
v 0.000009 138.581924 -57.402470
v 0.000012 106.066025 -106.065987
v 0.000009 57.402531 -138.581848
v 0.000009 -57.402508 -138.581848
v 0.000012 -106.066010 -106.066002
v 0.000033 -124.720428 -83.335442
v 0.000009 -138.581924 -57.402493
v 0.000003 -147.117783 -29.263527
vn -0.0757 0.9217 0.3804
vn -0.0000 0.8286 0.5598
vn -0.0000 0.9217 0.3879
vn -0.0000 -0.1939 0.9810
vn -0.1804 -0.3805 0.9070
vn -0.0000 -0.3805 0.9248
vn -0.0392 0.9796 0.1971
vn -0.0000 0.9796 0.2010
vn -0.1951 -0.0000 0.9808
vn -0.0000 -0.0000 1.0000
vn -0.0000 -0.9796 0.2010
vn -0.0392 -0.9796 0.1971
vn -0.0000 -1.0000 -0.0000
vn -0.0000 1.0000 -0.0000
vn -0.1914 0.1939 0.9622
vn -0.0000 0.1939 0.9810
vn -0.0000 -0.9217 0.3879
vn -0.1804 0.3805 0.9070
vn -0.0000 0.3805 0.9248
vn -0.0000 -0.8286 0.5598
vn -0.0757 -0.9217 0.3804
vn -0.1626 0.5528 0.8173
vn -0.0000 0.5528 0.8333
vn -0.0000 -0.7041 0.7101
vn -0.1092 -0.8286 0.5490
vn -0.1385 0.7041 0.6965
vn -0.0000 0.7041 0.7101
vn -0.1626 -0.5528 0.8173
vn -0.0000 -0.5528 0.8333
vn -0.1092 0.8286 0.5490
vn -0.2718 0.7041 0.6561
vn -0.3539 -0.3805 0.8544
vn -0.2142 0.8286 0.5172
vn -0.1914 -0.1939 0.9622
vn -0.0769 0.9796 0.1857
vn -0.3827 -0.0000 0.9239
vn -0.0769 -0.9796 0.1857
vn -0.3754 0.1939 0.9063
vn -0.1484 -0.9217 0.3584
vn -0.3539 0.3805 0.8544
vn -0.2142 -0.8286 0.5172
vn -0.3189 0.5528 0.7699
vn -0.2718 -0.7041 0.6561
vn -0.1385 -0.7041 0.6965
vn -0.3189 -0.5528 0.7699
vn -0.2155 -0.9217 0.3225
vn -0.5138 0.3805 0.7689
vn -0.3110 -0.8286 0.4654
vn -0.3945 -0.7041 0.5905
vn -0.4630 0.5528 0.6929
vn -0.4630 -0.5528 0.6929
vn -0.3945 0.7041 0.5905
vn -0.5138 -0.3805 0.7689
vn -0.2155 0.9217 0.3225
vn -0.1484 0.9217 0.3584
vn -0.3754 -0.1939 0.9063
vn -0.5556 -0.0000 0.8315
vn -0.1117 -0.9796 0.1671
vn -0.1117 0.9796 0.1671
vn -0.6539 -0.3805 0.6539
vn -0.3958 0.8286 0.3958
vn -0.3110 0.8286 0.4654
vn -0.5450 -0.1939 0.8157
vn -0.1421 0.9796 0.1421
vn -0.7071 -0.0000 0.7071
vn -0.1421 -0.9796 0.1421
vn -0.6937 0.1939 0.6937
vn -0.5450 0.1939 0.8157
vn -0.2743 -0.9217 0.2743
vn -0.6539 0.3805 0.6539
vn -0.3958 -0.8286 0.3958
vn -0.5021 -0.7041 0.5021
vn -0.5021 0.7041 0.5021
vn -0.5893 -0.5528 0.5893
vn -0.7689 0.3805 0.5138
vn -0.4654 -0.8286 0.3110
vn -0.5893 0.5528 0.5893
vn -0.5905 -0.7041 0.3945
vn -0.5905 0.7041 0.3945
vn -0.7689 -0.3805 0.5138
vn -0.3225 0.9217 0.2155
vn -0.2743 0.9217 0.2743
vn -0.6937 -0.1939 0.6937
vn -0.1671 0.9796 0.1117
vn -0.8157 -0.1939 0.5450
vn -0.1671 -0.9796 0.1117
vn -0.8157 0.1939 0.5450
vn -0.3225 -0.9217 0.2155
vn -0.3584 0.9217 0.1484
vn -0.4654 0.8286 0.3110
vn -0.8544 -0.3805 0.3539
vn -0.8315 -0.0000 0.5556
vn -0.9063 -0.1939 0.3754
vn -0.1857 -0.9796 0.0769
vn -0.1857 0.9796 0.0769
vn -0.9063 0.1939 0.3754
vn -0.3584 -0.9217 0.1484
vn -0.8544 0.3805 0.3539
vn -0.5172 -0.8286 0.2142
vn -0.6929 0.5528 0.4630
vn -0.6561 0.7041 0.2718
vn -0.6929 -0.5528 0.4630
vn -0.6561 -0.7041 0.2718
vn -0.5172 0.8286 0.2142
vn -0.7699 0.5528 0.3189
vn -0.9070 0.3805 0.1804
vn -0.6965 -0.7041 0.1385
vn -0.6965 0.7041 0.1385
vn -0.7699 -0.5528 0.3189
vn -0.9070 -0.3805 0.1804
vn -0.5490 0.8286 0.1092
vn -0.1971 0.9796 0.0392
vn -0.9239 -0.0000 0.3827
vn -0.9622 -0.1939 0.1914
vn -0.1971 -0.9796 0.0392
vn -0.9622 0.1939 0.1914
vn -0.3804 -0.9217 0.0757
vn -0.5490 -0.8286 0.1092
vn -0.3879 0.9217 -0.0000
vn -0.3804 0.9217 0.0757
vn -0.9808 -0.0000 0.1951
vn -0.9810 -0.1939 -0.0000
vn -0.2010 -0.9796 -0.0000
vn -0.2010 0.9796 -0.0000
vn -0.9810 0.1939 -0.0000
vn -0.3879 -0.9217 -0.0000
vn -0.9248 0.3805 -0.0000
vn -0.5598 -0.8286 -0.0000
vn -0.8173 0.5528 0.1626
vn -0.7101 -0.7041 -0.0000
vn -0.7101 0.7041 -0.0000
vn -0.8173 -0.5528 0.1626
vn -0.9248 -0.3805 -0.0000
vn -0.6965 -0.7041 -0.1385
vn -0.6965 0.7041 -0.1385
vn -0.8333 0.5528 -0.0000
vn -0.8333 -0.5528 -0.0000
vn -0.5598 0.8286 -0.0000
vn -0.9070 -0.3805 -0.1804
vn -0.3804 0.9217 -0.0757
vn -0.1971 0.9796 -0.0392
vn -1.0000 -0.0000 -0.0000
vn -0.9622 -0.1939 -0.1914
vn -0.1971 -0.9796 -0.0392
vn -0.9622 0.1939 -0.1914
vn -0.9070 0.3805 -0.1804
vn -0.5490 -0.8286 -0.1092
vn -0.9808 -0.0000 -0.1951
vn -0.9063 -0.1939 -0.3754
vn -0.1857 -0.9796 -0.0769
vn -0.1857 0.9796 -0.0769
vn -0.9063 0.1939 -0.3754
vn -0.3584 -0.9217 -0.1484
vn -0.3804 -0.9217 -0.0757
vn -0.8544 0.3805 -0.3539
vn -0.5172 -0.8286 -0.2142
vn -0.8173 0.5528 -0.1626
vn -0.6561 -0.7041 -0.2718
vn -0.6561 0.7041 -0.2718
vn -0.8173 -0.5528 -0.1626
vn -0.5490 0.8286 -0.1092
vn -0.8544 -0.3805 -0.3539
vn -0.3584 0.9217 -0.1484
vn -0.5905 0.7041 -0.3945
vn -0.7699 0.5528 -0.3189
vn -0.7699 -0.5528 -0.3189
vn -0.5905 -0.7041 -0.3945
vn -0.5172 0.8286 -0.2142
vn -0.7689 -0.3805 -0.5138
vn -0.3225 0.9217 -0.2155
vn -0.9239 -0.0000 -0.3827
vn -0.8157 -0.1939 -0.5450
vn -0.1671 -0.9796 -0.1117
vn -0.1671 0.9796 -0.1117
vn -0.8157 0.1939 -0.5450
vn -0.3225 -0.9217 -0.2155
vn -0.7689 0.3805 -0.5138
vn -0.1421 -0.9796 -0.1421
vn -0.1421 0.9796 -0.1421
vn -0.6937 0.1939 -0.6937
vn -0.8315 -0.0000 -0.5556
vn -0.2743 -0.9217 -0.2743
vn -0.6539 0.3805 -0.6539
vn -0.3958 -0.8286 -0.3958
vn -0.4654 -0.8286 -0.3110
vn -0.6929 0.5528 -0.4630
vn -0.5021 -0.7041 -0.5021
vn -0.5021 0.7041 -0.5021
vn -0.6929 -0.5528 -0.4630
vn -0.4654 0.8286 -0.3110
vn -0.6539 -0.3805 -0.6539
vn -0.2743 0.9217 -0.2743
vn -0.6937 -0.1939 -0.6937
vn -0.5893 -0.5528 -0.5893
vn -0.3945 -0.7041 -0.5905
vn -0.3958 0.8286 -0.3958
vn -0.3945 0.7041 -0.5905
vn -0.5138 -0.3805 -0.7689
vn -0.2155 0.9217 -0.3225
vn -0.1117 0.9796 -0.1671
vn -0.7071 -0.0000 -0.7071
vn -0.5450 -0.1939 -0.8157
vn -0.1117 -0.9796 -0.1671
vn -0.5450 0.1939 -0.8157
vn -0.5138 0.3805 -0.7689
vn -0.2155 -0.9217 -0.3225
vn -0.5893 0.5528 -0.5893
vn -0.3754 0.1939 -0.9063
vn -0.5556 -0.0000 -0.8315
vn -0.1484 -0.9217 -0.3584
vn -0.3539 0.3805 -0.8544
vn -0.2142 -0.8286 -0.5172
vn -0.3110 -0.8286 -0.4654
vn -0.4630 0.5528 -0.6929
vn -0.2718 -0.7041 -0.6561
vn -0.2718 0.7041 -0.6561
vn -0.4630 -0.5528 -0.6929
vn -0.3110 0.8286 -0.4654
vn -0.3539 -0.3805 -0.8544
vn -0.1484 0.9217 -0.3584
vn -0.0769 0.9796 -0.1857
vn -0.3754 -0.1939 -0.9063
vn -0.0769 -0.9796 -0.1857
vn -0.2142 0.8286 -0.5172
vn -0.1385 0.7041 -0.6965
vn -0.1804 -0.3805 -0.9070
vn -0.3189 -0.5528 -0.7699
vn -0.0757 0.9217 -0.3804
vn -0.0392 0.9796 -0.1971
vn -0.3827 -0.0000 -0.9239
vn -0.1914 -0.1939 -0.9622
vn -0.0392 -0.9796 -0.1971
vn -0.1914 0.1939 -0.9622
vn -0.0757 -0.9217 -0.3804
vn -0.1804 0.3805 -0.9070
vn -0.1092 -0.8286 -0.5490
vn -0.3189 0.5528 -0.7699
vn -0.1385 -0.7041 -0.6965
vn -0.0000 0.3805 -0.9248
vn -0.0000 -0.8286 -0.5598
vn -0.1626 0.5528 -0.8173
vn -0.0000 -0.7041 -0.7101
vn -0.0000 0.7041 -0.7101
vn -0.1626 -0.5528 -0.8173
vn -0.1092 0.8286 -0.5490
vn -0.0000 -0.3805 -0.9248
vn -0.0000 0.9217 -0.3879
vn -0.0000 0.9796 -0.2010
vn -0.1951 -0.0000 -0.9808
vn -0.0000 -0.1939 -0.9810
vn -0.0000 -0.9796 -0.2010
vn -0.0000 0.1939 -0.9810
vn -0.0000 -0.9217 -0.3879
vn 0.0757 0.9217 -0.3804
vn -0.0000 0.8286 -0.5598
vn 0.1804 -0.3805 -0.9070
vn -0.0000 -0.0000 -1.0000
vn 0.1914 -0.1939 -0.9622
vn 0.0392 -0.9796 -0.1971
vn 0.0392 0.9796 -0.1971
vn 0.1914 0.1939 -0.9622
vn 0.0757 -0.9217 -0.3804
vn 0.1804 0.3805 -0.9070
vn 0.1092 -0.8286 -0.5490
vn -0.0000 0.5528 -0.8333
vn 0.1385 -0.7041 -0.6965
vn 0.1385 0.7041 -0.6965
vn -0.0000 -0.5528 -0.8333
vn 0.2142 -0.8286 -0.5172
vn 0.1626 0.5528 -0.8173
vn 0.3539 0.3805 -0.8544
vn 0.2718 -0.7041 -0.6561
vn 0.2718 0.7041 -0.6561
vn 0.1626 -0.5528 -0.8173
vn 0.1092 0.8286 -0.5490
vn 0.3539 -0.3805 -0.8544
vn 0.2142 0.8286 -0.5172
vn 0.0769 0.9796 -0.1857
vn 0.1951 -0.0000 -0.9808
vn 0.3754 -0.1939 -0.9063
vn 0.0769 -0.9796 -0.1857
vn 0.3754 0.1939 -0.9063
vn 0.5138 -0.3805 -0.7689
vn 0.1117 0.9796 -0.1671
vn 0.1484 0.9217 -0.3584
vn 0.3827 -0.0000 -0.9239
vn 0.5450 -0.1939 -0.8157
vn 0.1117 -0.9796 -0.1671
vn 0.5450 0.1939 -0.8157
vn 0.2155 -0.9217 -0.3225
vn 0.1484 -0.9217 -0.3584
vn 0.5138 0.3805 -0.7689
vn 0.3110 -0.8286 -0.4654
vn 0.3189 0.5528 -0.7699
vn 0.3945 -0.7041 -0.5905
vn 0.3945 0.7041 -0.5905
vn 0.3189 -0.5528 -0.7699
vn 0.3110 0.8286 -0.4654
vn 0.4630 0.5528 -0.6929
vn 0.6539 0.3805 -0.6539
vn 0.5021 -0.7041 -0.5021
vn 0.5021 0.7041 -0.5021
vn 0.4630 -0.5528 -0.6929
vn 0.6539 -0.3805 -0.6539
vn 0.2743 0.9217 -0.2743
vn 0.2155 0.9217 -0.3225
vn 0.1421 0.9796 -0.1421
vn 0.5556 -0.0000 -0.8315
vn 0.6937 -0.1939 -0.6937
vn 0.1421 -0.9796 -0.1421
vn 0.6937 0.1939 -0.6937
vn 0.2743 -0.9217 -0.2743
vn 0.1671 0.9796 -0.1117
vn 0.7071 -0.0000 -0.7071
vn 0.8157 -0.1939 -0.5450
vn 0.1671 -0.9796 -0.1117
vn 0.8157 0.1939 -0.5450
vn 0.7689 0.3805 -0.5138
vn 0.3958 -0.8286 -0.3958
vn 0.3225 -0.9217 -0.2155
vn 0.5893 0.5528 -0.5893
vn 0.5905 -0.7041 -0.3945
vn 0.5905 0.7041 -0.3945
vn 0.5893 -0.5528 -0.5893
vn 0.3958 0.8286 -0.3958
vn 0.7689 -0.3805 -0.5138
vn 0.3225 0.9217 -0.2155
vn 0.6561 -0.7041 -0.2718
vn 0.4654 -0.8286 -0.3110
vn 0.6561 0.7041 -0.2718
vn 0.6929 0.5528 -0.4630
vn 0.6929 -0.5528 -0.4630
vn 0.4654 0.8286 -0.3110
vn 0.8544 -0.3805 -0.3539
vn 0.5172 0.8286 -0.2142
vn 0.1857 0.9796 -0.0769
vn 0.8315 -0.0000 -0.5556
vn 0.9063 -0.1939 -0.3754
vn 0.1857 -0.9796 -0.0769
vn 0.9063 0.1939 -0.3754
vn 0.3584 -0.9217 -0.1484
vn 0.8544 0.3805 -0.3539
vn 0.9239 -0.0000 -0.3827
vn 0.9622 -0.1939 -0.1914
vn 0.1971 -0.9796 -0.0392
vn 0.1971 0.9796 -0.0392
vn 0.9622 0.1939 -0.1914
vn 0.9070 0.3805 -0.1804
vn 0.5490 -0.8286 -0.1092
vn 0.5172 -0.8286 -0.2142
vn 0.7699 0.5528 -0.3189
vn 0.6965 -0.7041 -0.1385
vn 0.6965 0.7041 -0.1385
vn 0.7699 -0.5528 -0.3189
vn 0.9070 -0.3805 -0.1804
vn 0.3804 0.9217 -0.0757
vn 0.3584 0.9217 -0.1484
vn 0.7101 0.7041 -0.0000
vn 0.8173 0.5528 -0.1626
vn 0.8173 -0.5528 -0.1626
vn 0.7101 -0.7041 -0.0000
vn 0.5490 0.8286 -0.1092
vn 0.9248 -0.3805 -0.0000
vn 0.3879 0.9217 -0.0000
vn 0.2010 0.9796 -0.0000
vn 0.9808 -0.0000 -0.1951
vn 0.9810 -0.1939 -0.0000
vn 0.2010 -0.9796 -0.0000
vn 0.9810 0.1939 -0.0000
vn 0.3879 -0.9217 -0.0000
vn 0.3804 -0.9217 -0.0757
vn 0.9248 0.3805 -0.0000
vn 0.5598 -0.8286 -0.0000
vn 0.1971 0.9796 0.0392
vn 0.9622 0.1939 0.1914
vn 1.0000 -0.0000 -0.0000
vn 0.1971 -0.9796 0.0392
vn 0.9070 0.3805 0.1804
vn 0.3804 -0.9217 0.0757
vn 0.8333 0.5528 -0.0000
vn 0.6965 -0.7041 0.1385
vn 0.6965 0.7041 0.1385
vn 0.8333 -0.5528 -0.0000
vn 0.5598 0.8286 -0.0000
vn 0.9070 -0.3805 0.1804
vn 0.3804 0.9217 0.0757
vn 0.9622 -0.1939 0.1914
vn 0.5490 0.8286 0.1092
vn 0.6561 0.7041 0.2718
vn 0.8544 -0.3805 0.3539
vn 0.8173 -0.5528 0.1626
vn 0.3584 0.9217 0.1484
vn 0.1857 0.9796 0.0769
vn 0.9808 -0.0000 0.1951
vn 0.9063 -0.1939 0.3754
vn 0.1857 -0.9796 0.0769
vn 0.9063 0.1939 0.3754
vn 0.3584 -0.9217 0.1484
vn 0.8544 0.3805 0.3539
vn 0.5490 -0.8286 0.1092
vn 0.8173 0.5528 0.1626
vn 0.6561 -0.7041 0.2718
vn 0.1671 -0.9796 0.1117
vn 0.7689 0.3805 0.5138
vn 0.4654 -0.8286 0.3110
vn 0.5172 -0.8286 0.2142
vn 0.7699 0.5528 0.3189
vn 0.5905 -0.7041 0.3945
vn 0.5905 0.7041 0.3945
vn 0.7699 -0.5528 0.3189
vn 0.5172 0.8286 0.2142
vn 0.7689 -0.3805 0.5138
vn 0.4654 0.8286 0.3110
vn 0.1671 0.9796 0.1117
vn 0.9239 -0.0000 0.3827
vn 0.8157 -0.1939 0.5450
vn 0.8157 0.1939 0.5450
vn 0.6539 -0.3805 0.6539
vn 0.6929 -0.5528 0.4630
vn 0.2743 0.9217 0.2743
vn 0.3225 0.9217 0.2155
vn 0.8315 -0.0000 0.5556
vn 0.6937 -0.1939 0.6937
vn 0.1421 -0.9796 0.1421
vn 0.1421 0.9796 0.1421
vn 0.6937 0.1939 0.6937
vn 0.2743 -0.9217 0.2743
vn 0.3225 -0.9217 0.2155
vn 0.6539 0.3805 0.6539
vn 0.6929 0.5528 0.4630
vn 0.5021 -0.7041 0.5021
vn 0.5021 0.7041 0.5021
vn 0.5138 0.3805 0.7689
vn 0.3958 -0.8286 0.3958
vn 0.2155 -0.9217 0.3225
vn 0.5893 0.5528 0.5893
vn 0.3945 -0.7041 0.5905
vn 0.3945 0.7041 0.5905
vn 0.5893 -0.5528 0.5893
vn 0.3958 0.8286 0.3958
vn 0.5138 -0.3805 0.7689
vn 0.2155 0.9217 0.3225
vn 0.1117 0.9796 0.1671
vn 0.7071 -0.0000 0.7071
vn 0.5450 -0.1939 0.8157
vn 0.1117 -0.9796 0.1671
vn 0.5450 0.1939 0.8157
vn 0.1484 0.9217 0.3584
vn 0.3110 0.8286 0.4654
vn 0.3539 -0.3805 0.8544
vn 0.0769 0.9796 0.1857
vn 0.5556 -0.0000 0.8315
vn 0.3754 -0.1939 0.9063
vn 0.0769 -0.9796 0.1857
vn 0.3754 0.1939 0.9063
vn 0.1484 -0.9217 0.3584
vn 0.3539 0.3805 0.8544
vn 0.3110 -0.8286 0.4654
vn 0.4630 0.5528 0.6929
vn 0.2718 -0.7041 0.6561
vn 0.2718 0.7041 0.6561
vn 0.4630 -0.5528 0.6929
vn 0.2142 -0.8286 0.5172
vn 0.0757 -0.9217 0.3804
vn 0.3189 0.5528 0.7699
vn 0.1804 0.3805 0.9070
vn 0.1385 -0.7041 0.6965
vn 0.1385 0.7041 0.6965
vn 0.3189 -0.5528 0.7699
vn 0.2142 0.8286 0.5172
vn 0.1804 -0.3805 0.9070
vn 0.0757 0.9217 0.3804
vn 0.0392 0.9796 0.1971
vn 0.3827 -0.0000 0.9239
vn 0.1914 -0.1939 0.9622
vn 0.0392 -0.9796 0.1971
vn 0.1914 0.1939 0.9622
vn 0.1951 -0.0000 0.9808
vn 0.1092 -0.8286 0.5490
vn 0.1626 0.5528 0.8173
vn 0.1626 -0.5528 0.8173
vn 0.1092 0.8286 0.5490
vt 0.718750 0.125000
vt 0.750000 0.187500
vt 0.750000 0.125000
vt 0.750000 0.562500
vt 0.718750 0.625000
vt 0.750000 0.625000
vt 0.718750 0.062500
vt 0.750000 0.062500
vt 0.718750 0.500000
vt 0.750000 0.500000
vt 0.750000 0.937500
vt 0.718750 0.937500
vt 0.734375 1.000000
vt 0.734375 0.000000
vt 0.718750 0.437500
vt 0.750000 0.437500
vt 0.750000 0.875000
vt 0.718750 0.375000
vt 0.750000 0.375000
vt 0.750000 0.812500
vt 0.718750 0.875000
vt 0.718750 0.312500
vt 0.750000 0.312500
vt 0.750000 0.750000
vt 0.718750 0.812500
vt 0.718750 0.250000
vt 0.750000 0.250000
vt 0.718750 0.687500
vt 0.750000 0.687500
vt 0.718750 0.187500
vt 0.687500 0.250000
vt 0.687500 0.625000
vt 0.687500 0.187500
vt 0.718750 0.562500
vt 0.687500 0.062500
vt 0.687500 0.500000
vt 0.687500 0.937500
vt 0.703125 1.000000
vt 0.703125 0.000000
vt 0.687500 0.437500
vt 0.687500 0.875000
vt 0.687500 0.375000
vt 0.687500 0.812500
vt 0.687500 0.312500
vt 0.687500 0.750000
vt 0.718750 0.750000
vt 0.687500 0.687500
vt 0.656250 0.875000
vt 0.656250 0.375000
vt 0.656250 0.812500
vt 0.656250 0.750000
vt 0.656250 0.312500
vt 0.656250 0.687500
vt 0.656250 0.250000
vt 0.656250 0.625000
vt 0.656250 0.125000
vt 0.687500 0.125000
vt 0.687500 0.562500
vt 0.656250 0.500000
vt 0.656250 0.937500
vt 0.671875 1.000000
vt 0.671875 0.000000
vt 0.656250 0.062500
vt 0.625000 0.625000
vt 0.625000 0.187500
vt 0.656250 0.187500
vt 0.656250 0.562500
vt 0.625000 0.062500
vt 0.625000 0.500000
vt 0.625000 0.937500
vt 0.640625 1.000000
vt 0.640625 0.000000
vt 0.625000 0.437500
vt 0.656250 0.437500
vt 0.625000 0.875000
vt 0.625000 0.375000
vt 0.625000 0.812500
vt 0.625000 0.750000
vt 0.625000 0.250000
vt 0.625000 0.687500
vt 0.593750 0.375000
vt 0.593750 0.812500
vt 0.625000 0.312500
vt 0.593750 0.750000
vt 0.593750 0.250000
vt 0.593750 0.625000
vt 0.593750 0.125000
vt 0.625000 0.125000
vt 0.625000 0.562500
vt 0.593750 0.062500
vt 0.593750 0.562500
vt 0.593750 0.937500
vt 0.609375 1.000000
vt 0.609375 0.000000
vt 0.593750 0.437500
vt 0.593750 0.875000
vt 0.562500 0.125000
vt 0.593750 0.187500
vt 0.562500 0.625000
vt 0.593750 0.500000
vt 0.562500 0.562500
vt 0.562500 0.937500
vt 0.578125 1.000000
vt 0.578125 0.000000
vt 0.562500 0.062500
vt 0.562500 0.437500
vt 0.562500 0.875000
vt 0.562500 0.375000
vt 0.562500 0.812500
vt 0.593750 0.312500
vt 0.562500 0.250000
vt 0.593750 0.687500
vt 0.562500 0.750000
vt 0.562500 0.187500
vt 0.562500 0.312500
vt 0.531250 0.375000
vt 0.531250 0.750000
vt 0.531250 0.250000
vt 0.562500 0.687500
vt 0.531250 0.625000
vt 0.531250 0.187500
vt 0.531250 0.062500
vt 0.562500 0.500000
vt 0.531250 0.562500
vt 0.531250 0.937500
vt 0.546875 1.000000
vt 0.546875 0.000000
vt 0.531250 0.437500
vt 0.531250 0.875000
vt 0.531250 0.812500
vt 0.500000 0.125000
vt 0.531250 0.125000
vt 0.531250 0.500000
vt 0.500000 0.562500
vt 0.500000 0.937500
vt 0.515625 1.000000
vt 0.515625 0.000000
vt 0.500000 0.062500
vt 0.500000 0.437500
vt 0.500000 0.875000
vt 0.500000 0.375000
vt 0.500000 0.812500
vt 0.531250 0.312500
vt 0.500000 0.750000
vt 0.500000 0.250000
vt 0.531250 0.687500
vt 0.500000 0.625000
vt 0.468750 0.750000
vt 0.468750 0.250000
vt 0.500000 0.312500
vt 0.500000 0.687500
vt 0.500000 0.187500
vt 0.468750 0.625000
vt 0.468750 0.125000
vt 0.468750 0.062500
vt 0.500000 0.500000
vt 0.468750 0.562500
vt 0.468750 0.937500
vt 0.484375 1.000000
vt 0.484375 0.000000
vt 0.468750 0.437500
vt 0.468750 0.375000
vt 0.468750 0.812500
vt 0.468750 0.500000
vt 0.437500 0.562500
vt 0.437500 0.937500
vt 0.453125 1.000000
vt 0.453125 0.000000
vt 0.437500 0.062500
vt 0.437500 0.437500
vt 0.437500 0.875000
vt 0.468750 0.875000
vt 0.437500 0.375000
vt 0.437500 0.812500
vt 0.468750 0.312500
vt 0.437500 0.750000
vt 0.437500 0.250000
vt 0.468750 0.687500
vt 0.468750 0.187500
vt 0.437500 0.625000
vt 0.437500 0.125000
vt 0.406250 0.250000
vt 0.437500 0.312500
vt 0.437500 0.687500
vt 0.406250 0.750000
vt 0.437500 0.187500
vt 0.406250 0.625000
vt 0.406250 0.125000
vt 0.437500 0.500000
vt 0.406250 0.562500
vt 0.406250 0.937500
vt 0.421875 1.000000
vt 0.421875 0.000000
vt 0.406250 0.062500
vt 0.406250 0.437500
vt 0.406250 0.875000
vt 0.406250 0.375000
vt 0.375000 0.937500
vt 0.390625 1.000000
vt 0.390625 0.000000
vt 0.375000 0.062500
vt 0.375000 0.437500
vt 0.406250 0.500000
vt 0.375000 0.875000
vt 0.375000 0.375000
vt 0.375000 0.812500
vt 0.406250 0.812500
vt 0.406250 0.312500
vt 0.375000 0.750000
vt 0.375000 0.250000
vt 0.406250 0.687500
vt 0.406250 0.187500
vt 0.375000 0.625000
vt 0.375000 0.125000
vt 0.375000 0.562500
vt 0.375000 0.687500
vt 0.343750 0.750000
vt 0.375000 0.187500
vt 0.343750 0.250000
vt 0.343750 0.625000
vt 0.343750 0.125000
vt 0.343750 0.062500
vt 0.375000 0.500000
vt 0.343750 0.562500
vt 0.343750 0.937500
vt 0.359375 1.000000
vt 0.359375 0.000000
vt 0.343750 0.437500
vt 0.343750 0.375000
vt 0.343750 0.875000
vt 0.375000 0.312500
vt 0.312500 0.437500
vt 0.343750 0.500000
vt 0.312500 0.875000
vt 0.312500 0.375000
vt 0.312500 0.812500
vt 0.343750 0.812500
vt 0.343750 0.312500
vt 0.312500 0.750000
vt 0.312500 0.250000
vt 0.343750 0.687500
vt 0.343750 0.187500
vt 0.312500 0.625000
vt 0.312500 0.125000
vt 0.312500 0.062500
vt 0.312500 0.562500
vt 0.312500 0.937500
vt 0.328125 1.000000
vt 0.328125 0.000000
vt 0.312500 0.187500
vt 0.281250 0.250000
vt 0.281250 0.625000
vt 0.312500 0.687500
vt 0.281250 0.125000
vt 0.281250 0.062500
vt 0.312500 0.500000
vt 0.281250 0.562500
vt 0.281250 0.937500
vt 0.296875 1.000000
vt 0.296875 0.000000
vt 0.281250 0.437500
vt 0.281250 0.875000
vt 0.281250 0.375000
vt 0.281250 0.812500
vt 0.312500 0.312500
vt 0.281250 0.750000
vt 0.250000 0.375000
vt 0.250000 0.812500
vt 0.281250 0.312500
vt 0.250000 0.750000
vt 0.250000 0.250000
vt 0.281250 0.687500
vt 0.281250 0.187500
vt 0.250000 0.625000
vt 0.250000 0.125000
vt 0.250000 0.062500
vt 0.281250 0.500000
vt 0.250000 0.562500
vt 0.250000 0.937500
vt 0.265625 1.000000
vt 0.265625 0.000000
vt 0.250000 0.437500
vt 0.250000 0.875000
vt 0.218750 0.125000
vt 0.250000 0.187500
vt 0.218750 0.625000
vt 0.250000 0.500000
vt 0.218750 0.562500
vt 0.218750 0.937500
vt 0.234375 1.000000
vt 0.234375 0.000000
vt 0.218750 0.062500
vt 0.218750 0.437500
vt 0.218750 0.875000
vt 0.218750 0.375000
vt 0.218750 0.812500
vt 0.250000 0.312500
vt 0.218750 0.750000
vt 0.218750 0.250000
vt 0.250000 0.687500
vt 0.187500 0.812500
vt 0.218750 0.312500
vt 0.187500 0.375000
vt 0.187500 0.750000
vt 0.187500 0.250000
vt 0.218750 0.687500
vt 0.218750 0.187500
vt 0.187500 0.625000
vt 0.187500 0.187500
vt 0.187500 0.062500
vt 0.218750 0.500000
vt 0.187500 0.562500
vt 0.187500 0.937500
vt 0.203125 1.000000
vt 0.203125 0.000000
vt 0.187500 0.437500
vt 0.156250 0.625000
vt 0.156250 0.062500
vt 0.187500 0.125000
vt 0.187500 0.500000
vt 0.156250 0.562500
vt 0.156250 0.937500
vt 0.171875 1.000000
vt 0.171875 0.000000
vt 0.156250 0.437500
vt 0.156250 0.875000
vt 0.187500 0.875000
vt 0.156250 0.375000
vt 0.156250 0.812500
vt 0.187500 0.312500
vt 0.156250 0.750000
vt 0.156250 0.250000
vt 0.187500 0.687500
vt 0.156250 0.187500
vt 0.156250 0.312500
vt 0.125000 0.375000
vt 0.125000 0.750000
vt 0.125000 0.250000
vt 0.156250 0.687500
vt 0.125000 0.625000
vt 0.125000 0.125000
vt 0.156250 0.125000
vt 0.125000 0.062500
vt 0.156250 0.500000
vt 0.125000 0.562500
vt 0.125000 0.937500
vt 0.140625 1.000000
vt 0.140625 0.000000
vt 0.125000 0.437500
vt 0.125000 0.875000
vt 0.093750 0.062500
vt 0.125000 0.500000
vt 0.093750 0.562500
vt 0.093750 0.937500
vt 0.109375 1.000000
vt 0.109375 0.000000
vt 0.093750 0.437500
vt 0.093750 0.375000
vt 0.125000 0.812500
vt 0.093750 0.875000
vt 0.125000 0.312500
vt 0.093750 0.750000
vt 0.093750 0.250000
vt 0.125000 0.687500
vt 0.125000 0.187500
vt 0.093750 0.625000
vt 0.093750 0.125000
vt 0.062500 0.750000
vt 0.093750 0.812500
vt 0.062500 0.250000
vt 0.093750 0.312500
vt 0.093750 0.687500
vt 0.093750 0.187500
vt 0.062500 0.625000
vt 0.062500 0.187500
vt 0.062500 0.062500
vt 0.093750 0.500000
vt 0.062500 0.562500
vt 0.062500 0.937500
vt 0.078125 1.000000
vt 0.078125 0.000000
vt 0.062500 0.437500
vt 0.062500 0.875000
vt 0.062500 0.375000
vt 0.062500 0.500000
vt 0.031250 0.562500
vt 0.031250 0.937500
vt 0.046875 1.000000
vt 0.046875 0.000000
vt 0.031250 0.062500
vt 0.031250 0.437500
vt 0.031250 0.375000
vt 0.031250 0.812500
vt 0.062500 0.812500
vt 0.062500 0.312500
vt 0.031250 0.750000
vt 0.031250 0.250000
vt 0.062500 0.687500
vt 0.031250 0.625000
vt 0.031250 0.125000
vt 0.062500 0.125000
vt 0.000000 0.250000
vt 0.031250 0.312500
vt 0.031250 0.687500
vt 0.000000 0.750000
vt 0.031250 0.187500
vt 0.000000 0.625000
vt 0.000000 0.125000
vt 0.000000 0.062500
vt 0.031250 0.500000
vt 0.000000 0.562500
vt 0.000000 0.937500
vt 0.015625 1.000000
vt 0.015625 0.000000
vt 0.000000 0.437500
vt 0.000000 0.875000
vt 0.031250 0.875000
vt 0.000000 0.375000
vt 0.000000 0.812500
vt 0.984375 0.000000
vt 0.968750 0.062500
vt 1.000000 0.062500
vt 0.968750 0.437500
vt 1.000000 0.500000
vt 1.000000 0.437500
vt 1.000000 0.875000
vt 0.968750 0.937500
vt 1.000000 0.937500
vt 0.968750 0.375000
vt 1.000000 0.375000
vt 1.000000 0.812500
vt 0.968750 0.875000
vt 1.000000 0.312500
vt 0.968750 0.750000
vt 1.000000 0.750000
vt 0.968750 0.250000
vt 1.000000 0.250000
vt 1.000000 0.687500
vt 1.000000 0.187500
vt 0.968750 0.625000
vt 1.000000 0.625000
vt 0.968750 0.125000
vt 1.000000 0.125000
vt 1.000000 0.562500
vt 0.968750 0.562500
vt 0.984375 1.000000
vt 0.968750 0.187500
vt 0.937500 0.250000
vt 0.937500 0.625000
vt 0.968750 0.687500
vt 0.937500 0.125000
vt 0.937500 0.062500
vt 0.968750 0.500000
vt 0.937500 0.562500
vt 0.937500 0.937500
vt 0.953125 1.000000
vt 0.953125 0.000000
vt 0.937500 0.437500
vt 0.937500 0.875000
vt 0.937500 0.375000
vt 0.968750 0.812500
vt 0.968750 0.312500
vt 0.937500 0.750000
vt 0.906250 0.937500
vt 0.906250 0.375000
vt 0.906250 0.812500
vt 0.937500 0.812500
vt 0.937500 0.312500
vt 0.906250 0.750000
vt 0.906250 0.250000
vt 0.937500 0.687500
vt 0.937500 0.187500
vt 0.906250 0.625000
vt 0.906250 0.187500
vt 0.906250 0.062500
vt 0.937500 0.500000
vt 0.906250 0.562500
vt 0.921875 1.000000
vt 0.921875 0.000000
vt 0.906250 0.437500
vt 0.875000 0.625000
vt 0.906250 0.687500
vt 0.875000 0.125000
vt 0.906250 0.125000
vt 0.906250 0.500000
vt 0.875000 0.562500
vt 0.875000 0.937500
vt 0.890625 1.000000
vt 0.890625 0.000000
vt 0.875000 0.062500
vt 0.875000 0.437500
vt 0.875000 0.875000
vt 0.906250 0.875000
vt 0.875000 0.375000
vt 0.906250 0.312500
vt 0.875000 0.750000
vt 0.875000 0.250000
vt 0.843750 0.375000
vt 0.875000 0.812500
vt 0.843750 0.875000
vt 0.875000 0.312500
vt 0.843750 0.750000
vt 0.843750 0.250000
vt 0.875000 0.687500
vt 0.875000 0.187500
vt 0.843750 0.625000
vt 0.843750 0.125000
vt 0.843750 0.062500
vt 0.875000 0.500000
vt 0.843750 0.562500
vt 0.843750 0.937500
vt 0.859375 1.000000
vt 0.859375 0.000000
vt 0.843750 0.437500
vt 0.812500 0.125000
vt 0.843750 0.187500
vt 0.812500 0.625000
vt 0.812500 0.062500
vt 0.843750 0.500000
vt 0.812500 0.562500
vt 0.812500 0.937500
vt 0.828125 1.000000
vt 0.828125 0.000000
vt 0.812500 0.437500
vt 0.812500 0.875000
vt 0.812500 0.375000
vt 0.843750 0.812500
vt 0.843750 0.312500
vt 0.812500 0.750000
vt 0.812500 0.250000
vt 0.843750 0.687500
vt 0.812500 0.812500
vt 0.781250 0.875000
vt 0.812500 0.312500
vt 0.781250 0.375000
vt 0.781250 0.750000
vt 0.781250 0.250000
vt 0.812500 0.687500
vt 0.812500 0.187500
vt 0.781250 0.625000
vt 0.781250 0.125000
vt 0.781250 0.062500
vt 0.812500 0.500000
vt 0.781250 0.562500
vt 0.781250 0.937500
vt 0.796875 1.000000
vt 0.796875 0.000000
vt 0.781250 0.437500
vt 0.781250 0.500000
vt 0.765625 1.000000
vt 0.765625 0.000000
vt 0.781250 0.812500
vt 0.781250 0.312500
vt 0.781250 0.687500
vt 0.781250 0.187500
vt 0.000000 0.312500
vt 0.000000 0.687500
vt 0.000000 0.187500
vt 0.000000 0.500000
s 1
usemtl マテリアル.001
f 20/1/1 480/2/2 481/3/3
f 3/4/4 12/5/5 477/6/6
f 21/7/7 481/3/3 482/8/8
f 14/9/9 3/4/4 4/10/10
f 474/11/11 7/12/12 82/13/13
f 308/14/14 21/7/7 482/8/8
f 15/15/15 4/10/10 5/16/16
f 475/17/17 7/12/12 474/11/11
f 16/18/18 5/16/16 478/19/19
f 1/20/20 8/21/21 475/17/17
f 17/22/22 478/19/19 6/23/23
f 476/24/24 9/25/25 1/20/20
f 18/26/26 6/23/23 479/27/27
f 11/28/28 476/24/24 2/29/29
f 19/30/30 479/27/27 480/2/2
f 477/6/6 11/28/28 2/29/29
f 19/30/30 33/31/31 18/26/26
f 27/32/32 11/28/28 12/5/5
f 20/1/1 34/33/33 19/30/30
f 13/34/34 27/32/32 12/5/5
f 36/35/35 20/1/1 21/7/7
f 29/36/36 13/34/34 14/9/9
f 7/12/12 22/37/37 82/38/13
f 308/39/14 36/35/35 21/7/7
f 30/40/38 14/9/9 15/15/15
f 23/41/39 7/12/12 8/21/21
f 31/42/40 15/15/15 16/18/18
f 24/43/41 8/21/21 9/25/25
f 32/44/42 16/18/18 17/22/22
f 25/45/43 9/25/25 10/46/44
f 33/31/31 17/22/22 18/26/26
f 26/47/45 10/46/44 11/28/28
f 38/48/46 22/37/37 23/41/39
f 46/49/47 30/40/38 31/42/40
f 39/50/48 23/41/39 24/43/41
f 32/44/42 46/49/47 31/42/40
f 40/51/49 24/43/41 25/45/43
f 33/31/31 47/52/50 32/44/42
f 41/53/51 25/45/43 26/47/45
f 34/33/33 48/54/52 33/31/31
f 42/55/53 26/47/45 27/32/32
f 50/56/54 34/33/33 35/57/55
f 28/58/56 42/55/53 27/32/32
f 36/35/35 50/56/54 35/57/55
f 44/59/57 28/58/56 29/36/36
f 22/37/37 37/60/58 82/61/13
f 308/62/14 51/63/59 36/35/35
f 30/40/38 44/59/57 29/36/36
f 57/64/60 41/53/51 42/55/53
f 50/56/54 64/65/61 49/66/62
f 43/67/63 57/64/60 42/55/53
f 66/68/64 50/56/54 51/63/59
f 59/69/65 43/67/63 44/59/57
f 37/60/58 52/70/66 82/71/13
f 308/72/14 66/68/64 51/63/59
f 60/73/67 44/59/57 45/74/68
f 53/75/69 37/60/58 38/48/46
f 61/76/70 45/74/68 46/49/47
f 54/77/71 38/48/46 39/50/48
f 47/52/50 61/76/70 46/49/47
f 55/78/72 39/50/48 40/51/49
f 63/79/73 47/52/50 48/54/52
f 56/80/74 40/51/49 41/53/51
f 64/65/61 48/54/52 49/66/62
f 76/81/75 60/73/67 61/76/70
f 69/82/76 53/75/69 54/77/71
f 62/83/77 76/81/75 61/76/70
f 70/84/78 54/77/71 55/78/72
f 78/85/79 62/83/77 63/79/73
f 56/80/74 70/84/78 55/78/72
f 64/65/61 78/85/79 63/79/73
f 72/86/80 56/80/74 57/64/60
f 80/87/81 64/65/61 65/88/82
f 58/89/83 72/86/80 57/64/60
f 81/90/84 65/88/82 66/68/64
f 59/69/65 73/91/85 58/89/83
f 52/70/66 67/92/86 82/93/13
f 308/94/14 81/90/84 66/68/64
f 75/95/87 59/69/65 60/73/67
f 68/96/88 52/70/66 53/75/69
f 96/97/89 79/98/90 80/87/81
f 73/91/85 88/99/91 72/86/80
f 81/90/84 96/97/89 80/87/81
f 74/100/92 89/101/93 73/91/85
f 67/92/86 83/102/94 82/103/13
f 308/104/14 97/105/95 81/90/84
f 91/106/96 74/100/92 75/95/87
f 84/107/97 67/92/86 68/96/88
f 92/108/98 75/95/87 76/81/75
f 85/109/99 68/96/88 69/82/76
f 77/110/100 92/108/98 76/81/75
f 70/84/78 85/109/99 69/82/76
f 94/111/101 77/110/100 78/85/79
f 71/112/102 86/113/103 70/84/78
f 95/114/104 78/85/79 79/98/90
f 88/99/91 71/112/102 72/86/80
f 93/115/105 107/116/106 92/108/98
f 101/117/107 85/109/99 86/113/103
f 109/118/108 93/115/105 94/111/101
f 87/119/109 101/117/107 86/113/103
f 95/114/104 109/118/108 94/111/101
f 103/120/110 87/119/109 88/99/91
f 96/97/89 110/121/111 95/114/104
f 89/101/93 103/120/110 88/99/91
f 112/122/112 96/97/89 97/105/95
f 90/123/113 104/124/114 89/101/93
f 83/102/94 98/125/115 82/126/13
f 308/127/14 112/122/112 97/105/95
f 106/128/116 90/123/113 91/106/96
f 99/129/117 83/102/94 84/107/97
f 107/116/106 91/106/96 92/108/98
f 100/130/118 84/107/97 85/109/99
f 112/122/112 126/131/119 111/132/120
f 105/133/121 119/134/122 104/124/114
f 98/125/115 113/135/123 82/136/13
f 308/137/14 127/138/124 112/122/112
f 121/139/125 105/133/121 106/128/116
f 114/140/126 98/125/115 99/129/117
f 122/141/127 106/128/116 107/116/106
f 115/142/128 99/129/117 100/130/118
f 108/143/129 122/141/127 107/116/106
f 116/144/130 100/130/118 101/117/107
f 124/145/131 108/143/129 109/118/108
f 102/146/132 116/144/130 101/117/107
f 110/121/111 124/145/131 109/118/108
f 118/147/133 102/146/132 103/120/110
f 126/131/119 110/121/111 111/132/120
f 104/124/114 118/147/133 103/120/110
f 131/148/134 115/142/128 116/144/130
f 139/149/135 123/150/136 124/145/131
f 117/151/137 131/148/134 116/144/130
f 125/152/138 139/149/135 124/145/131
f 133/153/139 117/151/137 118/147/133
f 141/154/140 125/152/138 126/131/119
f 119/134/122 133/153/139 118/147/133
f 142/155/141 126/131/119 127/138/124
f 120/156/142 134/157/143 119/134/122
f 113/135/123 128/158/144 82/159/13
f 308/160/14 142/155/141 127/138/124
f 136/161/145 120/156/142 121/139/125
f 114/140/126 128/158/144 113/135/123
f 137/162/146 121/139/125 122/141/127
f 130/163/147 114/140/126 115/142/128
f 123/150/136 137/162/146 122/141/127
f 135/164/148 149/165/149 134/157/143
f 128/158/144 143/166/150 82/167/13
f 308/168/14 157/169/151 142/155/141
f 151/170/152 135/164/148 136/161/145
f 144/171/153 128/158/144 129/172/154
f 152/173/155 136/161/145 137/162/146
f 145/174/156 129/172/154 130/163/147
f 138/175/157 152/173/155 137/162/146
f 146/176/158 130/163/147 131/148/134
f 154/177/159 138/175/157 139/149/135
f 132/178/160 146/176/158 131/148/134
f 140/179/161 154/177/159 139/149/135
f 148/180/162 132/178/160 133/153/139
f 156/181/163 140/179/161 141/154/140
f 134/157/143 148/180/162 133/153/139
f 157/169/151 141/154/140 142/155/141
f 169/182/164 153/183/165 154/177/159
f 147/184/166 161/185/167 146/176/158
f 155/186/168 169/182/164 154/177/159
f 163/187/169 147/184/166 148/180/162
f 171/188/170 155/186/168 156/181/163
f 149/165/149 163/187/169 148/180/162
f 157/169/151 171/188/170 156/181/163
f 150/189/171 164/190/172 149/165/149
f 143/166/150 158/191/173 82/192/13
f 308/193/14 172/194/174 157/169/151
f 166/195/175 150/189/171 151/170/152
f 159/196/176 143/166/150 144/171/153
f 167/197/177 151/170/152 152/173/155
f 145/174/156 159/196/176 144/171/153
f 153/183/165 167/197/177 152/173/155
f 161/185/167 145/174/156 146/176/158
f 158/191/173 173/198/178 82/199/13
f 308/200/14 187/201/179 172/194/174
f 181/202/180 165/203/181 166/195/175
f 174/204/182 158/191/173 159/196/176
f 182/205/183 166/195/175 167/197/177
f 175/206/184 159/196/176 160/207/185
f 168/208/186 182/205/183 167/197/177
f 176/209/187 160/207/185 161/185/167
f 184/210/188 168/208/186 169/182/164
f 162/211/189 176/209/187 161/185/167
f 170/212/190 184/210/188 169/182/164
f 178/213/191 162/211/189 163/187/169
f 186/214/192 170/212/190 171/188/170
f 164/190/172 178/213/191 163/187/169
f 172/194/174 186/214/192 171/188/170
f 165/203/181 179/215/193 164/190/172
f 177/216/194 191/217/195 176/209/187
f 185/218/196 199/219/197 184/210/188
f 193/220/198 177/216/194 178/213/191
f 201/221/199 185/218/196 186/214/192
f 179/215/193 193/220/198 178/213/191
f 202/222/200 186/214/192 187/201/179
f 180/223/201 194/224/202 179/215/193
f 173/198/178 188/225/203 82/226/13
f 308/227/14 202/222/200 187/201/179
f 196/228/204 180/223/201 181/202/180
f 174/204/182 188/225/203 173/198/178
f 197/229/205 181/202/180 182/205/183
f 175/206/184 189/230/206 174/204/182
f 183/231/207 197/229/205 182/205/183
f 191/217/195 175/206/184 176/209/187
f 199/219/197 183/231/207 184/210/188
f 211/232/208 195/233/209 196/228/204
f 204/234/210 188/225/203 189/230/206
f 212/235/211 196/228/204 197/229/205
f 205/236/212 189/230/206 190/237/213
f 198/238/214 212/235/211 197/229/205
f 206/239/215 190/237/213 191/217/195
f 214/240/216 198/238/214 199/219/197
f 192/241/217 206/239/215 191/217/195
f 200/242/218 214/240/216 199/219/197
f 208/243/219 192/241/217 193/220/198
f 216/244/220 200/242/218 201/221/199
f 194/224/202 208/243/219 193/220/198
f 217/245/221 201/221/199 202/222/200
f 195/233/209 209/246/222 194/224/202
f 188/225/203 203/247/223 82/248/13
f 308/249/14 217/245/221 202/222/200
f 215/250/224 229/251/225 214/240/216
f 223/252/226 207/253/227 208/243/219
f 231/254/228 215/250/224 216/244/220
f 209/246/222 223/252/226 208/243/219
f 232/255/229 216/244/220 217/245/221
f 210/256/230 224/257/231 209/246/222
f 203/247/223 218/258/232 82/259/13
f 308/260/14 232/255/229 217/245/221
f 226/261/233 210/256/230 211/232/208
f 219/262/234 203/247/223 204/234/210
f 227/263/235 211/232/208 212/235/211
f 220/264/236 204/234/210 205/236/212
f 213/265/237 227/263/235 212/235/211
f 221/266/238 205/236/212 206/239/215
f 229/251/225 213/265/237 214/240/216
f 207/253/227 221/266/238 206/239/215
f 242/267/239 226/261/233 227/263/235
f 235/268/240 219/262/234 220/264/236
f 228/269/241 242/267/239 227/263/235
f 236/270/242 220/264/236 221/266/238
f 244/271/243 228/269/241 229/251/225
f 222/272/244 236/270/242 221/266/238
f 230/273/245 244/271/243 229/251/225
f 238/274/246 222/272/244 223/252/226
f 246/275/247 230/273/245 231/254/228
f 224/257/231 238/274/246 223/252/226
f 247/276/248 231/254/228 232/255/229
f 225/277/249 239/278/250 224/257/231
f 218/258/232 233/279/251 82/280/13
f 308/281/14 247/276/248 232/255/229
f 241/282/252 225/277/249 226/261/233
f 234/283/253 218/258/232 219/262/234
f 261/284/254 245/285/255 246/275/247
f 239/278/250 253/286/256 238/274/246
f 247/276/248 261/284/254 246/275/247
f 240/287/257 254/288/258 239/278/250
f 233/279/251 248/289/259 82/290/13
f 308/291/14 262/292/260 247/276/248
f 256/293/261 240/287/257 241/282/252
f 249/294/262 233/279/251 234/283/253
f 257/295/263 241/282/252 242/267/239
f 250/296/264 234/283/253 235/268/240
f 243/297/265 257/295/263 242/267/239
f 251/298/266 235/268/240 236/270/242
f 259/299/267 243/297/265 244/271/243
f 237/300/268 251/298/266 236/270/242
f 245/285/255 259/299/267 244/271/243
f 253/286/256 237/300/268 238/274/246
f 265/301/269 249/294/262 250/296/264
f 258/302/270 272/303/271 257/295/263
f 266/304/272 250/296/264 251/298/266
f 274/305/273 258/302/270 259/299/267
f 252/306/274 266/304/272 251/298/266
f 260/307/275 274/305/273 259/299/267
f 268/308/276 252/306/274 253/286/256
f 261/284/254 275/309/277 260/307/275
f 254/288/258 268/308/276 253/286/256
f 277/310/278 261/284/254 262/292/260
f 255/311/279 269/312/280 254/288/258
f 248/289/259 263/313/281 82/314/13
f 308/315/14 277/310/278 262/292/260
f 271/316/282 255/311/279 256/293/261
f 249/294/262 263/313/281 248/289/259
f 272/303/271 256/293/261 257/295/263
f 269/312/280 283/317/283 268/308/276
f 292/318/284 276/319/285 277/310/278
f 270/320/286 284/321/287 269/312/280
f 263/313/281 278/322/288 82/323/13
f 308/324/14 292/318/284 277/310/278
f 286/325/289 270/320/286 271/316/282
f 279/326/290 263/313/281 264/327/291
f 287/328/292 271/316/282 272/303/271
f 280/329/293 264/327/291 265/301/269
f 273/330/294 287/328/292 272/303/271
f 281/331/295 265/301/269 266/304/272
f 289/332/296 273/330/294 274/305/273
f 267/333/297 281/331/295 266/304/272
f 275/309/277 289/332/296 274/305/273
f 283/317/283 267/333/297 268/308/276
f 276/319/285 290/334/298 275/309/277
f 288/335/299 302/336/300 287/328/292
f 296/337/301 280/329/293 281/331/295
f 304/338/302 288/335/299 289/332/296
f 282/339/303 296/337/301 281/331/295
f 290/334/298 304/338/302 289/332/296
f 298/340/304 282/339/303 283/317/283
f 306/341/305 290/334/298 291/342/306
f 284/321/287 298/340/304 283/317/283
f 307/343/307 291/342/306 292/318/284
f 285/344/308 299/345/309 284/321/287
f 278/322/288 293/346/310 82/347/13
f 308/348/14 307/343/307 292/318/284
f 301/349/311 285/344/308 286/325/289
f 294/350/312 278/322/288 279/326/290
f 302/336/300 286/325/289 287/328/292
f 280/329/293 294/350/312 279/326/290
f 323/351/313 306/341/305 307/343/307
f 300/352/314 315/353/315 299/345/309
f 293/346/310 309/354/316 82/355/13
f 308/356/14 323/351/313 307/343/307
f 317/357/317 300/352/314 301/349/311
f 294/350/312 309/354/316 293/346/310
f 318/358/318 301/349/311 302/336/300
f 295/359/319 310/360/320 294/350/312
f 303/361/321 318/358/318 302/336/300
f 312/362/322 295/359/319 296/337/301
f 320/363/323 303/361/321 304/338/302
f 297/364/324 312/362/322 296/337/301
f 305/365/325 320/363/323 304/338/302
f 314/366/326 297/364/324 298/340/304
f 322/367/327 305/365/325 306/341/305
f 299/345/309 314/366/326 298/340/304
f 327/368/328 311/369/329 312/362/322
f 335/370/330 319/371/331 320/363/323
f 313/372/332 327/368/328 312/362/322
f 321/373/333 335/370/330 320/363/323
f 329/374/334 313/372/332 314/366/326
f 322/367/327 336/375/335 321/373/333
f 315/353/315 329/374/334 314/366/326
f 338/376/336 322/367/327 323/351/313
f 316/377/337 330/378/338 315/353/315
f 309/354/316 324/379/339 82/380/13
f 308/381/14 338/376/336 323/351/313
f 332/382/340 316/377/337 317/357/317
f 325/383/341 309/354/316 310/360/320
f 333/384/342 317/357/317 318/358/318
f 311/369/329 325/383/341 310/360/320
f 319/371/331 333/384/342 318/358/318
f 331/385/343 345/386/344 330/378/338
f 324/379/339 339/387/345 82/388/13
f 308/389/14 353/390/346 338/376/336
f 347/391/347 331/385/343 332/382/340
f 325/383/341 339/387/345 324/379/339
f 348/392/348 332/382/340 333/384/342
f 341/393/349 325/383/341 326/394/350
f 334/395/351 348/392/348 333/384/342
f 342/396/352 326/394/350 327/368/328
f 350/397/353 334/395/351 335/370/330
f 328/398/354 342/396/352 327/368/328
f 336/375/335 350/397/353 335/370/330
f 344/399/355 328/398/354 329/374/334
f 352/400/356 336/375/335 337/401/357
f 330/378/338 344/399/355 329/374/334
f 338/376/336 352/400/356 337/401/357
f 365/402/358 349/403/359 350/397/353
f 343/404/360 357/405/361 342/396/352
f 351/406/362 365/402/358 350/397/353
f 359/407/363 343/404/360 344/399/355
f 367/408/364 351/406/362 352/400/356
f 345/386/344 359/407/363 344/399/355
f 368/409/365 352/400/356 353/390/346
f 346/410/366 360/411/367 345/386/344
f 339/387/345 354/412/368 82/413/13
f 308/414/14 368/409/365 353/390/346
f 362/415/369 346/410/366 347/391/347
f 355/416/370 339/387/345 340/417/371
f 363/418/372 347/391/347 348/392/348
f 356/419/373 340/417/371 341/393/349
f 349/403/359 363/418/372 348/392/348
f 357/405/361 341/393/349 342/396/352
f 308/420/14 383/421/374 368/422/365
f 377/423/375 361/424/376 362/425/369
f 355/426/370 369/427/377 354/428/368
f 378/429/378 362/425/369 363/430/372
f 356/431/373 370/432/379 355/426/370
f 364/433/380 378/429/378 363/430/372
f 372/434/381 356/431/373 357/435/361
f 380/436/382 364/433/380 365/437/358
f 358/438/383 372/434/381 357/435/361
f 366/439/384 380/436/382 365/437/358
f 374/440/385 358/438/383 359/441/363
f 382/442/386 366/439/384 367/443/364
f 360/444/367 374/440/385 359/441/363
f 383/421/374 367/443/364 368/422/365
f 361/424/376 375/445/387 360/444/367
f 354/428/368 369/427/377 82/446/13
f 381/447/388 395/448/389 380/436/382
f 389/449/390 373/450/391 374/440/385
f 397/451/392 381/447/388 382/442/386
f 375/445/387 389/449/390 374/440/385
f 398/452/393 382/442/386 383/421/374
f 376/453/394 390/454/395 375/445/387
f 369/427/377 384/455/396 82/456/13
f 308/457/14 398/452/393 383/421/374
f 392/458/397 376/453/394 377/423/375
f 385/459/398 369/427/377 370/432/379
f 393/460/399 377/423/375 378/429/378
f 371/461/400 385/459/398 370/432/379
f 379/462/401 393/460/399 378/429/378
f 387/463/402 371/461/400 372/434/381
f 395/448/389 379/462/401 380/436/382
f 373/450/391 387/463/402 372/434/381
f 385/459/398 399/464/403 384/455/396
f 408/465/404 392/458/397 393/460/399
f 401/466/405 385/459/398 386/467/406
f 394/468/407 408/465/404 393/460/399
f 402/469/408 386/467/406 387/463/402
f 410/470/409 394/468/407 395/448/389
f 388/471/410 402/469/408 387/463/402
f 396/472/411 410/470/409 395/448/389
f 404/473/412 388/471/410 389/449/390
f 397/451/392 411/474/413 396/472/411
f 390/454/395 404/473/412 389/449/390
f 413/475/414 397/451/392 398/452/393
f 391/476/415 405/477/416 390/454/395
f 384/455/396 399/464/403 82/478/13
f 308/479/14 413/475/414 398/452/393
f 407/480/417 391/476/415 392/458/397
f 419/481/418 403/482/419 404/473/412
f 427/483/420 411/474/413 412/484/421
f 405/477/416 419/481/418 404/473/412
f 413/475/414 427/483/420 412/484/421
f 406/485/422 420/486/423 405/477/416
f 399/464/403 414/487/424 82/488/13
f 308/489/14 428/490/425 413/475/414
f 422/491/426 406/485/422 407/480/417
f 415/492/427 399/464/403 400/493/428
f 423/494/429 407/480/417 408/465/404
f 401/466/405 415/492/427 400/493/428
f 409/495/430 423/494/429 408/465/404
f 417/496/431 401/466/405 402/469/408
f 425/497/432 409/495/430 410/470/409
f 403/482/419 417/496/431 402/469/408
f 411/474/413 425/497/432 410/470/409
f 438/498/433 422/491/426 423/494/429
f 416/499/434 430/500/435 415/492/427
f 424/501/436 438/498/433 423/494/429
f 432/502/437 416/499/434 417/496/431
f 440/503/438 424/501/436 425/497/432
f 418/504/439 432/502/437 417/496/431
f 426/505/440 440/503/438 425/497/432
f 434/506/441 418/504/439 419/481/418
f 442/507/442 426/505/440 427/483/420
f 420/486/423 434/506/441 419/481/418
f 443/508/443 427/483/420 428/490/425
f 421/509/444 435/510/445 420/486/423
f 414/487/424 429/511/446 82/512/13
f 308/513/14 443/508/443 428/490/425
f 437/514/447 421/509/444 422/491/426
f 430/500/435 414/487/424 415/492/427
f 457/515/448 441/516/449 442/507/442
f 435/510/445 449/517/450 434/506/441
f 458/518/451 442/507/442 443/508/443
f 436/519/452 450/520/453 435/510/445
f 429/511/446 444/521/454 82/522/13
f 308/523/14 458/518/451 443/508/443
f 452/524/455 436/519/452 437/514/447
f 445/525/456 429/511/446 430/500/435
f 453/526/457 437/514/447 438/498/433
f 431/527/458 445/525/456 430/500/435
f 439/528/459 453/526/457 438/498/433
f 447/529/460 431/527/458 432/502/437
f 455/530/461 439/528/459 440/503/438
f 433/531/462 447/529/460 432/502/437
f 441/516/449 455/530/461 440/503/438
f 449/517/450 433/531/462 434/506/441
f 446/532/463 460/533/464 445/525/456
f 454/534/465 468/535/466 453/526/457
f 462/536/467 446/532/463 447/529/460
f 470/537/468 454/534/465 455/530/461
f 448/538/469 462/536/467 447/529/460
f 456/539/470 470/537/468 455/530/461
f 464/540/471 448/538/469 449/517/450
f 472/541/472 456/539/470 457/515/448
f 450/520/453 464/540/471 449/517/450
f 473/542/473 457/515/448 458/518/451
f 451/543/474 465/544/475 450/520/453
f 444/521/454 459/545/476 82/546/13
f 308/547/14 473/542/473 458/518/451
f 467/548/477 451/543/474 452/524/455
f 460/533/464 444/521/454 445/525/456
f 468/535/466 452/524/455 453/526/457
f 465/544/475 477/6/6 464/540/471
f 482/8/8 472/541/472 473/542/473
f 466/549/478 3/4/4 465/544/475
f 459/545/476 474/11/11 82/550/13
f 308/551/14 482/8/8 473/542/473
f 5/16/16 466/549/478 467/548/477
f 460/533/464 474/11/11 459/545/476
f 478/19/19 467/548/477 468/535/466
f 461/552/479 475/17/17 460/533/464
f 6/23/23 468/535/466 469/553/480
f 462/536/467 1/20/20 461/552/479
f 479/27/27 469/553/480 470/537/468
f 463/554/481 476/24/24 462/536/467
f 471/555/482 479/27/27 470/537/468
f 464/540/471 2/29/29 463/554/481
f 481/3/3 471/555/482 472/541/472
f 20/1/1 19/30/30 480/2/2
f 3/4/4 13/34/34 12/5/5
f 21/7/7 20/1/1 481/3/3
f 14/9/9 13/34/34 3/4/4
f 15/15/15 14/9/9 4/10/10
f 475/17/17 8/21/21 7/12/12
f 16/18/18 15/15/15 5/16/16
f 1/20/20 9/25/25 8/21/21
f 17/22/22 16/18/18 478/19/19
f 476/24/24 10/46/44 9/25/25
f 18/26/26 17/22/22 6/23/23
f 11/28/28 10/46/44 476/24/24
f 19/30/30 18/26/26 479/27/27
f 477/6/6 12/5/5 11/28/28
f 19/30/30 34/33/33 33/31/31
f 27/32/32 26/47/45 11/28/28
f 20/1/1 35/57/55 34/33/33
f 13/34/34 28/58/56 27/32/32
f 36/35/35 35/57/55 20/1/1
f 29/36/36 28/58/56 13/34/34
f 30/40/38 29/36/36 14/9/9
f 23/41/39 22/37/37 7/12/12
f 31/42/40 30/40/38 15/15/15
f 24/43/41 23/41/39 8/21/21
f 32/44/42 31/42/40 16/18/18
f 25/45/43 24/43/41 9/25/25
f 33/31/31 32/44/42 17/22/22
f 26/47/45 25/45/43 10/46/44
f 38/48/46 37/60/58 22/37/37
f 46/49/47 45/74/68 30/40/38
f 39/50/48 38/48/46 23/41/39
f 32/44/42 47/52/50 46/49/47
f 40/51/49 39/50/48 24/43/41
f 33/31/31 48/54/52 47/52/50
f 41/53/51 40/51/49 25/45/43
f 34/33/33 49/66/62 48/54/52
f 42/55/53 41/53/51 26/47/45
f 50/56/54 49/66/62 34/33/33
f 28/58/56 43/67/63 42/55/53
f 36/35/35 51/63/59 50/56/54
f 44/59/57 43/67/63 28/58/56
f 30/40/38 45/74/68 44/59/57
f 57/64/60 56/80/74 41/53/51
f 50/56/54 65/88/82 64/65/61
f 43/67/63 58/89/83 57/64/60
f 66/68/64 65/88/82 50/56/54
f 59/69/65 58/89/83 43/67/63
f 60/73/67 59/69/65 44/59/57
f 53/75/69 52/70/66 37/60/58
f 61/76/70 60/73/67 45/74/68
f 54/77/71 53/75/69 38/48/46
f 47/52/50 62/83/77 61/76/70
f 55/78/72 54/77/71 39/50/48
f 63/79/73 62/83/77 47/52/50
f 56/80/74 55/78/72 40/51/49
f 64/65/61 63/79/73 48/54/52
f 76/81/75 75/95/87 60/73/67
f 69/82/76 68/96/88 53/75/69
f 62/83/77 77/110/100 76/81/75
f 70/84/78 69/82/76 54/77/71
f 78/85/79 77/110/100 62/83/77
f 56/80/74 71/112/102 70/84/78
f 64/65/61 79/98/90 78/85/79
f 72/86/80 71/112/102 56/80/74
f 80/87/81 79/98/90 64/65/61
f 58/89/83 73/91/85 72/86/80
f 81/90/84 80/87/81 65/88/82
f 59/69/65 74/100/92 73/91/85
f 75/95/87 74/100/92 59/69/65
f 68/96/88 67/92/86 52/70/66
f 96/97/89 95/114/104 79/98/90
f 73/91/85 89/101/93 88/99/91
f 81/90/84 97/105/95 96/97/89
f 74/100/92 90/123/113 89/101/93
f 91/106/96 90/123/113 74/100/92
f 84/107/97 83/102/94 67/92/86
f 92/108/98 91/106/96 75/95/87
f 85/109/99 84/107/97 68/96/88
f 77/110/100 93/115/105 92/108/98
f 70/84/78 86/113/103 85/109/99
f 94/111/101 93/115/105 77/110/100
f 71/112/102 87/119/109 86/113/103
f 95/114/104 94/111/101 78/85/79
f 88/99/91 87/119/109 71/112/102
f 93/115/105 108/143/129 107/116/106
f 101/117/107 100/130/118 85/109/99
f 109/118/108 108/143/129 93/115/105
f 87/119/109 102/146/132 101/117/107
f 95/114/104 110/121/111 109/118/108
f 103/120/110 102/146/132 87/119/109
f 96/97/89 111/132/120 110/121/111
f 89/101/93 104/124/114 103/120/110
f 112/122/112 111/132/120 96/97/89
f 90/123/113 105/133/121 104/124/114
f 106/128/116 105/133/121 90/123/113
f 99/129/117 98/125/115 83/102/94
f 107/116/106 106/128/116 91/106/96
f 100/130/118 99/129/117 84/107/97
f 112/122/112 127/138/124 126/131/119
f 105/133/121 120/156/142 119/134/122
f 121/139/125 120/156/142 105/133/121
f 114/140/126 113/135/123 98/125/115
f 122/141/127 121/139/125 106/128/116
f 115/142/128 114/140/126 99/129/117
f 108/143/129 123/150/136 122/141/127
f 116/144/130 115/142/128 100/130/118
f 124/145/131 123/150/136 108/143/129
f 102/146/132 117/151/137 116/144/130
f 110/121/111 125/152/138 124/145/131
f 118/147/133 117/151/137 102/146/132
f 126/131/119 125/152/138 110/121/111
f 104/124/114 119/134/122 118/147/133
f 131/148/134 130/163/147 115/142/128
f 139/149/135 138/175/157 123/150/136
f 117/151/137 132/178/160 131/148/134
f 125/152/138 140/179/161 139/149/135
f 133/153/139 132/178/160 117/151/137
f 141/154/140 140/179/161 125/152/138
f 119/134/122 134/157/143 133/153/139
f 142/155/141 141/154/140 126/131/119
f 120/156/142 135/164/148 134/157/143
f 136/161/145 135/164/148 120/156/142
f 114/140/126 129/172/154 128/158/144
f 137/162/146 136/161/145 121/139/125
f 130/163/147 129/172/154 114/140/126
f 123/150/136 138/175/157 137/162/146
f 135/164/148 150/189/171 149/165/149
f 151/170/152 150/189/171 135/164/148
f 144/171/153 143/166/150 128/158/144
f 152/173/155 151/170/152 136/161/145
f 145/174/156 144/171/153 129/172/154
f 138/175/157 153/183/165 152/173/155
f 146/176/158 145/174/156 130/163/147
f 154/177/159 153/183/165 138/175/157
f 132/178/160 147/184/166 146/176/158
f 140/179/161 155/186/168 154/177/159
f 148/180/162 147/184/166 132/178/160
f 156/181/163 155/186/168 140/179/161
f 134/157/143 149/165/149 148/180/162
f 157/169/151 156/181/163 141/154/140
f 169/182/164 168/208/186 153/183/165
f 147/184/166 162/211/189 161/185/167
f 155/186/168 170/212/190 169/182/164
f 163/187/169 162/211/189 147/184/166
f 171/188/170 170/212/190 155/186/168
f 149/165/149 164/190/172 163/187/169
f 157/169/151 172/194/174 171/188/170
f 150/189/171 165/203/181 164/190/172
f 166/195/175 165/203/181 150/189/171
f 159/196/176 158/191/173 143/166/150
f 167/197/177 166/195/175 151/170/152
f 145/174/156 160/207/185 159/196/176
f 153/183/165 168/208/186 167/197/177
f 161/185/167 160/207/185 145/174/156
f 181/202/180 180/223/201 165/203/181
f 174/204/182 173/198/178 158/191/173
f 182/205/183 181/202/180 166/195/175
f 175/206/184 174/204/182 159/196/176
f 168/208/186 183/231/207 182/205/183
f 176/209/187 175/206/184 160/207/185
f 184/210/188 183/231/207 168/208/186
f 162/211/189 177/216/194 176/209/187
f 170/212/190 185/218/196 184/210/188
f 178/213/191 177/216/194 162/211/189
f 186/214/192 185/218/196 170/212/190
f 164/190/172 179/215/193 178/213/191
f 172/194/174 187/201/179 186/214/192
f 165/203/181 180/223/201 179/215/193
f 177/216/194 192/241/217 191/217/195
f 185/218/196 200/242/218 199/219/197
f 193/220/198 192/241/217 177/216/194
f 201/221/199 200/242/218 185/218/196
f 179/215/193 194/224/202 193/220/198
f 202/222/200 201/221/199 186/214/192
f 180/223/201 195/233/209 194/224/202
f 196/228/204 195/233/209 180/223/201
f 174/204/182 189/230/206 188/225/203
f 197/229/205 196/228/204 181/202/180
f 175/206/184 190/237/213 189/230/206
f 183/231/207 198/238/214 197/229/205
f 191/217/195 190/237/213 175/206/184
f 199/219/197 198/238/214 183/231/207
f 211/232/208 210/256/230 195/233/209
f 204/234/210 203/247/223 188/225/203
f 212/235/211 211/232/208 196/228/204
f 205/236/212 204/234/210 189/230/206
f 198/238/214 213/265/237 212/235/211
f 206/239/215 205/236/212 190/237/213
f 214/240/216 213/265/237 198/238/214
f 192/241/217 207/253/227 206/239/215
f 200/242/218 215/250/224 214/240/216
f 208/243/219 207/253/227 192/241/217
f 216/244/220 215/250/224 200/242/218
f 194/224/202 209/246/222 208/243/219
f 217/245/221 216/244/220 201/221/199
f 195/233/209 210/256/230 209/246/222
f 215/250/224 230/273/245 229/251/225
f 223/252/226 222/272/244 207/253/227
f 231/254/228 230/273/245 215/250/224
f 209/246/222 224/257/231 223/252/226
f 232/255/229 231/254/228 216/244/220
f 210/256/230 225/277/249 224/257/231
f 226/261/233 225/277/249 210/256/230
f 219/262/234 218/258/232 203/247/223
f 227/263/235 226/261/233 211/232/208
f 220/264/236 219/262/234 204/234/210
f 213/265/237 228/269/241 227/263/235
f 221/266/238 220/264/236 205/236/212
f 229/251/225 228/269/241 213/265/237
f 207/253/227 222/272/244 221/266/238
f 242/267/239 241/282/252 226/261/233
f 235/268/240 234/283/253 219/262/234
f 228/269/241 243/297/265 242/267/239
f 236/270/242 235/268/240 220/264/236
f 244/271/243 243/297/265 228/269/241
f 222/272/244 237/300/268 236/270/242
f 230/273/245 245/285/255 244/271/243
f 238/274/246 237/300/268 222/272/244
f 246/275/247 245/285/255 230/273/245
f 224/257/231 239/278/250 238/274/246
f 247/276/248 246/275/247 231/254/228
f 225/277/249 240/287/257 239/278/250
f 241/282/252 240/287/257 225/277/249
f 234/283/253 233/279/251 218/258/232
f 261/284/254 260/307/275 245/285/255
f 239/278/250 254/288/258 253/286/256
f 247/276/248 262/292/260 261/284/254
f 240/287/257 255/311/279 254/288/258
f 256/293/261 255/311/279 240/287/257
f 249/294/262 248/289/259 233/279/251
f 257/295/263 256/293/261 241/282/252
f 250/296/264 249/294/262 234/283/253
f 243/297/265 258/302/270 257/295/263
f 251/298/266 250/296/264 235/268/240
f 259/299/267 258/302/270 243/297/265
f 237/300/268 252/306/274 251/298/266
f 245/285/255 260/307/275 259/299/267
f 253/286/256 252/306/274 237/300/268
f 265/301/269 264/327/291 249/294/262
f 258/302/270 273/330/294 272/303/271
f 266/304/272 265/301/269 250/296/264
f 274/305/273 273/330/294 258/302/270
f 252/306/274 267/333/297 266/304/272
f 260/307/275 275/309/277 274/305/273
f 268/308/276 267/333/297 252/306/274
f 261/284/254 276/319/285 275/309/277
f 254/288/258 269/312/280 268/308/276
f 277/310/278 276/319/285 261/284/254
f 255/311/279 270/320/286 269/312/280
f 271/316/282 270/320/286 255/311/279
f 249/294/262 264/327/291 263/313/281
f 272/303/271 271/316/282 256/293/261
f 269/312/280 284/321/287 283/317/283
f 292/318/284 291/342/306 276/319/285
f 270/320/286 285/344/308 284/321/287
f 286/325/289 285/344/308 270/320/286
f 279/326/290 278/322/288 263/313/281
f 287/328/292 286/325/289 271/316/282
f 280/329/293 279/326/290 264/327/291
f 273/330/294 288/335/299 287/328/292
f 281/331/295 280/329/293 265/301/269
f 289/332/296 288/335/299 273/330/294
f 267/333/297 282/339/303 281/331/295
f 275/309/277 290/334/298 289/332/296
f 283/317/283 282/339/303 267/333/297
f 276/319/285 291/342/306 290/334/298
f 288/335/299 303/361/321 302/336/300
f 296/337/301 295/359/319 280/329/293
f 304/338/302 303/361/321 288/335/299
f 282/339/303 297/364/324 296/337/301
f 290/334/298 305/365/325 304/338/302
f 298/340/304 297/364/324 282/339/303
f 306/341/305 305/365/325 290/334/298
f 284/321/287 299/345/309 298/340/304
f 307/343/307 306/341/305 291/342/306
f 285/344/308 300/352/314 299/345/309
f 301/349/311 300/352/314 285/344/308
f 294/350/312 293/346/310 278/322/288
f 302/336/300 301/349/311 286/325/289
f 280/329/293 295/359/319 294/350/312
f 323/351/313 322/367/327 306/341/305
f 300/352/314 316/377/337 315/353/315
f 317/357/317 316/377/337 300/352/314
f 294/350/312 310/360/320 309/354/316
f 318/358/318 317/357/317 301/349/311
f 295/359/319 311/369/329 310/360/320
f 303/361/321 319/371/331 318/358/318
f 312/362/322 311/369/329 295/359/319
f 320/363/323 319/371/331 303/361/321
f 297/364/324 313/372/332 312/362/322
f 305/365/325 321/373/333 320/363/323
f 314/366/326 313/372/332 297/364/324
f 322/367/327 321/373/333 305/365/325
f 299/345/309 315/353/315 314/366/326
f 327/368/328 326/394/350 311/369/329
f 335/370/330 334/395/351 319/371/331
f 313/372/332 328/398/354 327/368/328
f 321/373/333 336/375/335 335/370/330
f 329/374/334 328/398/354 313/372/332
f 322/367/327 337/401/357 336/375/335
f 315/353/315 330/378/338 329/374/334
f 338/376/336 337/401/357 322/367/327
f 316/377/337 331/385/343 330/378/338
f 332/382/340 331/385/343 316/377/337
f 325/383/341 324/379/339 309/354/316
f 333/384/342 332/382/340 317/357/317
f 311/369/329 326/394/350 325/383/341
f 319/371/331 334/395/351 333/384/342
f 331/385/343 346/410/366 345/386/344
f 347/391/347 346/410/366 331/385/343
f 325/383/341 340/417/371 339/387/345
f 348/392/348 347/391/347 332/382/340
f 341/393/349 340/417/371 325/383/341
f 334/395/351 349/403/359 348/392/348
f 342/396/352 341/393/349 326/394/350
f 350/397/353 349/403/359 334/395/351
f 328/398/354 343/404/360 342/396/352
f 336/375/335 351/406/362 350/397/353
f 344/399/355 343/404/360 328/398/354
f 352/400/356 351/406/362 336/375/335
f 330/378/338 345/386/344 344/399/355
f 338/376/336 353/390/346 352/400/356
f 365/402/358 364/556/380 349/403/359
f 343/404/360 358/557/383 357/405/361
f 351/406/362 366/558/384 365/402/358
f 359/407/363 358/557/383 343/404/360
f 367/408/364 366/558/384 351/406/362
f 345/386/344 360/411/367 359/407/363
f 368/409/365 367/408/364 352/400/356
f 346/410/366 361/559/376 360/411/367
f 362/415/369 361/559/376 346/410/366
f 355/416/370 354/412/368 339/387/345
f 363/418/372 362/415/369 347/391/347
f 356/419/373 355/416/370 340/417/371
f 349/403/359 364/556/380 363/418/372
f 357/405/361 356/419/373 341/393/349
f 377/423/375 376/453/394 361/424/376
f 355/426/370 370/432/379 369/427/377
f 378/429/378 377/423/375 362/425/369
f 356/431/373 371/461/400 370/432/379
f 364/433/380 379/462/401 378/429/378
f 372/434/381 371/461/400 356/431/373
f 380/436/382 379/462/401 364/433/380
f 358/438/383 373/450/391 372/434/381
f 366/439/384 381/447/388 380/436/382
f 374/440/385 373/450/391 358/438/383
f 382/442/386 381/447/388 366/439/384
f 360/444/367 375/445/387 374/440/385
f 383/421/374 382/442/386 367/443/364
f 361/424/376 376/453/394 375/445/387
f 381/447/388 396/472/411 395/448/389
f 389/449/390 388/471/410 373/450/391
f 397/451/392 396/472/411 381/447/388
f 375/445/387 390/454/395 389/449/390
f 398/452/393 397/451/392 382/442/386
f 376/453/394 391/476/415 390/454/395
f 392/458/397 391/476/415 376/453/394
f 385/459/398 384/455/396 369/427/377
f 393/460/399 392/458/397 377/423/375
f 371/461/400 386/467/406 385/459/398
f 379/462/401 394/468/407 393/460/399
f 387/463/402 386/467/406 371/461/400
f 395/448/389 394/468/407 379/462/401
f 373/450/391 388/471/410 387/463/402
f 385/459/398 400/493/428 399/464/403
f 408/465/404 407/480/417 392/458/397
f 401/466/405 400/493/428 385/459/398
f 394/468/407 409/495/430 408/465/404
f 402/469/408 401/466/405 386/467/406
f 410/470/409 409/495/430 394/468/407
f 388/471/410 403/482/419 402/469/408
f 396/472/411 411/474/413 410/470/409
f 404/473/412 403/482/419 388/471/410
f 397/451/392 412/484/421 411/474/413
f 390/454/395 405/477/416 404/473/412
f 413/475/414 412/484/421 397/451/392
f 391/476/415 406/485/422 405/477/416
f 407/480/417 406/485/422 391/476/415
f 419/481/418 418/504/439 403/482/419
f 427/483/420 426/505/440 411/474/413
f 405/477/416 420/486/423 419/481/418
f 413/475/414 428/490/425 427/483/420
f 406/485/422 421/509/444 420/486/423
f 422/491/426 421/509/444 406/485/422
f 415/492/427 414/487/424 399/464/403
f 423/494/429 422/491/426 407/480/417
f 401/466/405 416/499/434 415/492/427
f 409/495/430 424/501/436 423/494/429
f 417/496/431 416/499/434 401/466/405
f 425/497/432 424/501/436 409/495/430
f 403/482/419 418/504/439 417/496/431
f 411/474/413 426/505/440 425/497/432
f 438/498/433 437/514/447 422/491/426
f 416/499/434 431/527/458 430/500/435
f 424/501/436 439/528/459 438/498/433
f 432/502/437 431/527/458 416/499/434
f 440/503/438 439/528/459 424/501/436
f 418/504/439 433/531/462 432/502/437
f 426/505/440 441/516/449 440/503/438
f 434/506/441 433/531/462 418/504/439
f 442/507/442 441/516/449 426/505/440
f 420/486/423 435/510/445 434/506/441
f 443/508/443 442/507/442 427/483/420
f 421/509/444 436/519/452 435/510/445
f 437/514/447 436/519/452 421/509/444
f 430/500/435 429/511/446 414/487/424
f 457/515/448 456/539/470 441/516/449
f 435/510/445 450/520/453 449/517/450
f 458/518/451 457/515/448 442/507/442
f 436/519/452 451/543/474 450/520/453
f 452/524/455 451/543/474 436/519/452
f 445/525/456 444/521/454 429/511/446
f 453/526/457 452/524/455 437/514/447
f 431/527/458 446/532/463 445/525/456
f 439/528/459 454/534/465 453/526/457
f 447/529/460 446/532/463 431/527/458
f 455/530/461 454/534/465 439/528/459
f 433/531/462 448/538/469 447/529/460
f 441/516/449 456/539/470 455/530/461
f 449/517/450 448/538/469 433/531/462
f 446/532/463 461/552/479 460/533/464
f 454/534/465 469/553/480 468/535/466
f 462/536/467 461/552/479 446/532/463
f 470/537/468 469/553/480 454/534/465
f 448/538/469 463/554/481 462/536/467
f 456/539/470 471/555/482 470/537/468
f 464/540/471 463/554/481 448/538/469
f 472/541/472 471/555/482 456/539/470
f 450/520/453 465/544/475 464/540/471
f 473/542/473 472/541/472 457/515/448
f 451/543/474 466/549/478 465/544/475
f 467/548/477 466/549/478 451/543/474
f 460/533/464 459/545/476 444/521/454
f 468/535/466 467/548/477 452/524/455
f 465/544/475 3/4/4 477/6/6
f 482/8/8 481/3/3 472/541/472
f 466/549/478 4/10/10 3/4/4
f 5/16/16 4/10/10 466/549/478
f 460/533/464 475/17/17 474/11/11
f 478/19/19 5/16/16 467/548/477
f 461/552/479 1/20/20 475/17/17
f 6/23/23 478/19/19 468/535/466
f 462/536/467 476/24/24 1/20/20
f 479/27/27 6/23/23 469/553/480
f 463/554/481 2/29/29 476/24/24
f 471/555/482 480/2/2 479/27/27
f 464/540/471 477/6/6 2/29/29
f 481/3/3 480/2/2 471/555/482
